<svg width="221" height="44" viewBox="0 0 221 44" fill="none" xmlns="http://www.w3.org/2000/svg">
<path d="M22 0C9.84969 0 0 9.84974 0 22C0 34.1503 9.84969 44 22 44C32.901 44 41.9502 36.0716 43.6958 25.6667H43.5379C41.9098 31.9925 36.1674 36.6667 29.3333 36.6667C21.2332 36.6667 14.6667 30.1002 14.6667 22C14.6667 13.8998 21.2332 7.33333 29.3333 7.33333C36.1674 7.33333 41.9098 12.0075 43.5379 18.3333H43.6958C41.9502 7.92838 32.901 0 22 0Z" fill="#A4BCFD"/>
<path d="M0 22C0 9.84974 9.84974 0 22 0C32.901 0 41.9502 7.92838 43.6958 18.3333H28.8713C27.2431 12.0075 21.5007 7.33333 14.6667 7.33333C6.56649 7.33333 0 13.8998 0 22Z" fill="#3538CD"/>
<path d="M0 22C0 34.1503 9.84974 44 22 44C32.901 44 41.9502 36.0716 43.6958 25.6667H28.8713C27.2431 31.9925 21.5007 36.6667 14.6667 36.6667C6.56649 36.6667 0 30.1002 0 22Z" fill="#3538CD"/>
<path d="M68.992 34.32C67.072 34.32 65.3867 33.9787 63.936 33.296C62.5067 32.592 61.3013 31.664 60.32 30.512C59.36 29.3387 58.6347 28.0373 58.144 26.608C57.6747 25.1573 57.44 23.6747 57.44 22.16C57.44 20.6453 57.6747 19.1627 58.144 17.712C58.6347 16.2613 59.36 14.96 60.32 13.808C61.3013 12.6347 62.5067 11.7067 63.936 11.024C65.3867 10.3413 67.072 10 68.992 10C70.592 10 71.968 10.2027 73.12 10.608C74.272 11.0133 75.232 11.536 76 12.176C76.768 12.816 77.376 13.4987 77.824 14.224C78.2933 14.9493 78.6453 15.632 78.88 16.272C79.1147 16.912 79.264 17.4347 79.328 17.84C79.4133 18.2453 79.456 18.448 79.456 18.448H75.136C75.136 18.448 75.0933 18.2987 75.008 18C74.944 17.7013 74.7947 17.328 74.56 16.88C74.3467 16.4107 74.016 15.952 73.568 15.504C73.12 15.056 72.5227 14.6827 71.776 14.384C71.0507 14.0853 70.144 13.936 69.056 13.936C67.8613 13.936 66.816 14.1707 65.92 14.64C65.024 15.088 64.2773 15.7067 63.68 16.496C63.0827 17.2853 62.6347 18.1707 62.336 19.152C62.0587 20.1333 61.92 21.136 61.92 22.16C61.92 23.184 62.0587 24.1867 62.336 25.168C62.6347 26.128 63.0827 27.0027 63.68 27.792C64.2773 28.5813 65.024 29.2107 65.92 29.68C66.816 30.1493 67.8613 30.384 69.056 30.384C70.144 30.384 71.0507 30.2347 71.776 29.936C72.5227 29.616 73.12 29.232 73.568 28.784C74.016 28.336 74.3467 27.888 74.56 27.44C74.7947 26.992 74.944 26.6187 75.008 26.32C75.0933 26 75.136 25.84 75.136 25.84H79.456C79.456 25.84 79.4133 26.0427 79.328 26.448C79.264 26.8533 79.1147 27.3867 78.88 28.048C78.6453 28.688 78.2933 29.3707 77.824 30.096C77.376 30.8 76.768 31.4827 76 32.144C75.232 32.784 74.272 33.3067 73.12 33.712C71.968 34.1173 70.592 34.32 68.992 34.32Z" fill="#3538CD"/>
<path d="M91.3383 34.32C89.4823 34.32 87.9036 33.904 86.6023 33.072C85.3009 32.24 84.3089 31.1627 83.6263 29.84C82.9649 28.496 82.6343 27.056 82.6343 25.52C82.6343 23.984 82.9649 22.5547 83.6263 21.232C84.3089 19.888 85.3009 18.8 86.6023 17.968C87.9036 17.136 89.4823 16.72 91.3383 16.72C93.2156 16.72 94.7943 17.136 96.0743 17.968C97.3756 18.8 98.3569 19.888 99.0183 21.232C99.7009 22.5547 100.042 23.984 100.042 25.52C100.042 27.056 99.7009 28.496 99.0183 29.84C98.3569 31.1627 97.3756 32.24 96.0743 33.072C94.7943 33.904 93.2156 34.32 91.3383 34.32ZM91.3383 30.768C92.2983 30.768 93.0983 30.5227 93.7383 30.032C94.3996 29.5413 94.9009 28.9013 95.2423 28.112C95.5836 27.3013 95.7543 26.4373 95.7543 25.52C95.7543 24.5813 95.5836 23.7173 95.2423 22.928C94.9009 22.1387 94.3996 21.4987 93.7383 21.008C93.0983 20.5173 92.2983 20.272 91.3383 20.272C90.3996 20.272 89.5996 20.5173 88.9383 21.008C88.2769 21.4987 87.7756 22.1387 87.4343 22.928C87.0929 23.7173 86.9223 24.5813 86.9223 25.52C86.9223 26.4373 87.0929 27.3013 87.4343 28.112C87.7756 28.9013 88.2769 29.5413 88.9383 30.032C89.5996 30.5227 90.3996 30.768 91.3383 30.768Z" fill="#3538CD"/>
<path d="M106.325 14.416C105.579 14.416 104.96 14.1707 104.469 13.68C104 13.1893 103.765 12.6027 103.765 11.92C103.765 11.2373 104 10.6507 104.469 10.16C104.96 9.66934 105.579 9.42401 106.325 9.42401C107.072 9.42401 107.691 9.66934 108.181 10.16C108.672 10.6507 108.917 11.2373 108.917 11.92C108.917 12.6027 108.672 13.1893 108.181 13.68C107.691 14.1707 107.072 14.416 106.325 14.416ZM104.213 34V17.04H108.469V34H104.213Z" fill="#3538CD"/>
<path d="M112.89 34V17.04H117.146V19.472H117.338C117.509 19.1733 117.776 18.8107 118.138 18.384C118.501 17.936 119.002 17.552 119.642 17.232C120.282 16.8907 121.093 16.72 122.074 16.72C123.376 16.72 124.442 17.0187 125.274 17.616C126.128 18.192 126.757 18.96 127.162 19.92C127.589 20.88 127.802 21.9147 127.802 23.024V34H123.546V23.6C123.546 22.6827 123.29 21.8933 122.778 21.232C122.266 20.5707 121.498 20.24 120.474 20.24C119.685 20.24 119.045 20.4427 118.554 20.848C118.064 21.232 117.701 21.7333 117.466 22.352C117.253 22.9707 117.146 23.6213 117.146 24.304V34H112.89Z" fill="#3538CD"/>
<path d="M136.671 34V14.096H129.375V10.32H148.319V14.096H141.023V34H136.671Z" fill="#3538CD"/>
<path d="M149.765 34V17.04H153.989V19.376H154.149C154.448 18.7147 154.939 18.1067 155.621 17.552C156.304 16.9973 157.328 16.72 158.693 16.72C159.12 16.72 159.472 16.752 159.749 16.816C160.027 16.8587 160.165 16.88 160.165 16.88V21.008C160.165 21.008 160.005 20.9867 159.685 20.944C159.387 20.9013 159.013 20.88 158.565 20.88C157.072 20.88 155.941 21.296 155.173 22.128C154.405 22.96 154.021 24.304 154.021 26.16V34H149.765Z" fill="#3538CD"/>
<path d="M169.436 16.72C170.524 16.72 171.42 16.9013 172.124 17.264C172.828 17.6053 173.382 17.9893 173.788 18.416C174.193 18.8213 174.47 19.152 174.62 19.408H174.812V17.04H179.068V34H174.812V31.632H174.62C174.47 31.888 174.193 32.2293 173.788 32.656C173.382 33.0827 172.828 33.4667 172.124 33.808C171.42 34.1493 170.524 34.32 169.436 34.32C168.177 34.32 167.078 34.0747 166.14 33.584C165.201 33.072 164.411 32.4 163.771 31.568C163.153 30.7147 162.684 29.7653 162.364 28.72C162.065 27.6747 161.916 26.608 161.916 25.52C161.916 24.432 162.065 23.3653 162.364 22.32C162.684 21.2747 163.153 20.336 163.771 19.504C164.411 18.6507 165.201 17.9787 166.14 17.488C167.078 16.976 168.177 16.72 169.436 16.72ZM170.556 20.208C169.596 20.208 168.785 20.4747 168.124 21.008C167.484 21.52 167.004 22.1813 166.684 22.992C166.364 23.8027 166.204 24.6453 166.204 25.52C166.204 26.3947 166.364 27.2373 166.684 28.048C167.004 28.8587 167.484 29.5307 168.124 30.064C168.785 30.576 169.596 30.832 170.556 30.832C171.516 30.832 172.316 30.576 172.956 30.064C173.596 29.5307 174.075 28.8587 174.396 28.048C174.715 27.2373 174.876 26.3947 174.876 25.52C174.876 24.6453 174.715 23.8027 174.396 22.992C174.075 22.1813 173.596 21.52 172.956 21.008C172.316 20.4747 171.516 20.208 170.556 20.208Z" fill="#3538CD"/>
<path d="M190.436 34.32C189.177 34.32 188.078 34.0747 187.139 33.584C186.201 33.072 185.411 32.4 184.771 31.568C184.153 30.7147 183.684 29.7653 183.364 28.72C183.065 27.6747 182.916 26.608 182.916 25.52C182.916 24.432 183.065 23.3653 183.364 22.32C183.684 21.2747 184.153 20.336 184.771 19.504C185.411 18.6507 186.201 17.9787 187.139 17.488C188.078 16.976 189.177 16.72 190.436 16.72C191.524 16.72 192.42 16.9013 193.124 17.264C193.828 17.6053 194.382 17.9893 194.788 18.416C195.193 18.8213 195.47 19.152 195.62 19.408H195.812V9.68001H200.068V34H195.812V31.632H195.62C195.47 31.888 195.193 32.2293 194.788 32.656C194.382 33.0827 193.828 33.4667 193.124 33.808C192.42 34.1493 191.524 34.32 190.436 34.32ZM191.555 30.832C192.515 30.832 193.316 30.576 193.956 30.064C194.596 29.5307 195.076 28.8587 195.396 28.048C195.716 27.2373 195.876 26.3947 195.876 25.52C195.876 24.6453 195.716 23.8027 195.396 22.992C195.076 22.1813 194.596 21.52 193.956 21.008C193.316 20.4747 192.515 20.208 191.555 20.208C190.595 20.208 189.785 20.4747 189.124 21.008C188.484 21.52 188.004 22.1813 187.684 22.992C187.364 23.8027 187.204 24.6453 187.204 25.52C187.204 26.3947 187.364 27.2373 187.684 28.048C188.004 28.8587 188.484 29.5307 189.124 30.064C189.785 30.576 190.595 30.832 191.555 30.832Z" fill="#3538CD"/>
<path d="M212.426 34.32C210.975 34.32 209.717 34.0747 208.65 33.584C207.605 33.072 206.73 32.4 206.026 31.568C205.343 30.7147 204.831 29.7653 204.49 28.72C204.149 27.6747 203.978 26.608 203.978 25.52C203.978 24.432 204.138 23.376 204.458 22.352C204.799 21.3067 205.301 20.3573 205.962 19.504C206.645 18.6507 207.509 17.9787 208.554 17.488C209.599 16.976 210.837 16.72 212.266 16.72C213.802 16.72 215.157 17.0613 216.33 17.744C217.503 18.4267 218.421 19.4293 219.082 20.752C219.743 22.0533 220.074 23.6747 220.074 25.616V26.704H208.266C208.33 27.856 208.725 28.8587 209.45 29.712C210.175 30.544 211.167 30.96 212.426 30.96C213.151 30.96 213.749 30.8427 214.218 30.608C214.687 30.3733 215.05 30.1067 215.306 29.808C215.562 29.488 215.743 29.2213 215.85 29.008C215.957 28.7733 216.01 28.656 216.01 28.656H219.946C219.946 28.656 219.893 28.848 219.786 29.232C219.679 29.5947 219.477 30.064 219.178 30.64C218.901 31.1947 218.485 31.76 217.93 32.336C217.375 32.8907 216.65 33.36 215.754 33.744C214.858 34.128 213.749 34.32 212.426 34.32ZM208.266 23.92H215.978C215.914 22.5973 215.519 21.616 214.794 20.976C214.069 20.336 213.215 20.016 212.234 20.016C211.146 20.016 210.239 20.368 209.514 21.072C208.789 21.7547 208.373 22.704 208.266 23.92Z" fill="#3538CD"/>
</svg>
