<svg width="676" height="201" viewBox="0 0 676 201" fill="none" xmlns="http://www.w3.org/2000/svg">
<path d="M99.8643 23.6104V66.3184C99.8643 79.0858 89.4981 89.452 76.7307 89.452H34.0226C21.2552 89.452 10.8891 79.0858 10.8891 66.3184V23.6104C10.8891 10.8429 21.2552 0.476807 34.0226 0.476807H76.7307C89.4981 0.476807 99.8643 10.8429 99.8643 23.6104Z" fill="url(#paint0_linear_103_909)" fill-opacity="0.5"/>
<path d="M99.8643 23.6104V66.3184C99.8643 79.0858 89.4981 89.452 76.7307 89.452H34.0226C21.2552 89.452 10.8891 79.0858 10.8891 66.3184V23.6104C10.8891 10.8429 21.2552 0.476807 34.0226 0.476807H76.7307C89.4981 0.476807 99.8643 10.8429 99.8643 23.6104Z" stroke="url(#paint1_linear_103_909)" stroke-width="0.953624"/>
<path d="M207.821 23.6104V66.3184C207.821 79.0858 197.455 89.452 184.687 89.452H141.979C129.212 89.452 118.846 79.0858 118.846 66.3184V23.6104C118.846 10.8429 129.212 0.476807 141.979 0.476807H184.687C197.455 0.476807 207.821 10.8429 207.821 23.6104Z" fill="url(#paint2_linear_103_909)" fill-opacity="0.5"/>
<path d="M207.821 23.6104V66.3184C207.821 79.0858 197.455 89.452 184.687 89.452H141.979C129.212 89.452 118.846 79.0858 118.846 66.3184V23.6104C118.846 10.8429 129.212 0.476807 141.979 0.476807H184.687C197.455 0.476807 207.821 10.8429 207.821 23.6104Z" stroke="url(#paint3_linear_103_909)" stroke-width="0.953624"/>
<path d="M315.777 23.6104V66.3184C315.777 79.0858 305.411 89.452 292.644 89.452H249.936C237.168 89.452 226.802 79.0858 226.802 66.3184V23.6104C226.802 10.8429 237.168 0.476807 249.936 0.476807H292.644C305.411 0.476807 315.777 10.8429 315.777 23.6104Z" fill="url(#paint4_linear_103_909)" fill-opacity="0.5"/>
<path d="M315.777 23.6104V66.3184C315.777 79.0858 305.411 89.452 292.644 89.452H249.936C237.168 89.452 226.802 79.0858 226.802 66.3184V23.6104C226.802 10.8429 237.168 0.476807 249.936 0.476807H292.644C305.411 0.476807 315.777 10.8429 315.777 23.6104Z" stroke="url(#paint5_linear_103_909)" stroke-width="0.953624"/>
<path d="M423.734 23.6104V66.3184C423.734 79.0858 413.368 89.452 400.6 89.452H357.892C345.125 89.452 334.759 79.0858 334.759 66.3184V23.6104C334.759 10.8429 345.125 0.476807 357.892 0.476807H400.6C413.368 0.476807 423.734 10.8429 423.734 23.6104Z" fill="url(#paint6_linear_103_909)" fill-opacity="0.5"/>
<path d="M423.734 23.6104V66.3184C423.734 79.0858 413.368 89.452 400.6 89.452H357.892C345.125 89.452 334.759 79.0858 334.759 66.3184V23.6104C334.759 10.8429 345.125 0.476807 357.892 0.476807H400.6C413.368 0.476807 423.734 10.8429 423.734 23.6104Z" stroke="url(#paint7_linear_103_909)" stroke-width="0.953624"/>
<path d="M531.69 23.6104V66.3184C531.69 79.0858 521.324 89.452 508.557 89.452H465.849C453.081 89.452 442.715 79.0858 442.715 66.3184V23.6104C442.715 10.8429 453.081 0.476807 465.849 0.476807H508.557C521.324 0.476807 531.69 10.8429 531.69 23.6104Z" fill="url(#paint8_linear_103_909)" fill-opacity="0.5"/>
<path d="M531.69 23.6104V66.3184C531.69 79.0858 521.324 89.452 508.557 89.452H465.849C453.081 89.452 442.715 79.0858 442.715 66.3184V23.6104C442.715 10.8429 453.081 0.476807 465.849 0.476807H508.557C521.324 0.476807 531.69 10.8429 531.69 23.6104Z" stroke="url(#paint9_linear_103_909)" stroke-width="0.953624"/>
<path d="M639.647 23.6104V66.3184C639.647 79.0858 629.281 89.452 616.513 89.452H573.805C561.038 89.452 550.672 79.0858 550.672 66.3184V23.6104C550.672 10.8429 561.038 0.476807 573.805 0.476807H616.513C629.281 0.476807 639.647 10.8429 639.647 23.6104Z" fill="url(#paint10_linear_103_909)" fill-opacity="0.5"/>
<path d="M639.647 23.6104V66.3184C639.647 79.0858 629.281 89.452 616.513 89.452H573.805C561.038 89.452 550.672 79.0858 550.672 66.3184V23.6104C550.672 10.8429 561.038 0.476807 573.805 0.476807H616.513C629.281 0.476807 639.647 10.8429 639.647 23.6104Z" stroke="url(#paint11_linear_103_909)" stroke-width="0.953624"/>
<path d="M747.603 23.6104V66.3184C747.603 79.0858 737.237 89.452 724.47 89.452H681.762C668.994 89.452 658.628 79.0858 658.628 66.3184V23.6104C658.628 10.8429 668.994 0.476807 681.762 0.476807H724.47C737.237 0.476807 747.603 10.8429 747.603 23.6104Z" fill="url(#paint12_linear_103_909)" fill-opacity="0.5"/>
<path d="M747.603 23.6104V66.3184C747.603 79.0858 737.237 89.452 724.47 89.452H681.762C668.994 89.452 658.628 79.0858 658.628 66.3184V23.6104C658.628 10.8429 668.994 0.476807 681.762 0.476807H724.47C737.237 0.476807 747.603 10.8429 747.603 23.6104Z" stroke="url(#paint13_linear_103_909)" stroke-width="0.953624"/>
<path d="M48.3114 134.376V177.084C48.3114 189.851 37.9452 200.218 25.1778 200.218H-17.5303C-30.2977 200.218 -40.6638 189.851 -40.6638 177.084V134.376C-40.6638 121.609 -30.2977 111.242 -17.5303 111.242H25.1778C37.9452 111.242 48.3114 121.609 48.3114 134.376Z" fill="url(#paint14_linear_103_909)" fill-opacity="0.5"/>
<path d="M48.3114 134.376V177.084C48.3114 189.851 37.9452 200.218 25.1778 200.218H-17.5303C-30.2977 200.218 -40.6638 189.851 -40.6638 177.084V134.376C-40.6638 121.609 -30.2977 111.242 -17.5303 111.242H25.1778C37.9452 111.242 48.3114 121.609 48.3114 134.376Z" stroke="url(#paint15_linear_103_909)" stroke-width="0.953624"/>
<path d="M156.268 134.376V177.084C156.268 189.851 145.902 200.218 133.134 200.218H90.4263C77.6589 200.218 67.2927 189.851 67.2927 177.084V134.376C67.2927 121.609 77.6589 111.242 90.4263 111.242H133.134C145.902 111.242 156.268 121.609 156.268 134.376Z" fill="url(#paint16_linear_103_909)" fill-opacity="0.5"/>
<path d="M156.268 134.376V177.084C156.268 189.851 145.902 200.218 133.134 200.218H90.4263C77.6589 200.218 67.2927 189.851 67.2927 177.084V134.376C67.2927 121.609 77.6589 111.242 90.4263 111.242H133.134C145.902 111.242 156.268 121.609 156.268 134.376Z" stroke="url(#paint17_linear_103_909)" stroke-width="0.953624"/>
<path d="M264.224 134.376V177.084C264.224 189.851 253.858 200.218 241.091 200.218H198.383C185.615 200.218 175.249 189.851 175.249 177.084V134.376C175.249 121.609 185.615 111.242 198.383 111.242H241.091C253.858 111.242 264.224 121.609 264.224 134.376Z" fill="url(#paint18_linear_103_909)" fill-opacity="0.5"/>
<path d="M264.224 134.376V177.084C264.224 189.851 253.858 200.218 241.091 200.218H198.383C185.615 200.218 175.249 189.851 175.249 177.084V134.376C175.249 121.609 185.615 111.242 198.383 111.242H241.091C253.858 111.242 264.224 121.609 264.224 134.376Z" stroke="url(#paint19_linear_103_909)" stroke-width="0.953624"/>
<path d="M372.181 134.376V177.084C372.181 189.851 361.815 200.218 349.047 200.218H306.339C293.572 200.218 283.206 189.851 283.206 177.084V134.376C283.206 121.609 293.572 111.242 306.339 111.242H349.047C361.815 111.242 372.181 121.609 372.181 134.376Z" fill="url(#paint20_linear_103_909)" fill-opacity="0.5"/>
<path d="M372.181 134.376V177.084C372.181 189.851 361.815 200.218 349.047 200.218H306.339C293.572 200.218 283.206 189.851 283.206 177.084V134.376C283.206 121.609 293.572 111.242 306.339 111.242H349.047C361.815 111.242 372.181 121.609 372.181 134.376Z" stroke="url(#paint21_linear_103_909)" stroke-width="0.953624"/>
<path d="M480.138 134.376V177.084C480.138 189.851 469.771 200.218 457.004 200.218H414.296C401.528 200.218 391.162 189.851 391.162 177.084V134.376C391.162 121.609 401.528 111.242 414.296 111.242H457.004C469.771 111.242 480.138 121.609 480.138 134.376Z" fill="url(#paint22_linear_103_909)" fill-opacity="0.5"/>
<path d="M480.138 134.376V177.084C480.138 189.851 469.771 200.218 457.004 200.218H414.296C401.528 200.218 391.162 189.851 391.162 177.084V134.376C391.162 121.609 401.528 111.242 414.296 111.242H457.004C469.771 111.242 480.138 121.609 480.138 134.376Z" stroke="url(#paint23_linear_103_909)" stroke-width="0.953624"/>
<path d="M588.094 134.376V177.084C588.094 189.851 577.728 200.218 564.961 200.218H522.252C509.485 200.218 499.119 189.851 499.119 177.084V134.376C499.119 121.609 509.485 111.242 522.252 111.242H564.961C577.728 111.242 588.094 121.609 588.094 134.376Z" fill="url(#paint24_linear_103_909)" fill-opacity="0.5"/>
<path d="M588.094 134.376V177.084C588.094 189.851 577.728 200.218 564.961 200.218H522.252C509.485 200.218 499.119 189.851 499.119 177.084V134.376C499.119 121.609 509.485 111.242 522.252 111.242H564.961C577.728 111.242 588.094 121.609 588.094 134.376Z" stroke="url(#paint25_linear_103_909)" stroke-width="0.953624"/>
<path d="M696.051 134.376V177.084C696.051 189.851 685.684 200.218 672.917 200.218H630.209C617.442 200.218 607.075 189.851 607.075 177.084V134.376C607.075 121.609 617.442 111.242 630.209 111.242H672.917C685.684 111.242 696.051 121.609 696.051 134.376Z" fill="url(#paint26_linear_103_909)" fill-opacity="0.5"/>
<path d="M696.051 134.376V177.084C696.051 189.851 685.684 200.218 672.917 200.218H630.209C617.442 200.218 607.075 189.851 607.075 177.084V134.376C607.075 121.609 617.442 111.242 630.209 111.242H672.917C685.684 111.242 696.051 121.609 696.051 134.376Z" stroke="url(#paint27_linear_103_909)" stroke-width="0.953624"/>
<defs>
<linearGradient id="paint0_linear_103_909" x1="33.0065" y1="41.1945" x2="90.8974" y2="86.0629" gradientUnits="userSpaceOnUse">
<stop offset="0.16" stop-color="#1A1A1A"/>
<stop offset="0.58" stop-color="#151515"/>
<stop offset="1" stop-color="#101010"/>
</linearGradient>
<linearGradient id="paint1_linear_103_909" x1="-2.79795" y1="19.9295" x2="37.2026" y2="58.5883" gradientUnits="userSpaceOnUse">
<stop stop-color="white" stop-opacity="0.15"/>
<stop offset="0.5" stop-color="#808080" stop-opacity="0.075"/>
<stop offset="1" stop-opacity="0"/>
</linearGradient>
<linearGradient id="paint2_linear_103_909" x1="140.963" y1="41.1945" x2="198.854" y2="86.0629" gradientUnits="userSpaceOnUse">
<stop offset="0.16" stop-color="#1A1A1A"/>
<stop offset="0.58" stop-color="#151515"/>
<stop offset="1" stop-color="#101010"/>
</linearGradient>
<linearGradient id="paint3_linear_103_909" x1="105.159" y1="19.9295" x2="145.159" y2="58.5883" gradientUnits="userSpaceOnUse">
<stop stop-color="white" stop-opacity="0.15"/>
<stop offset="0.5" stop-color="#808080" stop-opacity="0.075"/>
<stop offset="1" stop-opacity="0"/>
</linearGradient>
<linearGradient id="paint4_linear_103_909" x1="248.92" y1="41.1945" x2="306.81" y2="86.0629" gradientUnits="userSpaceOnUse">
<stop offset="0.16" stop-color="#1A1A1A"/>
<stop offset="0.58" stop-color="#151515"/>
<stop offset="1" stop-color="#101010"/>
</linearGradient>
<linearGradient id="paint5_linear_103_909" x1="213.115" y1="19.9295" x2="253.116" y2="58.5883" gradientUnits="userSpaceOnUse">
<stop stop-color="white" stop-opacity="0.15"/>
<stop offset="0.5" stop-color="#808080" stop-opacity="0.075"/>
<stop offset="1" stop-opacity="0"/>
</linearGradient>
<linearGradient id="paint6_linear_103_909" x1="356.876" y1="41.1945" x2="414.767" y2="86.0629" gradientUnits="userSpaceOnUse">
<stop offset="0.16" stop-color="#1A1A1A"/>
<stop offset="0.58" stop-color="#151515"/>
<stop offset="1" stop-color="#101010"/>
</linearGradient>
<linearGradient id="paint7_linear_103_909" x1="321.072" y1="19.9295" x2="361.072" y2="58.5883" gradientUnits="userSpaceOnUse">
<stop stop-color="white" stop-opacity="0.15"/>
<stop offset="0.5" stop-color="#808080" stop-opacity="0.075"/>
<stop offset="1" stop-opacity="0"/>
</linearGradient>
<linearGradient id="paint8_linear_103_909" x1="464.833" y1="41.1945" x2="522.723" y2="86.0629" gradientUnits="userSpaceOnUse">
<stop offset="0.16" stop-color="#1A1A1A"/>
<stop offset="0.58" stop-color="#151515"/>
<stop offset="1" stop-color="#101010"/>
</linearGradient>
<linearGradient id="paint9_linear_103_909" x1="429.028" y1="19.9295" x2="469.029" y2="58.5883" gradientUnits="userSpaceOnUse">
<stop stop-color="white" stop-opacity="0.15"/>
<stop offset="0.5" stop-color="#808080" stop-opacity="0.075"/>
<stop offset="1" stop-opacity="0"/>
</linearGradient>
<linearGradient id="paint10_linear_103_909" x1="572.789" y1="41.1945" x2="630.68" y2="86.0629" gradientUnits="userSpaceOnUse">
<stop offset="0.16" stop-color="#1A1A1A"/>
<stop offset="0.58" stop-color="#151515"/>
<stop offset="1" stop-color="#101010"/>
</linearGradient>
<linearGradient id="paint11_linear_103_909" x1="536.985" y1="19.9295" x2="576.985" y2="58.5883" gradientUnits="userSpaceOnUse">
<stop stop-color="white" stop-opacity="0.15"/>
<stop offset="0.5" stop-color="#808080" stop-opacity="0.075"/>
<stop offset="1" stop-opacity="0"/>
</linearGradient>
<linearGradient id="paint12_linear_103_909" x1="680.746" y1="41.1945" x2="738.637" y2="86.0629" gradientUnits="userSpaceOnUse">
<stop offset="0.16" stop-color="#1A1A1A"/>
<stop offset="0.58" stop-color="#151515"/>
<stop offset="1" stop-color="#101010"/>
</linearGradient>
<linearGradient id="paint13_linear_103_909" x1="644.941" y1="19.9295" x2="684.942" y2="58.5883" gradientUnits="userSpaceOnUse">
<stop stop-color="white" stop-opacity="0.15"/>
<stop offset="0.5" stop-color="#808080" stop-opacity="0.075"/>
<stop offset="1" stop-opacity="0"/>
</linearGradient>
<linearGradient id="paint14_linear_103_909" x1="-18.5464" y1="151.96" x2="39.3444" y2="196.829" gradientUnits="userSpaceOnUse">
<stop offset="0.16" stop-color="#1A1A1A"/>
<stop offset="0.58" stop-color="#151515"/>
<stop offset="1" stop-color="#101010"/>
</linearGradient>
<linearGradient id="paint15_linear_103_909" x1="-54.3509" y1="130.695" x2="-14.3503" y2="169.354" gradientUnits="userSpaceOnUse">
<stop stop-color="white" stop-opacity="0.15"/>
<stop offset="0.5" stop-color="#808080" stop-opacity="0.075"/>
<stop offset="1" stop-opacity="0"/>
</linearGradient>
<linearGradient id="paint16_linear_103_909" x1="89.4102" y1="151.96" x2="147.301" y2="196.829" gradientUnits="userSpaceOnUse">
<stop offset="0.16" stop-color="#1A1A1A"/>
<stop offset="0.58" stop-color="#151515"/>
<stop offset="1" stop-color="#101010"/>
</linearGradient>
<linearGradient id="paint17_linear_103_909" x1="53.6057" y1="130.695" x2="93.6062" y2="169.354" gradientUnits="userSpaceOnUse">
<stop stop-color="white" stop-opacity="0.15"/>
<stop offset="0.5" stop-color="#808080" stop-opacity="0.075"/>
<stop offset="1" stop-opacity="0"/>
</linearGradient>
<linearGradient id="paint18_linear_103_909" x1="197.367" y1="151.96" x2="255.258" y2="196.829" gradientUnits="userSpaceOnUse">
<stop offset="0.16" stop-color="#1A1A1A"/>
<stop offset="0.58" stop-color="#151515"/>
<stop offset="1" stop-color="#101010"/>
</linearGradient>
<linearGradient id="paint19_linear_103_909" x1="161.562" y1="130.695" x2="201.563" y2="169.354" gradientUnits="userSpaceOnUse">
<stop stop-color="white" stop-opacity="0.15"/>
<stop offset="0.5" stop-color="#808080" stop-opacity="0.075"/>
<stop offset="1" stop-opacity="0"/>
</linearGradient>
<linearGradient id="paint20_linear_103_909" x1="305.323" y1="151.96" x2="363.214" y2="196.829" gradientUnits="userSpaceOnUse">
<stop offset="0.16" stop-color="#1A1A1A"/>
<stop offset="0.58" stop-color="#151515"/>
<stop offset="1" stop-color="#101010"/>
</linearGradient>
<linearGradient id="paint21_linear_103_909" x1="269.519" y1="130.695" x2="309.519" y2="169.354" gradientUnits="userSpaceOnUse">
<stop stop-color="white" stop-opacity="0.15"/>
<stop offset="0.5" stop-color="#808080" stop-opacity="0.075"/>
<stop offset="1" stop-opacity="0"/>
</linearGradient>
<linearGradient id="paint22_linear_103_909" x1="413.28" y1="151.96" x2="471.171" y2="196.829" gradientUnits="userSpaceOnUse">
<stop offset="0.16" stop-color="#1A1A1A"/>
<stop offset="0.58" stop-color="#151515"/>
<stop offset="1" stop-color="#101010"/>
</linearGradient>
<linearGradient id="paint23_linear_103_909" x1="377.475" y1="130.695" x2="417.476" y2="169.354" gradientUnits="userSpaceOnUse">
<stop stop-color="white" stop-opacity="0.15"/>
<stop offset="0.5" stop-color="#808080" stop-opacity="0.075"/>
<stop offset="1" stop-opacity="0"/>
</linearGradient>
<linearGradient id="paint24_linear_103_909" x1="521.236" y1="151.96" x2="579.127" y2="196.829" gradientUnits="userSpaceOnUse">
<stop offset="0.16" stop-color="#1A1A1A"/>
<stop offset="0.58" stop-color="#151515"/>
<stop offset="1" stop-color="#101010"/>
</linearGradient>
<linearGradient id="paint25_linear_103_909" x1="485.432" y1="130.695" x2="525.432" y2="169.354" gradientUnits="userSpaceOnUse">
<stop stop-color="white" stop-opacity="0.15"/>
<stop offset="0.5" stop-color="#808080" stop-opacity="0.075"/>
<stop offset="1" stop-opacity="0"/>
</linearGradient>
<linearGradient id="paint26_linear_103_909" x1="629.193" y1="151.96" x2="687.084" y2="196.829" gradientUnits="userSpaceOnUse">
<stop offset="0.16" stop-color="#1A1A1A"/>
<stop offset="0.58" stop-color="#151515"/>
<stop offset="1" stop-color="#101010"/>
</linearGradient>
<linearGradient id="paint27_linear_103_909" x1="593.388" y1="130.695" x2="633.389" y2="169.354" gradientUnits="userSpaceOnUse">
<stop stop-color="white" stop-opacity="0.15"/>
<stop offset="0.5" stop-color="#808080" stop-opacity="0.075"/>
<stop offset="1" stop-opacity="0"/>
</linearGradient>
</defs>
</svg>
