<svg width="676" height="201" viewBox="0 0 676 201" fill="none" xmlns="http://www.w3.org/2000/svg">
<path d="M99.8643 23.6104V66.3184C99.8643 79.0858 89.4981 89.452 76.7307 89.452H34.0226C21.2552 89.452 10.8891 79.0858 10.8891 66.3184V23.6104C10.8891 10.8429 21.2552 0.476807 34.0226 0.476807H76.7307C89.4981 0.476807 99.8643 10.8429 99.8643 23.6104Z" fill="url(#paint0_linear_103_909)" fill-opacity="0.5"/>
<g opacity="0.5" filter="url(#filter0_i_103_909)">
<path d="M52.8888 53.4591H67.5951V61.2828H58.5452C58.6947 63.5202 58.7718 65.5964 58.9212 67.8314H51.3054V61.3622H42.2532C42.2532 58.8096 41.9519 56.2546 42.405 53.8585C42.6315 52.581 43.9884 51.4623 44.8175 50.3459C47.686 46.7613 50.5773 43.195 53.4913 39.6473C54.624 38.2881 55.7544 37.0106 57.0365 35.4949H42.9305V27.6711H51.3054V21.1226H58.62V27.51H67.7469C67.7469 30.1444 68.0481 32.6993 67.5951 35.0955C67.3685 36.373 66.0116 37.4917 65.1078 38.608C62.2393 42.1926 59.348 45.7589 56.434 49.3067C55.2962 50.7277 54.1139 52.1126 52.8888 53.4591Z" fill="#535353"/>
</g>
<path d="M99.8643 23.6104V66.3184C99.8643 79.0858 89.4981 89.452 76.7307 89.452H34.0226C21.2552 89.452 10.8891 79.0858 10.8891 66.3184V23.6104C10.8891 10.8429 21.2552 0.476807 34.0226 0.476807H76.7307C89.4981 0.476807 99.8643 10.8429 99.8643 23.6104Z" stroke="url(#paint1_linear_103_909)" stroke-width="0.953624"/>
<path d="M207.821 23.6104V66.3184C207.821 79.0858 197.455 89.452 184.687 89.452H141.979C129.212 89.452 118.846 79.0858 118.846 66.3184V23.6104C118.846 10.8429 129.212 0.476807 141.979 0.476807H184.687C197.455 0.476807 207.821 10.8429 207.821 23.6104Z" fill="url(#paint2_linear_103_909)" fill-opacity="0.5"/>
<g opacity="0.5" filter="url(#filter1_i_103_909)">
<path d="M175.959 26.1233C175.959 27.584 174.771 28.7696 173.304 28.7696C172.956 28.7702 172.611 28.7022 172.289 28.5695C171.967 28.4368 171.675 28.242 171.428 27.9963C171.182 27.7505 170.986 27.4586 170.852 27.1373C170.719 26.8159 170.65 26.4714 170.649 26.1233C170.649 24.6605 171.837 23.4769 173.304 23.4769C174.771 23.4769 175.959 24.6605 175.959 26.1233ZM174.046 35.3418C172.804 35.3418 171.795 34.3374 171.795 33.0997C171.795 31.8619 172.804 30.8596 174.046 30.8596C175.288 30.8596 176.294 31.8619 176.294 33.0997C176.294 34.3374 175.288 35.3418 174.044 35.3418H174.046ZM173.348 40.87C173.098 40.8705 172.851 40.8219 172.621 40.7268C172.39 40.6318 172.181 40.4922 172.004 40.316C171.828 40.1399 171.687 39.9307 171.592 39.7004C171.496 39.47 171.447 39.2231 171.447 38.9738C171.447 38.7246 171.497 38.4779 171.593 38.2478C171.688 38.0177 171.828 37.8087 172.005 37.6328C172.181 37.4569 172.391 37.3175 172.621 37.2226C172.852 37.1277 173.098 37.0791 173.348 37.0796C173.597 37.0791 173.844 37.1277 174.074 37.2228C174.305 37.3178 174.515 37.4574 174.691 37.6335C174.868 37.8097 175.008 38.0189 175.103 38.2492C175.199 38.4796 175.248 38.7265 175.248 38.9758C175.248 39.225 175.198 39.4717 175.103 39.7018C175.007 39.9319 174.867 40.1409 174.69 40.3168C174.514 40.4927 174.304 40.6321 174.074 40.727C173.844 40.8219 173.597 40.8705 173.348 40.87ZM173.235 43.7289C173.235 44.1599 173.064 44.5733 172.759 44.8781C172.454 45.1829 172.041 45.3542 171.61 45.3542C171.179 45.3542 170.765 45.1829 170.46 44.8781C170.156 44.5733 169.984 44.1599 169.984 43.7289C169.984 43.2978 170.156 42.8844 170.46 42.5796C170.765 42.2748 171.179 42.1035 171.61 42.1035C172.041 42.1035 172.454 42.2748 172.759 42.5796C173.064 42.8844 173.235 43.2978 173.235 43.7289ZM170.664 47.3212C170.664 48.0922 170.039 48.7111 169.27 48.7111C168.994 48.7103 168.726 48.6279 168.497 48.4743C168.269 48.3208 168.091 48.103 167.986 47.8485C167.882 47.5939 167.855 47.3141 167.909 47.0443C167.964 46.7745 168.097 46.5269 168.292 46.3327C168.487 46.1385 168.735 46.0065 169.005 45.9534C169.275 45.9003 169.555 45.9284 169.809 46.0342C170.063 46.14 170.28 46.3187 170.433 46.5478C170.585 46.7769 170.666 47.046 170.666 47.3212H170.664ZM167.851 49.8697C167.851 50.1869 167.725 50.4911 167.5 50.7154C167.276 50.9397 166.972 51.0657 166.655 51.0657C166.337 51.0657 166.033 50.9397 165.809 50.7154C165.585 50.4911 165.459 50.1869 165.459 49.8697C165.459 49.5524 165.585 49.2482 165.809 49.0239C166.033 48.7996 166.337 48.6736 166.655 48.6736C166.972 48.6736 167.276 48.7996 167.5 49.0239C167.725 49.2482 167.851 49.5524 167.851 49.8697ZM182.174 34.4312C182.02 34.9944 181.654 35.4759 181.152 35.7748C180.65 36.0738 180.053 36.1668 179.484 36.0345C178.915 35.9021 178.42 35.5547 178.102 35.065C177.784 34.5753 177.667 33.9815 177.778 33.4081C177.913 32.825 178.275 32.3198 178.783 32.0034C179.291 31.6871 179.904 31.5856 180.488 31.7213C181.071 31.8569 181.576 32.2187 181.892 32.7269C182.209 33.2351 182.31 33.8481 182.174 34.4312ZM181.095 40.2719C180.98 40.7654 180.673 41.193 180.243 41.4604C179.812 41.7279 179.293 41.8135 178.8 41.6983C178.306 41.583 177.879 41.2765 177.611 40.846C177.344 40.4156 177.258 39.8965 177.373 39.403C177.489 38.9095 177.795 38.482 178.226 38.2145C178.656 37.947 179.175 37.8615 179.669 37.9767C180.162 38.0919 180.59 38.3985 180.857 38.8289C181.125 39.2593 181.21 39.7784 181.095 40.2719ZM179.086 44.9333C178.989 45.3505 178.73 45.712 178.366 45.9383C178.002 46.1646 177.563 46.237 177.146 46.1398C176.729 46.0425 176.367 45.7835 176.141 45.4196C175.915 45.0558 175.842 44.617 175.94 44.1998C176.052 43.7987 176.315 43.4565 176.673 43.2445C177.032 43.0324 177.458 42.9668 177.864 43.0613C178.269 43.1559 178.623 43.4033 178.851 43.752C179.078 44.1007 179.163 44.5239 179.086 44.9333ZM176.498 48.4819C176.401 48.8231 176.176 49.1139 175.871 49.294C175.565 49.4741 175.202 49.5297 174.856 49.4494C174.511 49.369 174.21 49.1588 174.015 48.8623C173.82 48.5658 173.747 48.2058 173.81 47.8568C173.851 47.6805 173.927 47.514 174.033 47.367C174.138 47.2199 174.272 47.0951 174.425 46.9997C174.579 46.9043 174.75 46.8401 174.929 46.8109C175.108 46.7817 175.291 46.788 175.467 46.8295C175.643 46.87 175.81 46.9449 175.957 47.05C176.104 47.155 176.23 47.2881 176.325 47.4416C176.421 47.5951 176.486 47.766 176.515 47.9445C176.545 48.123 176.539 48.3057 176.498 48.4819ZM173.671 50.9595C173.635 51.1111 173.57 51.2542 173.479 51.3806C173.388 51.5071 173.273 51.6144 173.141 51.6964C173.009 51.7784 172.861 51.8336 172.708 51.8588C172.554 51.8839 172.397 51.8785 172.245 51.843C172.094 51.8074 171.951 51.7423 171.824 51.6514C171.698 51.5606 171.59 51.4457 171.508 51.3133C171.426 51.181 171.371 51.0337 171.346 50.8801C171.321 50.7264 171.326 50.5693 171.362 50.4177C171.434 50.1115 171.624 49.8464 171.891 49.6807C172.159 49.5151 172.481 49.4623 172.787 49.5342C173.093 49.606 173.358 49.7965 173.524 50.0638C173.69 50.3311 173.742 50.6533 173.671 50.9595ZM170.847 52.5244C170.771 52.7711 170.604 52.9798 170.38 53.1083C170.156 53.2368 169.891 53.2757 169.64 53.217C169.388 53.1584 169.168 53.0066 169.024 52.7922C168.88 52.5778 168.823 52.3168 168.863 52.0618C168.94 51.815 169.107 51.6064 169.331 51.4778C169.555 51.3493 169.819 51.3104 170.071 51.3691C170.322 51.4277 170.542 51.5795 170.686 51.7939C170.83 52.0083 170.888 52.2693 170.847 52.5244ZM185.65 42.4057C185.427 42.8637 185.032 43.2146 184.55 43.3814C184.069 43.5482 183.541 43.5173 183.083 43.2954C182.856 43.1865 182.652 43.0337 182.484 42.8458C182.316 42.6579 182.187 42.4386 182.104 42.2006C182.021 41.9626 181.986 41.7105 182.001 41.4589C182.016 41.2072 182.08 40.9611 182.191 40.7345C182.414 40.277 182.809 39.9265 183.29 39.7598C183.771 39.593 184.298 39.6235 184.756 39.8448C184.983 39.9541 185.186 40.1071 185.354 40.2951C185.522 40.483 185.651 40.7021 185.734 40.94C185.817 41.1778 185.852 41.4297 185.838 41.6812C185.823 41.9327 185.76 42.1789 185.65 42.4057ZM183.648 47.0212C183.448 47.3928 183.113 47.6731 182.712 47.8036C182.311 47.9341 181.876 47.9048 181.496 47.7218C181.116 47.5387 180.821 47.216 180.674 46.8211C180.526 46.4262 180.537 45.9895 180.703 45.6022C180.894 45.2134 181.23 44.9155 181.639 44.7735C182.048 44.6314 182.496 44.6567 182.887 44.8437C183.08 44.9361 183.254 45.0659 183.397 45.2256C183.54 45.3853 183.65 45.5717 183.72 45.7741C183.791 45.9765 183.821 46.1909 183.809 46.4049C183.796 46.619 183.741 46.8284 183.648 47.0212ZM181.13 50.5219C180.966 50.8582 180.675 51.1158 180.321 51.2384C179.968 51.361 179.58 51.3386 179.242 51.1762C179.076 51.096 178.927 50.9837 178.804 50.8458C178.68 50.7078 178.586 50.5469 178.525 50.3723C178.464 50.1977 178.438 50.0128 178.449 49.8282C178.46 49.6436 178.507 49.4629 178.588 49.2966C178.76 48.9758 179.05 48.7339 179.396 48.6215C179.743 48.509 180.119 48.5345 180.447 48.6929C180.775 48.8512 181.029 49.13 181.156 49.4712C181.284 49.8124 181.274 50.1895 181.13 50.524V50.5219ZM178.326 52.9974C178.183 53.2884 177.931 53.5113 177.624 53.6175C177.318 53.7236 176.982 53.7045 176.69 53.5641C176.541 53.4968 176.407 53.4004 176.296 53.2805C176.185 53.1606 176.099 53.0196 176.044 52.866C175.988 52.7124 175.964 52.5491 175.972 52.386C175.981 52.2228 176.022 52.063 176.093 51.916C176.164 51.7689 176.264 51.6377 176.387 51.5299C176.51 51.4222 176.653 51.3402 176.808 51.2887C176.963 51.2372 177.127 51.2174 177.29 51.2302C177.453 51.2431 177.612 51.2885 177.757 51.3637C177.901 51.4336 178.031 51.5313 178.138 51.6513C178.245 51.7712 178.327 51.911 178.38 52.0627C178.432 52.2144 178.455 52.375 178.446 52.5354C178.436 52.6958 178.396 52.8527 178.326 52.9974ZM175.502 54.5227C175.374 54.7601 175.159 54.939 174.903 55.0222C174.646 55.1053 174.367 55.0862 174.124 54.9688C173.881 54.8515 173.693 54.645 173.598 54.3923C173.504 54.1395 173.51 53.8601 173.616 53.6121C173.749 53.3835 173.964 53.2136 174.217 53.1362C174.47 53.0588 174.742 53.0797 174.981 53.1947C175.219 53.3098 175.405 53.5104 175.501 53.7566C175.598 54.0027 175.598 54.2763 175.502 54.5227ZM172.85 55.2916C172.746 55.5033 172.563 55.6655 172.341 55.7428C172.118 55.8201 171.874 55.8062 171.662 55.7042C171.557 55.6533 171.463 55.5822 171.386 55.4951C171.309 55.408 171.249 55.3064 171.211 55.1963C171.173 55.0862 171.157 54.9697 171.164 54.8534C171.171 54.7371 171.2 54.6233 171.251 54.5185C171.302 54.4137 171.373 54.3199 171.46 54.2426C171.548 54.1652 171.649 54.1058 171.759 54.0677C171.869 54.0296 171.986 54.0135 172.102 54.0204C172.218 54.0273 172.332 54.0571 172.437 54.108C172.542 54.1586 172.636 54.2293 172.713 54.3162C172.791 54.403 172.85 54.5043 172.889 54.6142C172.927 54.7242 172.943 54.8406 172.937 54.9568C172.93 55.073 172.9 55.1868 172.85 55.2916ZM175.008 65.4102C174.706 65.2376 174.442 65.0071 174.229 64.7318C174.017 64.4566 173.861 64.142 173.77 63.8063C173.679 63.4705 173.656 63.1202 173.701 62.7754C173.746 62.4306 173.859 62.0981 174.033 61.797C174.386 61.1888 174.966 60.7453 175.646 60.5633C176.325 60.3814 177.049 60.4758 177.659 60.826C178.93 61.5553 179.368 63.1744 178.636 64.4392C178.283 65.0478 177.703 65.4918 177.024 65.6738C176.344 65.8558 175.62 65.761 175.01 65.4102H175.008ZM168.778 62.2179C168.522 62.0719 168.298 61.8768 168.118 61.6437C167.938 61.4107 167.806 61.1444 167.729 60.8601C167.652 60.5758 167.633 60.2792 167.671 59.9872C167.71 59.6953 167.805 59.4138 167.953 59.159C168.252 58.6439 168.742 58.2682 169.318 58.114C169.893 57.9597 170.506 58.0395 171.022 58.3359C172.097 58.9527 172.466 60.3238 171.847 61.3949C171.549 61.9103 171.058 62.2864 170.483 62.4407C169.907 62.595 169.294 62.5149 168.778 62.2179ZM164.19 58.3839C163.973 58.2601 163.783 58.0948 163.631 57.8974C163.479 57.7001 163.367 57.4746 163.302 57.2339C163.237 56.9932 163.221 56.7421 163.253 56.4949C163.286 56.2478 163.367 56.0095 163.491 55.7938C163.745 55.3583 164.16 55.0408 164.646 54.9108C165.133 54.7807 165.651 54.8487 166.088 55.0999C166.304 55.2234 166.493 55.3884 166.645 55.5852C166.797 55.782 166.908 56.0069 166.973 56.2469C167.038 56.487 167.055 56.7374 167.023 56.984C166.99 57.2305 166.91 57.4683 166.786 57.6837C166.534 58.1207 166.119 58.4398 165.633 58.5711C165.146 58.7024 164.627 58.635 164.19 58.3839ZM161.062 54.2705C160.878 54.164 160.716 54.0221 160.587 53.8532C160.458 53.6842 160.363 53.4915 160.308 53.2859C160.253 53.0803 160.239 52.8659 160.267 52.655C160.295 52.4441 160.364 52.2407 160.471 52.0566C160.578 51.8724 160.719 51.711 160.888 51.5817C161.057 51.4523 161.25 51.3575 161.456 51.3027C161.661 51.2478 161.876 51.234 162.087 51.262C162.298 51.29 162.501 51.3592 162.685 51.4658C163.46 51.9117 163.727 52.9015 163.279 53.6746C163.064 54.0472 162.709 54.3192 162.294 54.431C161.878 54.5427 161.435 54.485 161.062 54.2705ZM159.222 50.2572C159.063 50.1665 158.924 50.0454 158.813 49.9007C158.701 49.7561 158.619 49.5909 158.571 49.4145C158.524 49.2382 158.511 49.0541 158.535 48.873C158.559 48.6919 158.618 48.5172 158.709 48.3589C158.895 48.0389 159.2 47.8055 159.557 47.7098C159.914 47.6141 160.295 47.664 160.616 47.8484C161.283 48.2318 161.512 49.082 161.128 49.7446C160.944 50.0654 160.639 50.2997 160.281 50.3958C159.924 50.4919 159.543 50.4421 159.222 50.2572ZM158.411 46.5544C158.275 46.4763 158.156 46.372 158.06 46.2476C157.964 46.1232 157.894 45.9811 157.854 45.8295C157.813 45.6779 157.803 45.5198 157.823 45.3642C157.844 45.2086 157.895 45.0586 157.974 44.9228C158.133 44.6491 158.394 44.4494 158.7 44.3674C159.006 44.2855 159.332 44.3278 159.607 44.4853C159.743 44.5638 159.862 44.6683 159.958 44.7929C160.053 44.9174 160.123 45.0596 160.164 45.2112C160.204 45.3628 160.215 45.5209 160.194 45.6764C160.173 45.832 160.122 45.982 160.044 46.1179C159.965 46.2537 159.861 46.3728 159.736 46.4683C159.612 46.5637 159.47 46.6337 159.318 46.6743C159.166 46.7148 159.008 46.7251 158.853 46.7045C158.697 46.684 158.547 46.633 158.411 46.5544ZM166.225 67.2377C165.929 67.2382 165.636 67.1805 165.363 67.0676C165.089 66.9548 164.84 66.7892 164.631 66.5802C164.421 66.3712 164.255 66.1229 164.141 65.8496C164.028 65.5763 163.969 65.2832 163.969 64.9872C163.969 64.6914 164.028 64.3984 164.141 64.1252C164.255 63.852 164.421 63.6039 164.631 63.3951C164.84 63.1862 165.089 63.0208 165.363 62.9082C165.636 62.7956 165.929 62.7381 166.225 62.7389C167.471 62.7389 168.482 63.7453 168.482 64.9893C168.482 66.2312 167.471 67.2377 166.225 67.2377ZM160.145 62.7826C159.962 62.6121 159.814 62.407 159.71 62.1792C159.607 61.9514 159.549 61.7053 159.541 61.4552C159.532 61.205 159.574 60.9557 159.662 60.7215C159.75 60.4873 159.884 60.2728 160.055 60.0904C160.403 59.7216 160.882 59.5054 161.389 59.489C161.895 59.4726 162.387 59.6574 162.758 60.0029C163.529 60.7218 163.566 61.9262 162.845 62.6951C162.498 63.0633 162.019 63.2791 161.513 63.2955C161.007 63.3119 160.515 63.1275 160.145 62.7826ZM157.092 58.7235C156.938 58.5789 156.813 58.4053 156.726 58.2124C156.638 58.0196 156.59 57.8115 156.583 57.5999C156.576 57.3883 156.611 57.1774 156.686 56.9794C156.761 56.7814 156.874 56.6001 157.019 56.446C157.313 56.134 157.718 55.9509 158.146 55.9368C158.574 55.9228 158.99 56.0789 159.303 56.371C159.458 56.5151 159.584 56.6885 159.671 56.8813C159.759 57.0741 159.808 57.2823 159.815 57.4941C159.822 57.7058 159.787 57.9169 159.712 58.115C159.637 58.3131 159.524 58.4945 159.378 58.6485C159.084 58.9606 158.679 59.1437 158.251 59.1578C157.822 59.1719 157.406 59.0157 157.092 58.7235ZM155.302 54.7144C155.17 54.5911 155.063 54.4429 154.989 54.2784C154.914 54.1138 154.872 53.936 154.867 53.7553C154.861 53.5746 154.891 53.3946 154.955 53.2255C155.019 53.0564 155.116 52.9017 155.24 52.7702C155.49 52.5039 155.836 52.3476 156.202 52.3355C156.567 52.3234 156.923 52.4565 157.19 52.7056C157.322 52.8291 157.429 52.9774 157.504 53.1421C157.579 53.3067 157.62 53.4846 157.626 53.6653C157.632 53.8461 157.603 54.0263 157.539 54.1956C157.475 54.3649 157.379 54.5199 157.255 54.6519C157.004 54.9185 156.657 55.0748 156.291 55.0865C155.926 55.0983 155.57 54.9644 155.302 54.7144ZM154.561 51.0386C154.447 50.9327 154.356 50.8055 154.292 50.6642C154.228 50.5229 154.192 50.3704 154.187 50.2153C154.182 50.0603 154.208 49.9058 154.262 49.7607C154.317 49.6155 154.4 49.4826 154.506 49.3696C154.721 49.1399 155.019 49.005 155.333 48.9944C155.648 48.9839 155.954 49.0986 156.184 49.3133C156.663 49.7592 156.684 50.5073 156.238 50.9845C156.023 51.2139 155.725 51.3484 155.41 51.3585C155.096 51.3687 154.79 51.2536 154.561 51.0386ZM154.611 47.8172C154.513 47.7264 154.434 47.6173 154.379 47.496C154.323 47.3747 154.293 47.2436 154.288 47.1103C154.284 46.9771 154.306 46.8443 154.353 46.7195C154.4 46.5948 154.471 46.4806 154.563 46.3836C154.748 46.1871 155.003 46.072 155.273 46.0634C155.543 46.0548 155.805 46.1534 156.002 46.3377C156.174 46.5276 156.268 46.7752 156.266 47.0313C156.263 47.2874 156.165 47.5331 155.989 47.7196C155.814 47.9061 155.574 48.0197 155.319 48.0378C155.063 48.0559 154.811 47.9771 154.611 47.8172ZM156.017 65.654C155.875 65.4461 155.776 65.2122 155.725 64.9657C155.674 64.7193 155.672 64.4653 155.719 64.2181C155.766 63.9709 155.862 63.7354 156 63.5252C156.139 63.315 156.317 63.1342 156.525 62.9931C156.947 62.7067 157.465 62.5992 157.966 62.6942C158.467 62.7891 158.909 63.0787 159.197 63.4995C159.339 63.7072 159.438 63.9409 159.489 64.1872C159.541 64.4335 159.543 64.6875 159.496 64.9346C159.448 65.1817 159.353 65.417 159.214 65.627C159.076 65.837 158.897 66.0176 158.688 66.1583C158.267 66.4443 157.749 66.5518 157.249 66.4573C156.748 66.3629 156.305 66.074 156.017 65.654ZM153.004 61.6199C152.883 61.4431 152.798 61.2441 152.754 61.0343C152.71 60.8245 152.708 60.6082 152.748 60.3977C152.789 60.1872 152.87 59.9866 152.988 59.8077C153.106 59.6287 153.258 59.4748 153.435 59.3549C153.794 59.112 154.234 59.0209 154.659 59.1013C155.085 59.1817 155.461 59.4272 155.707 59.7841C155.828 59.961 155.913 60.16 155.956 60.3697C156 60.5795 156.002 60.7959 155.962 61.0064C155.922 61.2169 155.841 61.4174 155.723 61.5964C155.605 61.7753 155.453 61.9292 155.275 62.0492C154.917 62.2925 154.477 62.384 154.051 62.3036C153.625 62.2231 153.249 61.9773 153.004 61.6199ZM151.216 57.6962C151.112 57.5435 151.039 57.3717 151.001 57.1907C150.964 57.0097 150.962 56.8231 150.997 56.6415C151.031 56.4599 151.102 56.2869 151.203 56.1325C151.305 55.9781 151.436 55.8453 151.589 55.7417C151.899 55.5317 152.279 55.4529 152.647 55.5224C153.015 55.5919 153.34 55.804 153.552 56.1126C153.657 56.2656 153.73 56.4378 153.768 56.6193C153.806 56.8008 153.807 56.988 153.772 57.1701C153.738 57.3522 153.667 57.5255 153.565 57.6802C153.463 57.8349 153.331 57.9678 153.177 58.0713C152.867 58.2802 152.487 58.358 152.119 58.2877C151.752 58.2174 151.427 58.0048 151.216 57.6962ZM150.466 54.0413C150.375 53.9087 150.312 53.7595 150.279 53.6023C150.247 53.4451 150.245 53.2829 150.275 53.1252C150.305 52.9675 150.366 52.8172 150.454 52.683C150.542 52.5488 150.656 52.4333 150.789 52.3431C151.058 52.1606 151.388 52.0921 151.708 52.1526C152.027 52.2132 152.31 52.3978 152.493 52.666C152.584 52.7987 152.648 52.948 152.681 53.1053C152.714 53.2627 152.715 53.425 152.685 53.583C152.655 53.7409 152.594 53.8912 152.505 54.0253C152.416 54.1594 152.302 54.2747 152.168 54.3643C151.899 54.5461 151.57 54.6142 151.251 54.5537C150.932 54.4932 150.65 54.309 150.466 54.0413ZM150.549 50.8407C150.472 50.7275 150.418 50.6001 150.39 50.4659C150.361 50.3316 150.36 50.1932 150.386 50.0584C150.411 49.9237 150.463 49.7953 150.538 49.6807C150.614 49.566 150.711 49.4674 150.824 49.3904C151.054 49.2343 151.336 49.1756 151.609 49.2271C151.882 49.2787 152.124 49.4363 152.281 49.6655C152.418 49.8951 152.462 50.1685 152.404 50.4297C152.347 50.6908 152.191 50.92 151.97 51.0702C151.748 51.2204 151.478 51.2803 151.214 51.2377C150.95 51.195 150.712 51.053 150.549 50.8407ZM151.204 48.1672C151.134 48.0708 151.085 47.9614 151.059 47.8456C151.032 47.7298 151.029 47.6099 151.05 47.4929C151.071 47.376 151.115 47.2644 151.179 47.1647C151.244 47.065 151.328 46.9792 151.426 46.9125C151.524 46.8457 151.635 46.7992 151.751 46.7759C151.868 46.7525 151.988 46.7527 152.104 46.7764C152.22 46.8002 152.331 46.847 152.429 46.914C152.527 46.9811 152.61 47.0671 152.675 47.167C152.8 47.3622 152.845 47.5987 152.798 47.826C152.752 48.0534 152.618 48.2536 152.427 48.3841C152.235 48.5145 151.999 48.5649 151.771 48.5244C151.543 48.4839 151.339 48.3557 151.204 48.1672ZM141.327 44.9541C141.936 44.6033 142.661 44.5086 143.34 44.6906C144.02 44.8726 144.599 45.3165 144.952 45.9251C145.126 46.2261 145.239 46.5585 145.284 46.9032C145.329 47.2478 145.306 47.598 145.216 47.9337C145.125 48.2693 144.969 48.5839 144.757 48.8592C144.545 49.1346 144.281 49.3654 143.979 49.5383C142.708 50.2677 141.087 49.8322 140.356 48.5694C140.181 48.2684 140.068 47.936 140.023 47.5912C139.977 47.2464 140 46.896 140.09 46.5601C140.181 46.2242 140.336 45.9095 140.548 45.6339C140.761 45.3583 141.025 45.1273 141.327 44.9541ZM147.224 41.1825C147.74 40.8846 148.353 40.8034 148.929 40.957C149.504 41.1105 149.996 41.4861 150.295 42.0014C150.914 43.0746 150.545 44.4436 149.47 45.0625C148.954 45.3585 148.341 45.4383 147.766 45.2845C147.191 45.1307 146.7 44.7558 146.401 44.2415C146.253 43.9866 146.157 43.7051 146.118 43.4131C146.08 43.1211 146.099 42.8243 146.176 42.5399C146.252 42.2555 146.384 41.9889 146.564 41.7556C146.744 41.5223 146.968 41.3269 147.224 41.1804V41.1825ZM152.852 39.1467C153.289 38.8961 153.807 38.8284 154.293 38.9584C154.779 39.0884 155.195 39.4056 155.448 39.8406C155.573 40.0563 155.653 40.2945 155.686 40.5414C155.718 40.7884 155.701 41.0393 155.637 41.2798C155.572 41.5203 155.461 41.7458 155.309 41.9432C155.157 42.1407 154.968 42.3063 154.752 42.4307C154.315 42.6811 153.797 42.7485 153.311 42.6181C152.824 42.4877 152.409 42.1701 152.156 41.7347C152.031 41.5192 151.95 41.2812 151.918 41.0343C151.885 40.7875 151.902 40.5367 151.967 40.2962C152.031 40.0558 152.143 39.8305 152.295 39.6333C152.447 39.436 152.636 39.2707 152.852 39.1467ZM157.992 38.5091C158.365 38.2944 158.808 38.2364 159.224 38.3478C159.639 38.4591 159.994 38.7307 160.21 39.1029C160.316 39.2869 160.385 39.49 160.413 39.7007C160.44 39.9113 160.426 40.1254 160.371 40.3306C160.316 40.5358 160.221 40.7281 160.091 40.8964C159.962 41.0648 159.8 41.2059 159.616 41.3117C159.431 41.4186 159.227 41.4881 159.015 41.5161C158.803 41.5441 158.588 41.5302 158.382 41.475C158.176 41.4199 157.982 41.3246 157.813 41.1947C157.643 41.0648 157.501 40.9027 157.394 40.7178C157.288 40.5337 157.219 40.3303 157.192 40.1195C157.165 39.9086 157.179 39.6945 157.235 39.4893C157.29 39.284 157.386 39.0918 157.516 38.9236C157.646 38.7554 157.808 38.6145 157.992 38.5091ZM162.397 38.9342C162.718 38.7498 163.098 38.7 163.455 38.7957C163.812 38.8914 164.117 39.1248 164.302 39.4447C164.463 39.7636 164.496 40.1322 164.394 40.4746C164.292 40.817 164.062 41.1072 163.752 41.2853C163.442 41.4635 163.076 41.516 162.729 41.4322C162.381 41.3483 162.079 41.1344 161.885 40.8345C161.793 40.6762 161.734 40.5014 161.71 40.32C161.686 40.1386 161.698 39.9544 161.746 39.7778C161.794 39.6011 161.876 39.4357 161.988 39.2909C162.099 39.1461 162.239 39.0249 162.397 38.9342ZM166.019 40.0886C166.294 39.931 166.621 39.8886 166.927 39.9706C167.233 40.0525 167.495 40.2522 167.655 40.5261C167.734 40.6618 167.785 40.8119 167.806 40.9675C167.827 41.1232 167.816 41.2814 167.776 41.4331C167.735 41.5847 167.665 41.7269 167.569 41.8512C167.473 41.9756 167.354 42.0798 167.217 42.1577C167.081 42.2364 166.931 42.2875 166.776 42.3082C166.62 42.3289 166.462 42.3187 166.31 42.2783C166.158 42.2379 166.016 42.1679 165.892 42.0725C165.767 41.9771 165.662 41.8581 165.584 41.7222C165.505 41.5864 165.454 41.4363 165.433 41.2807C165.412 41.1251 165.423 40.9669 165.463 40.8152C165.503 40.6635 165.573 40.5212 165.669 40.3966C165.764 40.2719 165.883 40.1672 166.019 40.0886ZM145.446 35.4376C146.019 35.2649 146.636 35.3263 147.164 35.6084C147.691 35.8904 148.085 36.37 148.259 36.9421C148.396 37.5038 148.312 38.0965 148.025 38.5983C147.738 39.1 147.269 39.4725 146.716 39.6391C146.162 39.8058 145.566 39.7538 145.049 39.494C144.533 39.2341 144.136 38.7862 143.94 38.2424C143.853 37.9593 143.824 37.662 143.853 37.3675C143.882 37.0731 143.969 36.7873 144.109 36.5266C144.249 36.2659 144.44 36.0355 144.669 35.8486C144.898 35.6617 145.163 35.5221 145.446 35.4376ZM151.06 33.4518C151.536 33.3283 152.042 33.394 152.471 33.635C152.901 33.876 153.22 34.2737 153.363 34.7449C153.506 35.216 153.46 35.7241 153.237 36.1628C153.014 36.6015 152.629 36.9367 152.164 37.0984C151.925 37.1709 151.673 37.1955 151.424 37.1709C151.175 37.1463 150.934 37.0728 150.713 36.9548C150.268 36.7164 149.935 36.3109 149.789 35.8273C149.642 35.3437 149.694 34.8218 149.932 34.3763C150.171 33.9308 150.576 33.5983 151.06 33.4518ZM156.115 32.8538C156.524 32.7303 156.965 32.7743 157.342 32.9761C157.718 33.1779 157.999 33.5211 158.123 33.93C158.246 34.339 158.202 34.7803 158 35.1568C157.799 35.5333 157.455 35.8142 157.046 35.9377C156.844 35.9989 156.631 36.0196 156.421 35.9986C156.21 35.9776 156.006 35.9154 155.82 35.8154C155.633 35.7155 155.468 35.5798 155.334 35.4161C155.2 35.2524 155.1 35.064 155.039 34.8615C154.978 34.659 154.957 34.4464 154.978 34.2359C154.999 34.0255 155.061 33.8212 155.161 33.6347C155.261 33.4483 155.397 33.2834 155.56 33.1494C155.724 33.0154 155.912 32.9149 156.115 32.8538ZM160.491 33.3185C160.84 33.2129 161.218 33.2505 161.539 33.4231C161.861 33.5956 162.101 33.8889 162.207 34.2384C162.312 34.588 162.275 34.9651 162.102 35.287C161.93 35.6088 161.636 35.8488 161.287 35.9544C160.937 36.0596 160.559 36.0217 160.237 35.849C159.915 35.6764 159.674 35.3831 159.568 35.0334C159.516 34.86 159.498 34.6781 159.516 34.498C159.535 34.3179 159.588 34.1431 159.674 33.9838C159.76 33.8245 159.877 33.6837 160.017 33.5695C160.158 33.4553 160.319 33.37 160.493 33.3185H160.491ZM164.054 34.5208C164.349 34.4484 164.659 34.4918 164.923 34.6419C165.186 34.7921 165.382 35.0377 165.47 35.3279C165.557 35.6182 165.53 35.931 165.394 36.2019C165.258 36.4728 165.023 36.681 164.738 36.7837C164.589 36.8286 164.433 36.8438 164.279 36.8284C164.124 36.813 163.974 36.7673 163.837 36.694C163.701 36.6206 163.58 36.5211 163.481 36.401C163.383 36.2809 163.309 36.1426 163.264 35.994C163.219 35.8454 163.204 35.6894 163.22 35.535C163.235 35.3805 163.281 35.2306 163.354 35.0938C163.427 34.957 163.527 34.836 163.647 34.7377C163.767 34.6394 163.905 34.5657 164.054 34.5208ZM166.825 36.1774C166.953 36.1386 167.087 36.1254 167.219 36.1384C167.352 36.1515 167.481 36.1905 167.598 36.2533C167.716 36.3161 167.82 36.4014 167.905 36.5044C167.989 36.6074 168.053 36.726 168.091 36.8535C168.13 36.9811 168.143 37.115 168.13 37.2476C168.117 37.3802 168.078 37.509 168.015 37.6265C167.953 37.7441 167.867 37.8481 167.764 37.9327C167.661 38.0172 167.543 38.0807 167.415 38.1194C167.158 38.1976 166.88 38.1703 166.642 38.0435C166.405 37.9167 166.227 37.7008 166.149 37.4432C166.071 37.1857 166.098 36.9077 166.225 36.6703C166.352 36.4329 166.568 36.2556 166.825 36.1774ZM150.635 28.4529C150.886 28.4336 151.139 28.4641 151.379 28.5427C151.619 28.6214 151.841 28.7465 152.032 28.9111C152.223 29.0756 152.38 29.2763 152.494 29.5016C152.607 29.727 152.675 29.9725 152.693 30.2241C152.731 30.7325 152.564 31.2349 152.231 31.6205C151.897 32.0062 151.424 32.2437 150.916 32.2808C150.408 32.3178 149.905 32.1513 149.52 31.818C149.134 31.4847 148.896 31.0118 148.859 30.5033C148.841 30.2519 148.873 29.9994 148.952 29.7603C149.032 29.5211 149.158 29.3 149.323 29.1095C149.488 28.9191 149.689 28.7631 149.914 28.6504C150.14 28.5377 150.385 28.4706 150.637 28.4529H150.635ZM155.65 27.8736C156.069 27.8641 156.475 28.0158 156.785 28.2975C157.095 28.5792 157.285 28.9692 157.315 29.3869C157.345 29.8046 157.214 30.2179 156.948 30.5413C156.682 30.8647 156.301 31.0734 155.886 31.1243C155.666 31.1511 155.444 31.1331 155.232 31.0713C155.019 31.0095 154.822 30.9052 154.651 30.7648C154.48 30.6244 154.34 30.4507 154.238 30.2544C154.137 30.0581 154.076 29.8431 154.06 29.6227C154.044 29.4022 154.073 29.1808 154.146 28.9718C154.218 28.7629 154.332 28.5708 154.48 28.4073C154.629 28.2437 154.809 28.1121 155.011 28.0203C155.212 27.9286 155.429 27.8787 155.65 27.8736ZM159.951 28.2987C160.311 28.2942 160.658 28.4271 160.923 28.6703C161.188 28.9134 161.35 29.2485 161.376 29.607C161.402 29.9655 161.29 30.3205 161.063 30.5994C160.836 30.8783 160.512 31.0601 160.155 31.1076C159.788 31.1249 159.429 30.9981 159.154 30.7543C158.88 30.5106 158.711 30.1691 158.684 29.8027C158.658 29.4363 158.775 29.074 159.012 28.7931C159.249 28.5121 159.586 28.3347 159.951 28.2987ZM163.5 29.4823C163.816 29.4719 164.123 29.5841 164.358 29.7955C164.593 30.0068 164.737 30.3009 164.76 30.6162C164.783 30.9314 164.683 31.2432 164.481 31.4863C164.279 31.7294 163.991 31.8849 163.677 31.9203C163.513 31.9387 163.348 31.9239 163.19 31.8767C163.032 31.8295 162.885 31.7509 162.759 31.6457C162.632 31.5405 162.528 31.4107 162.452 31.2643C162.377 31.1178 162.332 30.9577 162.32 30.7934C162.308 30.6291 162.33 30.4642 162.383 30.3084C162.436 30.1526 162.521 30.0091 162.631 29.8867C162.741 29.7643 162.875 29.6653 163.024 29.5958C163.173 29.5263 163.335 29.4877 163.5 29.4823Z" fill="#535353"/>
</g>
<path d="M207.821 23.6104V66.3184C207.821 79.0858 197.455 89.452 184.687 89.452H141.979C129.212 89.452 118.846 79.0858 118.846 66.3184V23.6104C118.846 10.8429 129.212 0.476807 141.979 0.476807H184.687C197.455 0.476807 207.821 10.8429 207.821 23.6104Z" stroke="url(#paint3_linear_103_909)" stroke-width="0.953624"/>
<path d="M315.975 23.6104V66.3184C315.975 79.0858 305.609 89.452 292.842 89.452H250.134C237.366 89.452 227 79.0858 227 66.3184V23.6104C227 10.8429 237.366 0.476807 250.134 0.476807H292.842C305.609 0.476807 315.975 10.8429 315.975 23.6104Z" fill="url(#paint4_linear_103_909)" fill-opacity="0.5"/>
<g opacity="0.5" filter="url(#filter2_i_103_909)">
<path fill-rule="evenodd" clip-rule="evenodd" d="M263.144 63.9841L264.142 61.3128L262.371 61.4878L261.733 63.1756C261.683 63.3027 261.641 63.4361 261.577 63.557C261.437 63.8174 261.222 63.98 260.924 63.9821C259.612 63.9841 258.303 63.982 256.99 63.98C256.959 63.98 256.928 63.9612 256.859 63.9404L257.697 61.6795C256.169 61.6378 254.684 61.6128 253.204 61.444C253.229 61.1669 261.668 39.8877 262.004 39.248C262.087 39.2417 262.185 39.2271 262.285 39.2271H269.099C269.168 39.2271 269.237 39.2271 269.303 39.2313C269.993 39.2834 270.376 39.8669 270.137 40.5295C269.818 41.4047 269.48 42.2757 269.153 43.1467L264.865 54.5531C264.821 54.6698 264.784 54.7906 264.729 54.949C264.85 54.9553 264.944 54.9678 265.038 54.9636C271.489 54.6823 276.223 51.6025 279.282 45.8159C279.951 44.5513 280.422 43.1914 280.678 41.7839C280.831 40.9608 280.878 40.1357 280.672 39.3126C280.464 38.4442 279.947 37.6812 279.218 37.1663C278.243 36.4641 277.146 36.164 275.963 36.1578H253C253.05 36.0328 253.073 35.9494 253.113 35.8744L256.005 30.6629C256.14 30.3912 256.35 30.1644 256.611 30.0098C256.873 29.8553 257.173 29.7796 257.476 29.7919H269.699L270.951 26.4788H274.665C274.756 26.4788 274.848 26.4725 274.936 26.485C275.2 26.5267 275.352 26.7351 275.313 27.006C275.296 27.1185 275.254 27.2268 275.213 27.3352C274.956 28.0249 274.694 28.7126 274.438 29.4023C274.394 29.519 274.358 29.6377 274.313 29.7774H275.99C276.032 29.6877 276.073 29.5961 276.111 29.5023L277.144 26.758C277.249 26.4809 277.253 26.4788 277.53 26.4788C278.705 26.4788 279.882 26.4746 281.058 26.4788C281.554 26.4809 281.731 26.7434 281.554 27.2227C281.272 27.9916 280.983 28.7542 280.695 29.519C280.655 29.6252 280.62 29.7336 280.57 29.8795C280.685 29.9003 280.778 29.9211 280.872 29.9336C282.508 30.1337 284.1 30.5046 285.611 31.186C286.759 31.7048 287.803 32.382 288.661 33.3322C289.824 34.6137 290.401 36.1453 290.493 37.8748C290.58 39.5522 290.274 41.1692 289.718 42.7299C288.401 46.4286 286.53 49.7897 283.821 52.6215C281.954 54.5719 279.799 56.1222 277.436 57.3766C274.886 58.731 272.189 59.6791 269.397 60.3501C269.147 60.4126 269.016 60.5209 268.93 60.7668C268.624 61.6212 268.299 62.4713 267.978 63.3215C267.78 63.8424 267.582 63.9841 267.036 63.9841H263.144Z" fill="#535353"/>
</g>
<path d="M315.777 23.6104V66.3184C315.777 79.0858 305.411 89.452 292.644 89.452H249.936C237.168 89.452 226.802 79.0858 226.802 66.3184V23.6104C226.802 10.8429 237.168 0.476807 249.936 0.476807H292.644C305.411 0.476807 315.777 10.8429 315.777 23.6104Z" stroke="url(#paint5_linear_103_909)" stroke-width="0.953624"/>
<path d="M423.734 23.6104V66.3184C423.734 79.0858 413.368 89.452 400.6 89.452H357.892C345.125 89.452 334.759 79.0858 334.759 66.3184V23.6104C334.759 10.8429 345.125 0.476807 357.892 0.476807H400.6C413.368 0.476807 423.734 10.8429 423.734 23.6104Z" fill="url(#paint6_linear_103_909)" fill-opacity="0.5"/>
<g opacity="0.5" filter="url(#filter3_i_103_909)">
<path fill-rule="evenodd" clip-rule="evenodd" d="M355.308 55.1887L378.837 25.1887L402.367 55.1887V65.1887L378.837 35.1887L355.308 65.1887V55.1887ZM380.014 58.1299C378.454 58.1299 376.958 57.5102 375.854 56.407C374.751 55.3038 374.132 53.8076 374.132 52.2475C374.132 50.6874 374.751 49.1912 375.854 48.0881C376.958 46.9849 378.454 46.3652 380.014 46.3652C381.574 46.3652 383.07 46.9849 384.173 48.0881C385.277 49.1912 385.896 50.6874 385.896 52.2475C385.896 53.8076 385.277 55.3038 384.173 56.407C383.07 57.5102 381.574 58.1299 380.014 58.1299Z" fill="#535353"/>
</g>
<path d="M423.734 23.6104V66.3184C423.734 79.0858 413.368 89.452 400.6 89.452H357.892C345.125 89.452 334.759 79.0858 334.759 66.3184V23.6104C334.759 10.8429 345.125 0.476807 357.892 0.476807H400.6C413.368 0.476807 423.734 10.8429 423.734 23.6104Z" stroke="url(#paint7_linear_103_909)" stroke-width="0.953624"/>
<path d="M531.69 23.6104V66.3184C531.69 79.0858 521.324 89.452 508.557 89.452H465.849C453.081 89.452 442.715 79.0858 442.715 66.3184V23.6104C442.715 10.8429 453.081 0.476807 465.849 0.476807H508.557C521.324 0.476807 531.69 10.8429 531.69 23.6104Z" fill="url(#paint8_linear_103_909)" fill-opacity="0.5"/>
<g opacity="0.5" filter="url(#filter4_i_103_909)">
<path d="M506.491 40.3625C507.278 35.1091 503.275 32.2844 497.806 30.3996L499.581 23.2814L495.25 22.2037L493.521 29.1339C492.383 28.8481 491.215 28.5824 490.049 28.3168L491.791 21.3415L487.46 20.2612L485.686 27.3769C484.743 27.1613 483.816 26.9508 482.919 26.7252L482.924 26.7027L476.948 25.2114L475.795 29.8382C475.795 29.8382 479.011 30.575 478.943 30.6201C480.698 31.0588 481.014 32.2192 480.961 33.1416L478.941 41.2498C479.061 41.2798 479.217 41.3249 479.392 41.3926L478.933 41.2798L476.101 52.6388C475.886 53.1701 475.342 53.9697 474.114 53.6664C474.159 53.7291 470.966 52.8819 470.966 52.8819L468.815 57.8396L474.454 59.2456C475.502 59.5088 476.53 59.7845 477.54 60.0427L475.748 67.241L480.076 68.3188L481.851 61.2006C483.034 61.5189 484.182 61.8147 485.305 62.0954L483.535 69.1835L487.866 70.2612L489.658 63.0779C497.047 64.4765 502.601 63.9125 504.94 57.2305C506.824 51.8518 504.847 48.7464 500.96 46.7237C503.792 46.0721 505.922 44.2098 506.491 40.3625ZM496.591 54.2429C495.255 59.6241 486.194 56.7142 483.257 55.9848L485.638 46.448C488.575 47.1824 497.992 48.6336 496.591 54.2429ZM497.932 40.2848C496.711 45.1798 489.172 42.6909 486.728 42.0819L488.884 33.4348C491.327 34.0439 499.205 35.1793 497.932 40.2848Z" fill="#535353"/>
</g>
<path d="M531.69 23.6104V66.3184C531.69 79.0858 521.324 89.452 508.557 89.452H465.849C453.081 89.452 442.715 79.0858 442.715 66.3184V23.6104C442.715 10.8429 453.081 0.476807 465.849 0.476807H508.557C521.324 0.476807 531.69 10.8429 531.69 23.6104Z" stroke="url(#paint9_linear_103_909)" stroke-width="0.953624"/>
<path d="M639.647 23.6104V66.3184C639.647 79.0858 629.281 89.452 616.513 89.452H573.805C561.038 89.452 550.672 79.0858 550.672 66.3184V23.6104C550.672 10.8429 561.038 0.476807 573.805 0.476807H616.513C629.281 0.476807 639.647 10.8429 639.647 23.6104Z" fill="url(#paint10_linear_103_909)" fill-opacity="0.5"/>
<g opacity="0.5" filter="url(#filter5_i_103_909)">
<path d="M613.117 23.9769H620.522L605.109 39.2417C602.414 41.8968 598.783 43.3851 595 43.3851C591.217 43.3851 587.586 41.8968 584.891 39.2417L569.465 23.9769H576.883L588.594 35.5671C590.299 37.2503 592.599 38.1941 594.995 38.1941C597.391 38.1941 599.691 37.2503 601.396 35.5671L613.117 23.9769ZM576.793 66.4196H569.375L584.891 51.0625C587.586 48.4075 591.217 46.9192 595 46.9192C598.783 46.9192 602.414 48.4075 605.109 51.0625L620.625 66.417H613.207L601.406 54.7269C599.701 53.0437 597.401 52.0999 595.005 52.0999C592.609 52.0999 590.309 53.0437 588.604 54.7269L576.791 66.4196H576.793Z" fill="#535353"/>
</g>
<path d="M639.647 23.6104V66.3184C639.647 79.0858 629.281 89.452 616.513 89.452H573.805C561.038 89.452 550.672 79.0858 550.672 66.3184V23.6104C550.672 10.8429 561.038 0.476807 573.805 0.476807H616.513C629.281 0.476807 639.647 10.8429 639.647 23.6104Z" stroke="url(#paint11_linear_103_909)" stroke-width="0.953624"/>
<path opacity="0.1" d="M747.975 23.6104V66.3184C747.975 79.0858 737.609 89.452 724.842 89.452H682.134C669.366 89.452 659 79.0858 659 66.3184V23.6104C659 10.8429 669.366 0.476807 682.134 0.476807H724.842C737.609 0.476807 747.975 10.8429 747.975 23.6104Z" fill="url(#paint12_linear_103_909)" fill-opacity="0.5"/>
<path d="M747.603 23.6104V66.3184C747.603 79.0858 737.237 89.452 724.47 89.452H681.762C668.994 89.452 658.628 79.0858 658.628 66.3184V23.6104C658.628 10.8429 668.994 0.476807 681.762 0.476807H724.47C737.237 0.476807 747.603 10.8429 747.603 23.6104Z" stroke="url(#paint13_linear_103_909)" stroke-width="0.953624"/>
<path d="M47.9752 134.61V177.319C47.9752 190.086 37.609 200.452 24.8416 200.452H-17.8665C-30.6339 200.452 -41 190.086 -41 177.319V134.61C-41 121.843 -30.6339 111.477 -17.8665 111.477H24.8416C37.609 111.477 47.9752 121.843 47.9752 134.61Z" fill="url(#paint14_linear_103_909)" fill-opacity="0.5"/>
<g opacity="0.5" filter="url(#filter6_i_103_909)">
<path d="M-4.25581 151.989L3.83747 143.895L11.9349 151.993L16.6442 147.284L3.83747 134.477L-8.96507 147.279L-4.25581 151.989ZM-17 155.314L-12.2907 150.605L-7.58146 155.314L-12.2907 160.024L-17 155.314ZM-4.25581 158.64L3.83747 166.733L11.9349 158.636L16.6442 163.343L3.83747 176.152L-8.96507 163.349L-8.97132 163.343L-4.25581 158.64ZM15.2564 155.314L19.9657 150.605L24.6749 155.314L19.9657 160.024L15.2564 155.314ZM8.61341 155.31H8.61758V155.314L3.83747 160.095L-0.936398 155.323L-0.944733 155.314L-0.936398 155.308L-0.100815 154.47L0.305517 154.064L3.83747 150.534L8.6155 155.312L8.61341 155.31Z" fill="#535353"/>
</g>
<path d="M48.3114 134.376V177.084C48.3114 189.851 37.9452 200.218 25.1778 200.218H-17.5303C-30.2977 200.218 -40.6638 189.851 -40.6638 177.084V134.376C-40.6638 121.609 -30.2977 111.242 -17.5303 111.242H25.1778C37.9452 111.242 48.3114 121.609 48.3114 134.376Z" stroke="url(#paint15_linear_103_909)" stroke-width="0.953624"/>
<path d="M155.975 134.61V177.319C155.975 190.086 145.609 200.452 132.842 200.452H90.1335C77.3661 200.452 67 190.086 67 177.319V134.61C67 121.843 77.3661 111.477 90.1335 111.477H132.842C145.609 111.477 155.975 121.843 155.975 134.61Z" fill="url(#paint16_linear_103_909)" fill-opacity="0.5"/>
<g opacity="0.5" filter="url(#filter7_i_103_909)">
<path d="M111.544 158.89L107.703 171.789H128.141C128.276 171.782 128.411 171.804 128.537 171.852C128.663 171.9 128.779 171.971 128.878 172.062C128.976 172.156 129.056 172.268 129.112 172.391C129.171 172.515 129.204 172.65 129.207 172.788V173.125L127.427 179.257C127.351 179.547 127.176 179.803 126.932 179.978C126.69 180.155 126.395 180.245 126.095 180.232H94.8205L100.061 162.394L94.1982 164.17L95.53 160.084L101.393 158.304L108.769 133.213C108.849 132.923 109.025 132.67 109.269 132.495C109.509 132.318 109.802 132.226 110.101 132.233H118.029C118.164 132.23 118.299 132.253 118.425 132.301C118.553 132.347 118.67 132.419 118.77 132.511C118.87 132.603 118.95 132.715 119.004 132.84C119.061 132.965 119.092 133.099 119.095 133.236V133.577L112.876 154.724L118.742 152.945L117.49 157.202L111.544 158.89Z" fill="#535353"/>
</g>
<path d="M156.268 134.376V177.084C156.268 189.851 145.902 200.218 133.134 200.218H90.4263C77.6589 200.218 67.2927 189.851 67.2927 177.084V134.376C67.2927 121.609 77.6589 111.242 90.4263 111.242H133.134C145.902 111.242 156.268 121.609 156.268 134.376Z" stroke="url(#paint17_linear_103_909)" stroke-width="0.953624"/>
<path d="M264.224 134.376V177.084C264.224 189.851 253.858 200.218 241.091 200.218H198.383C185.615 200.218 175.249 189.851 175.249 177.084V134.376C175.249 121.609 185.615 111.242 198.383 111.242H241.091C253.858 111.242 264.224 121.609 264.224 134.376Z" fill="url(#paint18_linear_103_909)" fill-opacity="0.5"/>
<g opacity="0.5" filter="url(#filter8_i_103_909)">
<path d="M219.624 130.477V148.96L235.246 155.94L219.624 130.477Z" fill="#535353"/>
<path d="M219.624 130.477L204 155.94L219.624 148.96V130.477Z" fill="#535353"/>
<path d="M219.624 167.918V180.477L235.256 158.85L219.624 167.918Z" fill="#535353"/>
<path d="M219.624 180.477L219.624 167.916L204 158.85L219.624 180.477Z" fill="#535353"/>
<path d="M219.624 165.011L235.246 155.94L219.624 148.964V165.011Z" fill="#535353"/>
<path d="M204 155.94L219.624 165.011V148.964L204 155.94Z" fill="#535353"/>
</g>
<path d="M264.224 134.376V177.084C264.224 189.851 253.858 200.218 241.091 200.218H198.383C185.615 200.218 175.249 189.851 175.249 177.084V134.376C175.249 121.609 185.615 111.242 198.383 111.242H241.091C253.858 111.242 264.224 121.609 264.224 134.376Z" stroke="url(#paint19_linear_103_909)" stroke-width="0.953624"/>
<path d="M372.181 134.376V177.084C372.181 189.851 361.815 200.218 349.047 200.218H306.339C293.572 200.218 283.206 189.851 283.206 177.084V134.376C283.206 121.609 293.572 111.242 306.339 111.242H349.047C361.815 111.242 372.181 121.609 372.181 134.376Z" fill="url(#paint20_linear_103_909)" fill-opacity="0.5"/>
<g opacity="0.5" filter="url(#filter9_i_103_909)">
<path d="M327.413 130.789C341.255 130.789 352.45 141.983 352.45 155.824C352.44 158.521 352.005 161.2 351.159 163.761H343.698V142.728L327.415 159.011L311.132 142.728V163.761H303.669C302.824 161.2 302.389 158.521 302.38 155.824C302.38 141.983 313.575 130.789 327.415 130.789H327.413ZM323.684 162.672L327.482 166.407L331.213 162.674L338.269 155.551V168.78H348.786C346.555 172.449 343.417 175.481 339.674 177.585C335.931 179.688 331.709 180.792 327.415 180.789C318.39 180.789 310.452 175.973 306.044 168.78H316.558V155.551L323.682 162.674L323.684 162.672Z" fill="#535353"/>
</g>
<path d="M372.181 134.376V177.084C372.181 189.851 361.815 200.218 349.047 200.218H306.339C293.572 200.218 283.206 189.851 283.206 177.084V134.376C283.206 121.609 293.572 111.242 306.339 111.242H349.047C361.815 111.242 372.181 121.609 372.181 134.376Z" stroke="url(#paint21_linear_103_909)" stroke-width="0.953624"/>
<path d="M480.138 134.376V177.084C480.138 189.851 469.771 200.218 457.004 200.218H414.296C401.528 200.218 391.162 189.851 391.162 177.084V134.376C391.162 121.609 401.528 111.242 414.296 111.242H457.004C469.771 111.242 480.138 121.609 480.138 134.376Z" fill="url(#paint22_linear_103_909)" fill-opacity="0.5"/>
<g opacity="0.5" filter="url(#filter10_i_103_909)">
<path fill-rule="evenodd" clip-rule="evenodd" d="M451.794 163.199C451.794 169.624 446.579 173.889 438.879 174.532V180.314H433.604V174.474C428.396 173.887 423.448 171.887 419.294 168.689L423.174 163.374C426.632 166.062 429.904 167.814 433.847 168.399V156.949C424.994 154.729 420.872 151.517 420.872 144.917C420.872 138.609 426.024 134.287 433.604 133.702V130.314H438.879V133.819C443.002 134.277 446.933 135.808 450.279 138.259L446.882 143.749C444.214 141.822 441.487 140.594 438.637 140.012V151.109C447.854 153.329 451.794 156.892 451.794 163.199ZM433.844 149.882V139.602C430.027 139.894 428.027 141.939 428.027 144.509C428.027 146.959 429.177 148.539 433.847 149.884L433.844 149.882ZM444.639 163.607C444.639 160.982 443.364 159.404 438.637 158.059V168.634C442.457 168.339 444.639 166.412 444.639 163.609V163.607Z" fill="#535353"/>
</g>
<path d="M480.138 134.376V177.084C480.138 189.851 469.771 200.218 457.004 200.218H414.296C401.528 200.218 391.162 189.851 391.162 177.084V134.376C391.162 121.609 401.528 111.242 414.296 111.242H457.004C469.771 111.242 480.138 121.609 480.138 134.376Z" stroke="url(#paint23_linear_103_909)" stroke-width="0.953624"/>
<path d="M587.975 134.61V177.319C587.975 190.086 577.609 200.452 564.842 200.452H522.134C509.366 200.452 499 190.086 499 177.319V134.61C499 121.843 509.366 111.477 522.134 111.477H564.842C577.609 111.477 587.975 121.843 587.975 134.61Z" fill="url(#paint24_linear_103_909)" fill-opacity="0.5"/>
<g opacity="0.5" filter="url(#filter11_i_103_909)">
<path fill-rule="evenodd" clip-rule="evenodd" d="M548.85 157.281V157.275C548.55 157.297 547.006 157.388 543.56 157.388C540.809 157.388 538.872 157.308 538.191 157.275V157.283C527.6 156.822 519.696 154.995 519.696 152.81C519.696 150.627 527.6 148.801 538.191 148.331V155.465C538.883 155.513 540.866 155.629 543.606 155.629C546.894 155.629 548.542 155.494 548.85 155.467V148.337C559.419 148.803 567.304 150.63 567.304 152.81C567.304 154.995 559.419 156.816 548.85 157.281ZM548.85 147.595V141.211H563.597V131.477H523.444V141.211H538.191V147.592C526.206 148.137 517.192 150.49 517.192 153.306C517.192 156.123 526.206 158.473 538.191 159.021V179.477H548.85V159.015C560.816 158.47 569.808 156.12 569.808 153.306C569.808 150.492 560.816 148.142 548.85 147.595Z" fill="#535353"/>
</g>
<path d="M588.094 134.376V177.084C588.094 189.851 577.728 200.218 564.961 200.218H522.252C509.485 200.218 499.119 189.851 499.119 177.084V134.376C499.119 121.609 509.485 111.242 522.252 111.242H564.961C577.728 111.242 588.094 121.609 588.094 134.376Z" stroke="url(#paint25_linear_103_909)" stroke-width="0.953624"/>
<path d="M695.975 134.61V177.319C695.975 190.086 685.609 200.452 672.842 200.452H630.134C617.366 200.452 607 190.086 607 177.319V134.61C607 121.843 617.366 111.477 630.134 111.477H672.842C685.609 111.477 695.975 121.843 695.975 134.61Z" fill="url(#paint26_linear_103_909)" fill-opacity="0.5"/>
<g opacity="0.5" filter="url(#filter12_i_103_909)">
<path d="M665.917 137.338L628.161 130.389L648.031 180.389L675.717 146.656L665.917 137.338ZM665.31 140.399L671.087 145.89L655.29 148.749L665.31 140.399ZM651.858 148.176L635.209 134.368L662.422 139.376L651.858 148.176ZM650.673 150.62L647.957 173.067L633.32 136.223L650.673 150.617V150.62ZM653.184 151.81L670.679 148.645L650.613 173.087L653.184 151.81Z" fill="#535353"/>
</g>
<path d="M696.051 134.376V177.084C696.051 189.851 685.684 200.218 672.917 200.218H630.209C617.442 200.218 607.075 189.851 607.075 177.084V134.376C607.075 121.609 617.442 111.242 630.209 111.242H672.917C685.684 111.242 696.051 121.609 696.051 134.376Z" stroke="url(#paint27_linear_103_909)" stroke-width="0.953624"/>
<defs>
<filter id="filter0_i_103_909" x="39.155" y="21.1226" width="28.69" height="47.7089" filterUnits="userSpaceOnUse" color-interpolation-filters="sRGB">
<feFlood flood-opacity="0" result="BackgroundImageFix"/>
<feBlend mode="normal" in="SourceGraphic" in2="BackgroundImageFix" result="shape"/>
<feColorMatrix in="SourceAlpha" type="matrix" values="0 0 0 0 0 0 0 0 0 0 0 0 0 0 0 0 0 0 127 0" result="hardAlpha"/>
<feOffset dx="-3" dy="1"/>
<feGaussianBlur stdDeviation="2.5"/>
<feComposite in2="hardAlpha" operator="arithmetic" k2="-1" k3="1"/>
<feColorMatrix type="matrix" values="0 0 0 0 0.548077 0 0 0 0 0.548077 0 0 0 0 0.548077 0 0 0 1 0"/>
<feBlend mode="normal" in2="shape" result="effect1_innerShadow_103_909"/>
</filter>
<filter id="filter1_i_103_909" x="137" y="23.4769" width="48.8409" height="44.7607" filterUnits="userSpaceOnUse" color-interpolation-filters="sRGB">
<feFlood flood-opacity="0" result="BackgroundImageFix"/>
<feBlend mode="normal" in="SourceGraphic" in2="BackgroundImageFix" result="shape"/>
<feColorMatrix in="SourceAlpha" type="matrix" values="0 0 0 0 0 0 0 0 0 0 0 0 0 0 0 0 0 0 127 0" result="hardAlpha"/>
<feOffset dx="-3" dy="1"/>
<feGaussianBlur stdDeviation="2.5"/>
<feComposite in2="hardAlpha" operator="arithmetic" k2="-1" k3="1"/>
<feColorMatrix type="matrix" values="0 0 0 0 0.548077 0 0 0 0 0.548077 0 0 0 0 0.548077 0 0 0 1 0"/>
<feBlend mode="normal" in2="shape" result="effect1_innerShadow_103_909"/>
</filter>
<filter id="filter2_i_103_909" x="250" y="26.4769" width="40.5076" height="38.5072" filterUnits="userSpaceOnUse" color-interpolation-filters="sRGB">
<feFlood flood-opacity="0" result="BackgroundImageFix"/>
<feBlend mode="normal" in="SourceGraphic" in2="BackgroundImageFix" result="shape"/>
<feColorMatrix in="SourceAlpha" type="matrix" values="0 0 0 0 0 0 0 0 0 0 0 0 0 0 0 0 0 0 127 0" result="hardAlpha"/>
<feOffset dx="-3" dy="1"/>
<feGaussianBlur stdDeviation="2.5"/>
<feComposite in2="hardAlpha" operator="arithmetic" k2="-1" k3="1"/>
<feColorMatrix type="matrix" values="0 0 0 0 0.548077 0 0 0 0 0.548077 0 0 0 0 0.548077 0 0 0 1 0"/>
<feBlend mode="normal" in2="shape" result="effect1_innerShadow_103_909"/>
</filter>
<filter id="filter3_i_103_909" x="352.308" y="25.1887" width="50.0588" height="41" filterUnits="userSpaceOnUse" color-interpolation-filters="sRGB">
<feFlood flood-opacity="0" result="BackgroundImageFix"/>
<feBlend mode="normal" in="SourceGraphic" in2="BackgroundImageFix" result="shape"/>
<feColorMatrix in="SourceAlpha" type="matrix" values="0 0 0 0 0 0 0 0 0 0 0 0 0 0 0 0 0 0 127 0" result="hardAlpha"/>
<feOffset dx="-3" dy="1"/>
<feGaussianBlur stdDeviation="2.5"/>
<feComposite in2="hardAlpha" operator="arithmetic" k2="-1" k3="1"/>
<feColorMatrix type="matrix" values="0 0 0 0 0.548077 0 0 0 0 0.548077 0 0 0 0 0.548077 0 0 0 1 0"/>
<feBlend mode="normal" in2="shape" result="effect1_innerShadow_103_909"/>
</filter>
<filter id="filter4_i_103_909" x="465.815" y="20.2612" width="40.775" height="51" filterUnits="userSpaceOnUse" color-interpolation-filters="sRGB">
<feFlood flood-opacity="0" result="BackgroundImageFix"/>
<feBlend mode="normal" in="SourceGraphic" in2="BackgroundImageFix" result="shape"/>
<feColorMatrix in="SourceAlpha" type="matrix" values="0 0 0 0 0 0 0 0 0 0 0 0 0 0 0 0 0 0 127 0" result="hardAlpha"/>
<feOffset dx="-3" dy="1"/>
<feGaussianBlur stdDeviation="2.5"/>
<feComposite in2="hardAlpha" operator="arithmetic" k2="-1" k3="1"/>
<feColorMatrix type="matrix" values="0 0 0 0 0.548077 0 0 0 0 0.548077 0 0 0 0 0.548077 0 0 0 1 0"/>
<feBlend mode="normal" in2="shape" result="effect1_innerShadow_103_909"/>
</filter>
<filter id="filter5_i_103_909" x="566.375" y="23.9769" width="54.25" height="43.4426" filterUnits="userSpaceOnUse" color-interpolation-filters="sRGB">
<feFlood flood-opacity="0" result="BackgroundImageFix"/>
<feBlend mode="normal" in="SourceGraphic" in2="BackgroundImageFix" result="shape"/>
<feColorMatrix in="SourceAlpha" type="matrix" values="0 0 0 0 0 0 0 0 0 0 0 0 0 0 0 0 0 0 127 0" result="hardAlpha"/>
<feOffset dx="-3" dy="1"/>
<feGaussianBlur stdDeviation="2.5"/>
<feComposite in2="hardAlpha" operator="arithmetic" k2="-1" k3="1"/>
<feColorMatrix type="matrix" values="0 0 0 0 0.548077 0 0 0 0 0.548077 0 0 0 0 0.548077 0 0 0 1 0"/>
<feBlend mode="normal" in2="shape" result="effect1_innerShadow_103_909"/>
</filter>
<filter id="filter6_i_103_909" x="-20" y="134.477" width="44.6749" height="42.6749" filterUnits="userSpaceOnUse" color-interpolation-filters="sRGB">
<feFlood flood-opacity="0" result="BackgroundImageFix"/>
<feBlend mode="normal" in="SourceGraphic" in2="BackgroundImageFix" result="shape"/>
<feColorMatrix in="SourceAlpha" type="matrix" values="0 0 0 0 0 0 0 0 0 0 0 0 0 0 0 0 0 0 127 0" result="hardAlpha"/>
<feOffset dx="-3" dy="1"/>
<feGaussianBlur stdDeviation="2.5"/>
<feComposite in2="hardAlpha" operator="arithmetic" k2="-1" k3="1"/>
<feColorMatrix type="matrix" values="0 0 0 0 0.548077 0 0 0 0 0.548077 0 0 0 0 0.548077 0 0 0 1 0"/>
<feBlend mode="normal" in2="shape" result="effect1_innerShadow_103_909"/>
</filter>
<filter id="filter7_i_103_909" x="91.1982" y="132.233" width="38.0087" height="49" filterUnits="userSpaceOnUse" color-interpolation-filters="sRGB">
<feFlood flood-opacity="0" result="BackgroundImageFix"/>
<feBlend mode="normal" in="SourceGraphic" in2="BackgroundImageFix" result="shape"/>
<feColorMatrix in="SourceAlpha" type="matrix" values="0 0 0 0 0 0 0 0 0 0 0 0 0 0 0 0 0 0 127 0" result="hardAlpha"/>
<feOffset dx="-3" dy="1"/>
<feGaussianBlur stdDeviation="2.5"/>
<feComposite in2="hardAlpha" operator="arithmetic" k2="-1" k3="1"/>
<feColorMatrix type="matrix" values="0 0 0 0 0.548077 0 0 0 0 0.548077 0 0 0 0 0.548077 0 0 0 1 0"/>
<feBlend mode="normal" in2="shape" result="effect1_innerShadow_103_909"/>
</filter>
<filter id="filter8_i_103_909" x="201" y="130.477" width="34.2563" height="50.9999" filterUnits="userSpaceOnUse" color-interpolation-filters="sRGB">
<feFlood flood-opacity="0" result="BackgroundImageFix"/>
<feBlend mode="normal" in="SourceGraphic" in2="BackgroundImageFix" result="shape"/>
<feColorMatrix in="SourceAlpha" type="matrix" values="0 0 0 0 0 0 0 0 0 0 0 0 0 0 0 0 0 0 127 0" result="hardAlpha"/>
<feOffset dx="-3" dy="1"/>
<feGaussianBlur stdDeviation="2.5"/>
<feComposite in2="hardAlpha" operator="arithmetic" k2="-1" k3="1"/>
<feColorMatrix type="matrix" values="0 0 0 0 0.548077 0 0 0 0 0.548077 0 0 0 0 0.548077 0 0 0 1 0"/>
<feBlend mode="normal" in2="shape" result="effect1_innerShadow_103_909"/>
</filter>
<filter id="filter9_i_103_909" x="299.38" y="130.789" width="53.0694" height="51" filterUnits="userSpaceOnUse" color-interpolation-filters="sRGB">
<feFlood flood-opacity="0" result="BackgroundImageFix"/>
<feBlend mode="normal" in="SourceGraphic" in2="BackgroundImageFix" result="shape"/>
<feColorMatrix in="SourceAlpha" type="matrix" values="0 0 0 0 0 0 0 0 0 0 0 0 0 0 0 0 0 0 127 0" result="hardAlpha"/>
<feOffset dx="-3" dy="1"/>
<feGaussianBlur stdDeviation="2.5"/>
<feComposite in2="hardAlpha" operator="arithmetic" k2="-1" k3="1"/>
<feColorMatrix type="matrix" values="0 0 0 0 0.548077 0 0 0 0 0.548077 0 0 0 0 0.548077 0 0 0 1 0"/>
<feBlend mode="normal" in2="shape" result="effect1_innerShadow_103_909"/>
</filter>
<filter id="filter10_i_103_909" x="416.294" y="130.314" width="35.5" height="51" filterUnits="userSpaceOnUse" color-interpolation-filters="sRGB">
<feFlood flood-opacity="0" result="BackgroundImageFix"/>
<feBlend mode="normal" in="SourceGraphic" in2="BackgroundImageFix" result="shape"/>
<feColorMatrix in="SourceAlpha" type="matrix" values="0 0 0 0 0 0 0 0 0 0 0 0 0 0 0 0 0 0 127 0" result="hardAlpha"/>
<feOffset dx="-3" dy="1"/>
<feGaussianBlur stdDeviation="2.5"/>
<feComposite in2="hardAlpha" operator="arithmetic" k2="-1" k3="1"/>
<feColorMatrix type="matrix" values="0 0 0 0 0.548077 0 0 0 0 0.548077 0 0 0 0 0.548077 0 0 0 1 0"/>
<feBlend mode="normal" in2="shape" result="effect1_innerShadow_103_909"/>
</filter>
<filter id="filter11_i_103_909" x="514.192" y="131.477" width="55.6154" height="49" filterUnits="userSpaceOnUse" color-interpolation-filters="sRGB">
<feFlood flood-opacity="0" result="BackgroundImageFix"/>
<feBlend mode="normal" in="SourceGraphic" in2="BackgroundImageFix" result="shape"/>
<feColorMatrix in="SourceAlpha" type="matrix" values="0 0 0 0 0 0 0 0 0 0 0 0 0 0 0 0 0 0 127 0" result="hardAlpha"/>
<feOffset dx="-3" dy="1"/>
<feGaussianBlur stdDeviation="2.5"/>
<feComposite in2="hardAlpha" operator="arithmetic" k2="-1" k3="1"/>
<feColorMatrix type="matrix" values="0 0 0 0 0.548077 0 0 0 0 0.548077 0 0 0 0 0.548077 0 0 0 1 0"/>
<feBlend mode="normal" in2="shape" result="effect1_innerShadow_103_909"/>
</filter>
<filter id="filter12_i_103_909" x="625.161" y="130.389" width="50.5565" height="51" filterUnits="userSpaceOnUse" color-interpolation-filters="sRGB">
<feFlood flood-opacity="0" result="BackgroundImageFix"/>
<feBlend mode="normal" in="SourceGraphic" in2="BackgroundImageFix" result="shape"/>
<feColorMatrix in="SourceAlpha" type="matrix" values="0 0 0 0 0 0 0 0 0 0 0 0 0 0 0 0 0 0 127 0" result="hardAlpha"/>
<feOffset dx="-3" dy="1"/>
<feGaussianBlur stdDeviation="2.5"/>
<feComposite in2="hardAlpha" operator="arithmetic" k2="-1" k3="1"/>
<feColorMatrix type="matrix" values="0 0 0 0 0.548077 0 0 0 0 0.548077 0 0 0 0 0.548077 0 0 0 1 0"/>
<feBlend mode="normal" in2="shape" result="effect1_innerShadow_103_909"/>
</filter>
<linearGradient id="paint0_linear_103_909" x1="33.0065" y1="41.1945" x2="90.8974" y2="86.0629" gradientUnits="userSpaceOnUse">
<stop offset="0.16" stop-color="#1A1A1A"/>
<stop offset="0.58" stop-color="#151515"/>
<stop offset="1" stop-color="#101010"/>
</linearGradient>
<linearGradient id="paint1_linear_103_909" x1="-2.79795" y1="19.9295" x2="37.2026" y2="58.5883" gradientUnits="userSpaceOnUse">
<stop stop-color="white" stop-opacity="0.15"/>
<stop offset="0.5" stop-color="#808080" stop-opacity="0.075"/>
<stop offset="1" stop-opacity="0"/>
</linearGradient>
<linearGradient id="paint2_linear_103_909" x1="140.963" y1="41.1945" x2="198.854" y2="86.0629" gradientUnits="userSpaceOnUse">
<stop offset="0.16" stop-color="#1A1A1A"/>
<stop offset="0.58" stop-color="#151515"/>
<stop offset="1" stop-color="#101010"/>
</linearGradient>
<linearGradient id="paint3_linear_103_909" x1="105.159" y1="19.9295" x2="145.159" y2="58.5883" gradientUnits="userSpaceOnUse">
<stop stop-color="white" stop-opacity="0.15"/>
<stop offset="0.5" stop-color="#808080" stop-opacity="0.075"/>
<stop offset="1" stop-opacity="0"/>
</linearGradient>
<linearGradient id="paint4_linear_103_909" x1="249.117" y1="41.1945" x2="307.008" y2="86.0629" gradientUnits="userSpaceOnUse">
<stop offset="0.16" stop-color="#1A1A1A"/>
<stop offset="0.58" stop-color="#151515"/>
<stop offset="1" stop-color="#101010"/>
</linearGradient>
<linearGradient id="paint5_linear_103_909" x1="213.115" y1="19.9295" x2="253.116" y2="58.5883" gradientUnits="userSpaceOnUse">
<stop stop-color="white" stop-opacity="0.15"/>
<stop offset="0.5" stop-color="#808080" stop-opacity="0.075"/>
<stop offset="1" stop-opacity="0"/>
</linearGradient>
<linearGradient id="paint6_linear_103_909" x1="356.876" y1="41.1945" x2="414.767" y2="86.0629" gradientUnits="userSpaceOnUse">
<stop offset="0.16" stop-color="#1A1A1A"/>
<stop offset="0.58" stop-color="#151515"/>
<stop offset="1" stop-color="#101010"/>
</linearGradient>
<linearGradient id="paint7_linear_103_909" x1="321.072" y1="19.9295" x2="361.072" y2="58.5883" gradientUnits="userSpaceOnUse">
<stop stop-color="white" stop-opacity="0.15"/>
<stop offset="0.5" stop-color="#808080" stop-opacity="0.075"/>
<stop offset="1" stop-opacity="0"/>
</linearGradient>
<linearGradient id="paint8_linear_103_909" x1="464.833" y1="41.1945" x2="522.723" y2="86.0629" gradientUnits="userSpaceOnUse">
<stop offset="0.16" stop-color="#1A1A1A"/>
<stop offset="0.58" stop-color="#151515"/>
<stop offset="1" stop-color="#101010"/>
</linearGradient>
<linearGradient id="paint9_linear_103_909" x1="429.028" y1="19.9295" x2="469.029" y2="58.5883" gradientUnits="userSpaceOnUse">
<stop stop-color="white" stop-opacity="0.15"/>
<stop offset="0.5" stop-color="#808080" stop-opacity="0.075"/>
<stop offset="1" stop-opacity="0"/>
</linearGradient>
<linearGradient id="paint10_linear_103_909" x1="572.789" y1="41.1945" x2="630.68" y2="86.0629" gradientUnits="userSpaceOnUse">
<stop offset="0.16" stop-color="#1A1A1A"/>
<stop offset="0.58" stop-color="#151515"/>
<stop offset="1" stop-color="#101010"/>
</linearGradient>
<linearGradient id="paint11_linear_103_909" x1="536.985" y1="19.9295" x2="576.985" y2="58.5883" gradientUnits="userSpaceOnUse">
<stop stop-color="white" stop-opacity="0.15"/>
<stop offset="0.5" stop-color="#808080" stop-opacity="0.075"/>
<stop offset="1" stop-opacity="0"/>
</linearGradient>
<linearGradient id="paint12_linear_103_909" x1="681.117" y1="41.1945" x2="739.008" y2="86.0629" gradientUnits="userSpaceOnUse">
<stop offset="0.16" stop-color="#1A1A1A"/>
<stop offset="0.58" stop-color="#151515"/>
<stop offset="1" stop-color="#101010"/>
</linearGradient>
<linearGradient id="paint13_linear_103_909" x1="644.941" y1="19.9295" x2="684.942" y2="58.5883" gradientUnits="userSpaceOnUse">
<stop stop-color="white" stop-opacity="0.15"/>
<stop offset="0.5" stop-color="#808080" stop-opacity="0.075"/>
<stop offset="1" stop-opacity="0"/>
</linearGradient>
<linearGradient id="paint14_linear_103_909" x1="-18.8825" y1="152.195" x2="39.0083" y2="197.063" gradientUnits="userSpaceOnUse">
<stop offset="0.16" stop-color="#1A1A1A"/>
<stop offset="0.58" stop-color="#151515"/>
<stop offset="1" stop-color="#101010"/>
</linearGradient>
<linearGradient id="paint15_linear_103_909" x1="-54.3509" y1="130.695" x2="-14.3503" y2="169.354" gradientUnits="userSpaceOnUse">
<stop stop-color="white" stop-opacity="0.15"/>
<stop offset="0.5" stop-color="#808080" stop-opacity="0.075"/>
<stop offset="1" stop-opacity="0"/>
</linearGradient>
<linearGradient id="paint16_linear_103_909" x1="89.1175" y1="152.195" x2="147.008" y2="197.063" gradientUnits="userSpaceOnUse">
<stop offset="0.16" stop-color="#1A1A1A"/>
<stop offset="0.58" stop-color="#151515"/>
<stop offset="1" stop-color="#101010"/>
</linearGradient>
<linearGradient id="paint17_linear_103_909" x1="53.6057" y1="130.695" x2="93.6062" y2="169.354" gradientUnits="userSpaceOnUse">
<stop stop-color="white" stop-opacity="0.15"/>
<stop offset="0.5" stop-color="#808080" stop-opacity="0.075"/>
<stop offset="1" stop-opacity="0"/>
</linearGradient>
<linearGradient id="paint18_linear_103_909" x1="197.367" y1="151.96" x2="255.258" y2="196.829" gradientUnits="userSpaceOnUse">
<stop offset="0.16" stop-color="#1A1A1A"/>
<stop offset="0.58" stop-color="#151515"/>
<stop offset="1" stop-color="#101010"/>
</linearGradient>
<linearGradient id="paint19_linear_103_909" x1="161.562" y1="130.695" x2="201.563" y2="169.354" gradientUnits="userSpaceOnUse">
<stop stop-color="white" stop-opacity="0.15"/>
<stop offset="0.5" stop-color="#808080" stop-opacity="0.075"/>
<stop offset="1" stop-opacity="0"/>
</linearGradient>
<linearGradient id="paint20_linear_103_909" x1="305.323" y1="151.96" x2="363.214" y2="196.829" gradientUnits="userSpaceOnUse">
<stop offset="0.16" stop-color="#1A1A1A"/>
<stop offset="0.58" stop-color="#151515"/>
<stop offset="1" stop-color="#101010"/>
</linearGradient>
<linearGradient id="paint21_linear_103_909" x1="269.519" y1="130.695" x2="309.519" y2="169.354" gradientUnits="userSpaceOnUse">
<stop stop-color="white" stop-opacity="0.15"/>
<stop offset="0.5" stop-color="#808080" stop-opacity="0.075"/>
<stop offset="1" stop-opacity="0"/>
</linearGradient>
<linearGradient id="paint22_linear_103_909" x1="413.28" y1="151.96" x2="471.171" y2="196.829" gradientUnits="userSpaceOnUse">
<stop offset="0.16" stop-color="#1A1A1A"/>
<stop offset="0.58" stop-color="#151515"/>
<stop offset="1" stop-color="#101010"/>
</linearGradient>
<linearGradient id="paint23_linear_103_909" x1="377.475" y1="130.695" x2="417.476" y2="169.354" gradientUnits="userSpaceOnUse">
<stop stop-color="white" stop-opacity="0.15"/>
<stop offset="0.5" stop-color="#808080" stop-opacity="0.075"/>
<stop offset="1" stop-opacity="0"/>
</linearGradient>
<linearGradient id="paint24_linear_103_909" x1="521.117" y1="152.195" x2="579.008" y2="197.063" gradientUnits="userSpaceOnUse">
<stop offset="0.16" stop-color="#1A1A1A"/>
<stop offset="0.58" stop-color="#151515"/>
<stop offset="1" stop-color="#101010"/>
</linearGradient>
<linearGradient id="paint25_linear_103_909" x1="485.432" y1="130.695" x2="525.432" y2="169.354" gradientUnits="userSpaceOnUse">
<stop stop-color="white" stop-opacity="0.15"/>
<stop offset="0.5" stop-color="#808080" stop-opacity="0.075"/>
<stop offset="1" stop-opacity="0"/>
</linearGradient>
<linearGradient id="paint26_linear_103_909" x1="629.117" y1="152.195" x2="687.008" y2="197.063" gradientUnits="userSpaceOnUse">
<stop offset="0.16" stop-color="#1A1A1A"/>
<stop offset="0.58" stop-color="#151515"/>
<stop offset="1" stop-color="#101010"/>
</linearGradient>
<linearGradient id="paint27_linear_103_909" x1="593.388" y1="130.695" x2="633.389" y2="169.354" gradientUnits="userSpaceOnUse">
<stop stop-color="white" stop-opacity="0.15"/>
<stop offset="0.5" stop-color="#808080" stop-opacity="0.075"/>
<stop offset="1" stop-opacity="0"/>
</linearGradient>
</defs>
</svg>
