<svg width="390" height="254" viewBox="0 0 390 254" fill="none" xmlns="http://www.w3.org/2000/svg">
<path d="M412 10.8013V283.827C412 289.607 406.282 294.3 399.24 294.3H13.3452C6.30277 294.3 0.584839 289.607 0.584839 283.827V10.8013C0.584839 5.02156 6.30277 0.328857 13.3452 0.328857H399.24C406.282 0.328857 412 5.02156 412 10.8013Z" fill="url(#paint0_radial_107_2)"/>
<path d="M412 10.8013V283.827C412 289.607 406.282 294.3 399.24 294.3H13.3452C6.30277 294.3 0.584839 289.607 0.584839 283.827V10.8013C0.584839 5.02156 6.30277 0.328857 13.3452 0.328857H399.24C406.282 0.328857 412 5.02156 412 10.8013Z" stroke="url(#paint1_linear_107_2)" stroke-width="0.657816"/>
<path d="M33.5676 119.353C33.2422 119.353 32.9935 119.247 32.8085 119.041C32.6299 118.834 32.5405 118.578 32.5405 118.278C32.5405 117.928 32.6362 117.665 32.8404 117.496C33.0381 117.321 33.2678 117.24 33.5357 117.24C33.9121 117.24 34.1736 117.346 34.3203 117.571C34.4607 117.796 34.5372 118.028 34.5372 118.278C34.5372 118.565 34.4543 118.816 34.2948 119.034C34.1353 119.247 33.8929 119.353 33.5676 119.353ZM33.6122 114.938C32.8531 114.938 32.33 115.332 32.043 116.133C31.8963 116.545 31.8197 117.058 31.8197 117.652C31.8197 118.459 31.9856 119.034 32.3237 119.378C32.6554 119.722 33.0509 119.891 33.5102 119.891C34.046 119.891 34.4607 119.722 34.7541 119.385C35.0412 119.047 35.1879 118.659 35.1879 118.221C35.1879 117.715 35.0348 117.327 34.7286 117.071C34.4224 116.814 34.0652 116.683 33.6505 116.683C33.4081 116.683 33.1912 116.733 32.9935 116.821C32.7766 116.921 32.598 117.071 32.4576 117.277C32.4831 116.695 32.598 116.245 32.7957 115.932C32.9998 115.62 33.2741 115.47 33.6186 115.47C33.9248 115.47 34.1481 115.57 34.2948 115.77C34.3777 115.876 34.4351 116.026 34.4734 116.214H35.0794C35.0794 115.92 34.971 115.632 34.7541 115.357C34.5436 115.076 34.1608 114.938 33.6122 114.938Z" fill="#525252"/>
<path d="M35.684 119.748H36.3729V118.285L37.1958 117.416L38.6758 119.748H39.4795L37.6615 116.922L39.588 114.902H38.7268L36.3729 117.384V114.902H35.684V119.748Z" fill="#525252"/>
<path d="M33.3472 165.212C34.3678 165.212 35.0759 164.536 35.0759 163.567C35.0759 162.541 34.3104 162.003 33.5322 162.003C33.0984 162.003 32.6774 162.166 32.435 162.497L32.5944 160.771H34.9611V160.227H31.9884L31.7524 162.929L32.4094 163.01C32.62 162.685 32.9708 162.51 33.3408 162.51C33.9149 162.51 34.4061 162.91 34.4061 163.592C34.4061 164.292 33.9085 164.674 33.3536 164.674C32.8241 164.674 32.352 164.349 32.301 163.723L31.6376 163.773C31.695 164.611 32.352 165.212 33.3472 165.212Z" fill="#525252"/>
<path d="M35.9209 165.074H36.6098V163.611L37.4328 162.741L38.9127 165.074H39.7165L37.8984 162.247L39.8249 160.227H38.9637L36.6098 162.71V160.227H35.9209V165.074Z" fill="#525252"/>
<path d="M33.8583 210.409H34.4963V209.265H35.2426V208.752H34.4963V207.27H33.8839V208.752H32.1679C33.163 208.051 33.9221 206.85 34.1582 205.525H33.4246C33.1758 206.85 32.4741 208.014 31.5682 208.783V209.265H33.8583V210.409Z" fill="#525252"/>
<path d="M35.9452 210.444H36.6341V208.98L37.457 208.111L38.937 210.444H39.7408L37.9227 207.617L39.8492 205.597H38.988L36.6341 208.08V205.597H35.9452V210.444Z" fill="#525252"/>
<path d="M33.4185 257.786C34.3818 257.786 35.0707 257.211 35.0707 256.416C35.0707 255.76 34.605 255.285 33.9288 255.209C34.6114 255.134 35.0707 254.647 35.0707 254.002C35.0707 253.202 34.4136 252.658 33.4632 252.658C32.3915 252.658 31.728 253.358 31.6961 254.303L32.3723 254.321C32.3723 253.683 32.7806 253.214 33.4313 253.214C34.0054 253.214 34.4009 253.577 34.4009 254.096C34.4009 254.628 33.9607 255.003 33.2335 255.003V255.453C33.9607 255.453 34.4009 255.822 34.4009 256.354C34.4009 256.873 33.9926 257.236 33.4185 257.236C32.7678 257.236 32.3659 256.792 32.3659 256.129L31.677 256.154C31.677 257.129 32.3659 257.786 33.4185 257.786Z" fill="#525252"/>
<path d="M35.936 257.641H36.625V256.177L37.4479 255.308L38.9278 257.641H39.7316L37.9136 254.814L39.8401 252.794H38.9789L36.625 255.277V252.794H35.936V257.641Z" fill="#525252"/>
<path d="M49.9043 117.441L378.557 117.598" stroke="url(#paint2_linear_107_2)" stroke-width="0.657816"/>
<path d="M49.9043 162.801L378.557 162.957" stroke="url(#paint3_linear_107_2)" stroke-width="0.657816"/>
<path d="M49.9043 208.13L378.557 208.287" stroke="url(#paint4_linear_107_2)" stroke-width="0.657816"/>
<g opacity="0.92322">
<path d="M49.735 262.369L69.5849 212.001C70.6 209.425 73.3328 206.099 75.6835 204.578L99.0607 189.452C101.411 187.931 105.211 187.957 107.54 189.509L130.996 205.146C133.325 206.699 136.925 206.47 139.03 204.636L171.59 176.261C173.695 174.427 176.436 174.938 177.706 177.403L203.085 226.634C204.355 229.098 207.588 231.706 210.3 232.453L235.081 239.282C237.792 240.03 241.147 238.7 242.567 236.316L254.645 216.033C256.065 213.648 259.501 211.834 262.313 211.986L287.048 213.314C289.86 213.465 292.398 211.36 292.711 208.616L300.506 140.386C300.82 137.641 303.358 135.289 306.17 135.136L330.426 133.815C333.239 133.662 337.254 132.073 339.387 130.271L372.521 102.267" stroke="url(#paint5_linear_107_2)" stroke-width="1.31563" stroke-linecap="round" stroke-linejoin="round" stroke-dasharray="5.26 5.26"/>
</g>
<path d="M52.6119 263L86.9951 253.18C90.3753 252.214 94.398 248.924 95.9725 245.837L103.344 231.383C104.919 228.296 109.042 226.061 112.546 226.397L139.08 228.934C142.584 229.27 147.078 227.253 149.11 224.434L162.48 205.881C164.512 203.062 168.992 201.16 172.479 201.635L196.523 204.915C200.01 205.39 203.201 202.996 203.643 199.572L207.619 168.807C208.061 165.383 211.051 161.507 214.292 160.157L227.271 154.751C230.512 153.401 234.81 154.581 236.864 157.385L261.955 191.629C264.009 194.432 266.593 194.054 267.723 190.785L277.026 163.857C278.155 160.588 281.784 158.82 285.124 159.912L311.296 168.464C314.636 169.556 318.647 167.946 320.247 164.871L330.396 145.368C331.996 142.294 336.045 139.033 339.432 138.091L378.269 127.289" stroke="url(#paint6_linear_107_2)" stroke-width="1.31563" stroke-linecap="round"/>
<mask id="mask0_107_2" style="mask-type:luminance" maskUnits="userSpaceOnUse" x="30" y="43" width="26" height="44">
<path d="M30.5346 43.601L30.2686 86.9197H54.8812L55.1472 43.601H30.5346Z" fill="white"/>
</mask>
<g mask="url(#mask0_107_2)">
<path d="M42.6418 80.6686C48.7141 80.6686 52.9951 76.5572 52.9951 70.6041C52.9951 64.18 48.1457 60.9248 43.3403 60.9248C40.5443 60.9248 37.7924 62.0386 36.2633 64.2657L37.312 52.2737H52.296V49.8328H34.6475L33.2058 66.2357L36.0885 66.5359C37.6176 64.3513 40.108 63.2375 42.5544 63.2375C46.4425 63.2375 50.0244 65.9361 50.0244 70.7329C50.0244 75.6579 46.3985 78.2702 42.6852 78.2702C39.0593 78.2702 35.6956 75.9575 35.39 71.5034L32.4633 71.7604C32.7254 76.9424 36.7443 80.6686 42.6418 80.6686Z" fill="#C4C4C4"/>
</g>
<mask id="mask1_107_2" style="mask-type:luminance" maskUnits="userSpaceOnUse" x="60" y="43" width="26" height="44">
<path d="M61.1588 43.601L60.8928 86.9197H85.5054L85.7714 43.601H61.1588Z" fill="white"/>
</mask>
<g mask="url(#mask1_107_2)">
<path d="M64.155 77.0657V79.207H82.8082V76.8086H67.9116C78.3964 68.8423 83.4199 64.003 83.4199 57.7928C83.4199 52.2681 79.4011 48.3706 73.591 48.3706C67.5187 48.3706 63.4558 52.8247 63.4558 59.0349H66.4699C66.4699 54.3238 69.3533 50.9404 73.547 50.9404C77.5224 50.9404 80.3618 53.8528 80.3618 57.9217C80.3618 63.4464 75.3822 67.5578 64.155 77.0657Z" fill="#C4C4C4"/>
</g>
<mask id="mask2_107_2" style="mask-type:luminance" maskUnits="userSpaceOnUse" x="87" y="43" width="25" height="44">
<path d="M87.3148 43.601L87.0488 86.9197H111.661L111.927 43.601H87.3148Z" fill="white"/>
</mask>
<g mask="url(#mask2_107_2)">
<path d="M102.287 79.823H105.127V72.3283H109.976V70.0581H105.127V59.8648H102.418V70.0581H90.6233C96.8703 65.5609 101.545 58.0661 103.205 49.6289H99.9719C98.268 58.023 93.8122 65.347 87.9147 70.1863V72.3283H102.287V79.823Z" fill="#C4C4C4"/>
</g>
<path d="M55.9761 79.9745H60.4032V75.4467H55.9761V79.9745Z" fill="#C4C4C4"/>
<path d="M114.19 79.4957H117.163V71.6157L121.354 68.1009L129.175 79.4957H132.537L123.453 66.3498L133.105 58.2509H129.481L117.163 68.3573V49.5142H114.19V79.4957Z" fill="#C4C4C4"/>
<path d="M174.492 70.5884V75.5915C174.492 78.3528 172.205 80.5947 169.389 80.5947H145.148C142.332 80.5947 140.045 78.3528 140.045 75.5915V70.5884C140.045 67.8271 142.332 65.5852 145.148 65.5852H169.389C172.205 65.5852 174.492 67.8271 174.492 70.5884Z" fill="#101010"/>
<mask id="mask3_107_2" style="mask-type:luminance" maskUnits="userSpaceOnUse" x="143" y="65" width="10" height="16">
<path d="M143.04 65.5393V80.353L152.17 80.3136V65.4999L143.04 65.5393Z" fill="white"/>
</mask>
<g mask="url(#mask3_107_2)">
<path d="M147.544 69.8997L144.315 74.8634H150.734L147.544 69.8997Z" fill="#44E760"/>
</g>
<path d="M152.966 74.8765V75.283H156.532V74.8264H153.681C155.684 73.3005 156.647 72.3749 156.647 71.1866C156.647 70.136 155.881 69.3855 154.765 69.3855C153.604 69.3855 152.832 70.2423 152.832 71.4243H153.406C153.406 70.5237 153.955 69.8796 154.759 69.8796C155.518 69.8796 156.06 70.4362 156.06 71.2117C156.06 72.2686 155.11 73.0566 152.966 74.8765Z" fill="#838383"/>
<path d="M159.521 75.4445C160.682 75.4445 161.505 74.6565 161.505 73.5245C161.505 72.2925 160.574 71.6733 159.655 71.6733C159.126 71.6733 158.596 71.886 158.303 72.3112L158.507 70.016H161.371V69.5532H157.997L157.722 72.6865L158.271 72.7427C158.564 72.3237 159.037 72.1111 159.509 72.1111C160.249 72.1111 160.937 72.6302 160.937 73.5433C160.937 74.4876 160.242 74.9879 159.534 74.9879C158.839 74.9879 158.194 74.5439 158.137 73.6933L157.576 73.7434C157.627 74.7315 158.399 75.4445 159.521 75.4445Z" fill="#838383"/>
<path d="M167.678 74.7205C167.449 74.7205 167.251 74.6392 167.085 74.4766C166.926 74.3203 166.843 74.1264 166.843 73.9012C166.843 73.6761 166.926 73.4822 167.085 73.3196C167.251 73.1633 167.449 73.082 167.678 73.082C167.908 73.082 168.106 73.1633 168.265 73.3196C168.431 73.4822 168.514 73.6761 168.514 73.9012C168.514 74.1264 168.431 74.3203 168.265 74.4766C168.106 74.6392 167.908 74.7205 167.678 74.7205ZM163.704 69.7674C163.315 69.7674 162.983 69.905 162.709 70.1739C162.428 70.4491 162.294 70.7743 162.294 71.1558C162.294 71.5372 162.428 71.8625 162.709 72.1314C162.983 72.4003 163.315 72.5379 163.704 72.5379C164.093 72.5379 164.425 72.4003 164.706 72.1314C164.98 71.8625 165.114 71.5372 165.114 71.1558C165.114 70.7743 164.98 70.4491 164.706 70.1739C164.425 69.905 164.093 69.7674 163.704 69.7674ZM163.704 71.975C163.475 71.975 163.277 71.8937 163.111 71.7311C162.951 71.5748 162.869 71.3809 162.869 71.1558C162.869 70.9244 162.951 70.7367 163.111 70.5741C163.277 70.4178 163.475 70.3365 163.704 70.3365C163.934 70.3365 164.132 70.4178 164.297 70.5741C164.457 70.7367 164.54 70.9306 164.54 71.1558C164.54 71.3809 164.457 71.5748 164.297 71.7311C164.132 71.8937 163.934 71.975 163.704 71.975ZM163.851 75.4335H164.297L167.544 69.6235H167.092L163.851 75.4335ZM167.678 72.5191C167.289 72.5191 166.958 72.6505 166.677 72.9194C166.403 73.1945 166.269 73.5198 166.269 73.9012C166.269 74.2827 166.403 74.6079 166.677 74.8769C166.958 75.1458 167.289 75.2834 167.678 75.2834C168.068 75.2834 168.399 75.1458 168.674 74.8769C168.948 74.6079 169.088 74.2827 169.088 73.9012C169.088 73.5198 168.948 73.1945 168.674 72.9194C168.399 72.6505 168.068 72.5191 167.678 72.5191Z" fill="#838383"/>
<path d="M317.316 36.1615C317.316 41.3388 313.029 45.5424 307.748 45.5424H240.448C235.167 45.5424 230.879 41.3388 230.879 36.1615C230.879 30.9841 235.167 26.7805 240.448 26.7805H307.748C313.029 26.7805 317.316 30.9841 317.316 36.1615Z" fill="#1E1E1E" fill-opacity="0.5"/>
<path d="M317.316 36.1615C317.316 41.3388 313.029 45.5424 307.748 45.5424H240.448C235.167 45.5424 230.879 41.3388 230.879 36.1615C230.879 30.9841 235.167 26.7805 240.448 26.7805H307.748C313.029 26.7805 317.316 30.9841 317.316 36.1615Z" stroke="url(#paint7_linear_107_2)" stroke-width="0.657816"/>
<path d="M243.118 38.2835H245.124C245.976 38.2835 246.575 37.9083 246.926 37.1609C247.124 36.7388 247.223 36.2635 247.223 35.7413C247.223 35.0627 247.054 34.5061 246.719 34.0715C246.342 33.5899 245.813 33.3491 245.13 33.3491H243.118V38.2835ZM243.807 37.7113V33.9245H244.99C245.529 33.9245 245.918 34.0933 246.161 34.4311C246.403 34.7688 246.524 35.2441 246.524 35.8538C246.524 36.0133 246.508 36.1853 246.473 36.3729C246.416 36.6825 246.32 36.9389 246.189 37.139C246.023 37.3861 245.813 37.5549 245.551 37.6425C245.408 37.6894 245.223 37.7113 244.996 37.7113H243.807Z" fill="#838383"/>
<path d="M248.38 37.3767C248.38 37.0046 248.724 36.7763 249.455 36.6919L250.032 36.6294V36.8983C250.032 37.5925 249.503 37.9239 249.037 37.9239C248.689 37.9239 248.38 37.7457 248.38 37.3767ZM248.833 38.3742C249.353 38.3742 249.905 38.0991 250.061 37.5862C250.061 37.9458 250.09 38.146 250.125 38.2992H250.782C250.734 38.0553 250.689 37.6832 250.689 37.3079V36.1322C250.689 35.1878 249.949 34.725 249.206 34.7376C248.479 34.7438 247.742 35.1597 247.678 36.0134L248.323 36.0196C248.38 35.5068 248.788 35.2566 249.193 35.2566C249.614 35.2566 250.026 35.5287 250.026 36.0947V36.2197L249.381 36.2823C248.252 36.3949 247.713 36.7889 247.713 37.4205C247.713 38.0209 248.217 38.3742 248.833 38.3742Z" fill="#838383"/>
<path d="M251.32 33.7623C251.32 34.0343 251.527 34.2344 251.801 34.2344C252.069 34.2344 252.276 34.0343 252.276 33.7623C252.276 33.4996 252.069 33.2932 251.801 33.2932C251.527 33.2932 251.32 33.4996 251.32 33.7623ZM251.463 38.2807H252.133V34.8223H251.463V38.2807Z" fill="#838383"/>
<path d="M254.319 38.2495L254.307 37.7023C253.882 37.8367 253.599 37.7179 253.599 37.2113V33.4496H252.935V37.3364C252.935 38.3277 253.656 38.4371 254.319 38.2495Z" fill="#838383"/>
<path d="M254.788 39.1104V39.667C255.608 39.8671 256.252 39.4856 256.648 38.5444L258.23 34.8358H257.554L256.472 37.4687L255.299 34.8358H254.591L256.102 38.1973L255.956 38.5444C255.672 39.1385 255.212 39.223 254.788 39.1104Z" fill="#838383"/>
<path d="M260.88 37.3767C260.88 37.0046 261.225 36.7763 261.955 36.6919L262.532 36.6294V36.8983C262.532 37.5925 262.003 37.9239 261.537 37.9239C261.189 37.9239 260.88 37.7457 260.88 37.3767ZM261.333 38.3742C261.853 38.3742 262.405 38.0991 262.561 37.5862C262.561 37.9458 262.59 38.146 262.625 38.2992H263.282C263.234 38.0553 263.189 37.6832 263.189 37.3079V36.1322C263.189 35.1878 262.449 34.725 261.706 34.7376C260.979 34.7438 260.242 35.1597 260.178 36.0134L260.823 36.0196C260.88 35.5068 261.288 35.2566 261.693 35.2566C262.114 35.2566 262.526 35.5287 262.526 36.0947V36.2197L261.882 36.2823C260.753 36.3949 260.213 36.7889 260.213 37.4205C260.213 38.0209 260.717 38.3742 261.333 38.3742Z" fill="#838383"/>
<path d="M265.657 38.4021C266.569 38.4021 267.29 37.8205 267.338 36.9762L266.681 36.9262C266.617 37.489 266.158 37.8205 265.651 37.8205C265.064 37.8205 264.525 37.3859 264.525 36.5666C264.525 35.838 265 35.3064 265.651 35.3064C266.187 35.3064 266.617 35.6723 266.675 36.1788L267.332 36.1226C267.274 35.3064 266.554 34.7373 265.657 34.7373C264.617 34.7373 263.855 35.5128 263.855 36.5666C263.855 37.6329 264.611 38.4021 265.657 38.4021Z" fill="#838383"/>
<path d="M269.453 38.3383C269.6 38.3383 269.75 38.3101 269.89 38.2632L269.877 37.716C269.785 37.7504 269.686 37.7723 269.594 37.7723C269.338 37.7723 269.128 37.6191 269.128 37.1969V35.3864H270.075V34.8392H269.128V33.973H268.461V34.8392H267.798V35.3864H268.461V37.2376C268.461 38.0412 268.943 38.3383 269.453 38.3383Z" fill="#838383"/>
<path d="M270.52 33.7623C270.52 34.0343 270.728 34.2344 271.002 34.2344C271.27 34.2344 271.477 34.0343 271.477 33.7623C271.477 33.4996 271.27 33.2932 271.002 33.2932C270.728 33.2932 270.52 33.4996 270.52 33.7623ZM270.664 38.2807H271.334V34.8223H270.664V38.2807Z" fill="#838383"/>
<path d="M273.314 38.2943H274.006L275.406 34.8358H274.733L273.668 37.5938L272.606 34.8358H271.914L273.314 38.2943Z" fill="#838383"/>
<path d="M276.661 36.2476C276.715 35.6285 277.155 35.2001 277.742 35.2001C278.355 35.2001 278.772 35.6566 278.772 36.2476H276.661ZM277.749 38.4021C278.568 38.4021 279.203 37.9237 279.359 37.2858L278.788 37.1951C278.654 37.611 278.243 37.8893 277.755 37.8893C277.127 37.8893 276.674 37.4108 276.655 36.7385H279.423C279.551 35.7754 278.957 34.7029 277.742 34.7029C276.715 34.7029 275.975 35.4846 275.975 36.5509C275.975 37.6266 276.715 38.4021 277.749 38.4021Z" fill="#838383"/>
<path d="M282.172 36.8684V34.8358H281.508V36.9903C281.508 37.8502 281.996 38.3849 282.752 38.3849C283.323 38.3849 283.719 38.1066 283.904 37.622L283.882 38.2943H284.555V37.0466V34.8358H283.882V36.6244C283.882 37.4156 283.556 37.8502 282.979 37.8502C282.462 37.8502 282.172 37.4969 282.172 36.8684Z" fill="#838383"/>
<path d="M286.714 38.4019C287.505 38.4019 288.108 37.9922 288.108 37.3262C288.108 36.8071 287.738 36.4756 287.017 36.3224L286.552 36.2036C286.226 36.1223 286.057 35.9691 286.057 35.7189C286.057 35.3874 286.354 35.1717 286.749 35.1717C287.225 35.1717 287.569 35.4906 287.611 35.9409L288.22 35.919C288.178 35.1936 287.575 34.7026 286.743 34.7026C285.965 34.7026 285.423 35.131 285.423 35.7814C285.423 36.3005 285.761 36.6414 286.418 36.7852L286.883 36.8978C287.279 36.9947 287.451 37.1542 287.451 37.4043C287.451 37.7483 287.116 37.9359 286.714 37.9359C286.207 37.9359 285.847 37.6326 285.802 37.1667L285.19 37.1823C285.225 37.9078 285.847 38.4019 286.714 38.4019Z" fill="#838383"/>
<path d="M289.408 36.2474C289.462 35.6282 289.903 35.1998 290.489 35.1998C291.102 35.1998 291.52 35.6564 291.52 36.2474H289.408ZM290.496 38.4019C291.316 38.4019 291.95 37.9234 292.107 37.2855L291.536 37.1948C291.402 37.6107 290.99 37.889 290.502 37.889C289.874 37.889 289.421 37.4106 289.402 36.7383H292.17C292.298 35.7752 291.705 34.7026 290.489 34.7026C289.462 34.7026 288.722 35.4844 288.722 36.5507C288.722 37.6264 289.462 38.4019 290.496 38.4019Z" fill="#838383"/>
<path d="M292.878 38.2724H293.547V36.784C293.547 35.7771 294.15 35.3487 294.89 35.4456V34.8015C294.284 34.692 293.675 34.9954 293.528 35.849L293.547 34.814H292.878V38.2724Z" fill="#838383"/>
<path d="M296.808 38.4019C297.599 38.4019 298.202 37.9922 298.202 37.3262C298.202 36.8071 297.832 36.4756 297.111 36.3224L296.646 36.2036C296.32 36.1223 296.151 35.9691 296.151 35.7189C296.151 35.3874 296.448 35.1717 296.843 35.1717C297.319 35.1717 297.663 35.4906 297.705 35.9409L298.314 35.919C298.272 35.1936 297.669 34.7026 296.837 34.7026C296.059 34.7026 295.517 35.131 295.517 35.7814C295.517 36.3005 295.855 36.6414 296.512 36.7852L296.977 36.8978C297.373 36.9947 297.545 37.1542 297.545 37.4043C297.545 37.7483 297.21 37.9359 296.808 37.9359C296.301 37.9359 295.941 37.6326 295.896 37.1667L295.284 37.1823C295.319 37.9078 295.941 38.4019 296.808 38.4019Z" fill="#838383"/>
<path d="M398.011 36.4164C398.011 41.5859 394.473 45.7831 390.115 45.7831H334.576C330.218 45.7831 326.68 41.5859 326.68 36.4164C326.68 31.2469 330.218 27.0497 334.576 27.0497H390.115C394.473 27.0497 398.011 31.2469 398.011 36.4164Z" fill="#1E1E1E" fill-opacity="0.5"/>
<path d="M398.011 36.4164C398.011 41.5859 394.473 45.7831 390.115 45.7831H334.576C330.218 45.7831 326.68 41.5859 326.68 36.4164C326.68 31.2469 330.218 27.0497 334.576 27.0497H390.115C394.473 27.0497 398.011 31.2469 398.011 36.4164Z" stroke="url(#paint8_linear_107_2)" stroke-width="0.657816"/>
<path d="M338.709 38.2992H341.835V37.7301H339.411V33.4492H338.709V38.2992Z" fill="#838383"/>
<path d="M343.052 37.3767C343.052 37.0046 343.396 36.7763 344.127 36.6919L344.704 36.6294V36.8983C344.704 37.5925 344.175 37.9239 343.709 37.9239C343.361 37.9239 343.052 37.7457 343.052 37.3767ZM343.505 38.3742C344.025 38.3742 344.576 38.0991 344.733 37.5862C344.733 37.9458 344.761 38.146 344.797 38.2992H345.454C345.406 38.0553 345.361 37.6832 345.361 37.3079V36.1322C345.361 35.1878 344.621 34.725 343.878 34.7376C343.151 34.7438 342.414 35.1597 342.35 36.0134L342.994 36.0196C343.052 35.5068 343.46 35.2566 343.865 35.2566C344.286 35.2566 344.698 35.5287 344.698 36.0947V36.2197L344.053 36.2823C342.924 36.3949 342.385 36.7889 342.385 37.4205C342.385 38.0209 342.889 38.3742 343.505 38.3742Z" fill="#838383"/>
<path d="M347.502 38.4021C348.293 38.4021 348.896 37.9925 348.896 37.3264C348.896 36.8073 348.526 36.4759 347.805 36.3227L347.339 36.2038C347.014 36.1225 346.845 35.9693 346.845 35.7191C346.845 35.3877 347.141 35.1719 347.537 35.1719C348.012 35.1719 348.357 35.4909 348.398 35.9412L349.007 35.9193C348.966 35.1938 348.363 34.7029 347.531 34.7029C346.752 34.7029 346.21 35.1313 346.21 35.7817C346.21 36.3008 346.548 36.6416 347.205 36.7855L347.671 36.898C348.066 36.995 348.239 37.1544 348.239 37.4046C348.239 37.7486 347.904 37.9362 347.502 37.9362C346.995 37.9362 346.634 37.6329 346.59 37.1669L345.977 37.1826C346.012 37.908 346.634 38.4021 347.502 38.4021Z" fill="#838383"/>
<path d="M351.116 38.3384C351.262 38.3384 351.412 38.3103 351.553 38.2634L351.54 37.7161C351.447 37.7505 351.348 37.7724 351.256 37.7724C351.001 37.7724 350.79 37.6192 350.79 37.1971V35.3865H351.738V34.8393H350.79V33.9731H350.124V34.8393H349.46V35.3865H350.124V37.2377C350.124 38.0413 350.605 38.3384 351.116 38.3384Z" fill="#838383"/>
<path d="M353.766 37.8023V38.2807H356.892V37.746H354.631C356.276 36.5547 357.004 35.7792 357.004 34.8317C357.004 33.9217 356.34 33.2932 355.358 33.2932C354.318 33.2932 353.655 34.0187 353.655 35.0537H354.324C354.324 34.3595 354.736 33.8748 355.342 33.8748C355.916 33.8748 356.324 34.2845 356.324 34.8661C356.324 35.6541 355.603 36.2795 353.766 37.8023Z" fill="#838383"/>
<path d="M358.46 36.9862C358.46 36.4671 358.872 36.1044 359.478 36.1044C360.093 36.1044 360.501 36.4671 360.501 36.9862C360.501 37.5178 360.093 37.8867 359.478 37.8867C358.872 37.8867 358.46 37.5178 358.46 36.9862ZM358.396 34.7348C358.396 34.1938 358.843 33.8248 359.478 33.8248C360.122 33.8248 360.565 34.1938 360.565 34.7348C360.565 35.2601 360.122 35.6197 359.478 35.6197C358.843 35.6197 358.396 35.2601 358.396 34.7348ZM359.478 38.4183C360.466 38.4183 361.146 37.843 361.146 37.0612C361.146 36.4577 360.757 36.0231 360.186 35.9042C360.814 35.7667 361.238 35.2882 361.238 34.6785C361.238 33.8873 360.511 33.2932 359.478 33.2932C358.454 33.2932 357.727 33.8873 357.727 34.6785C357.727 35.2882 358.151 35.7667 358.779 35.9042C358.205 36.0231 357.809 36.4577 357.809 37.0612C357.809 37.843 358.495 38.4183 359.478 38.4183Z" fill="#838383"/>
<path d="M363.979 36.5672C363.979 35.8261 364.451 35.2914 365.102 35.2914C365.759 35.2914 366.218 35.8136 366.218 36.5672C366.218 37.3302 365.759 37.8492 365.102 37.8492C364.451 37.8492 363.979 37.3083 363.979 36.5672ZM364.933 38.3902C365.481 38.3902 365.922 38.1401 366.183 37.7023V38.2995H366.853V37.5584V33.4496H366.183V35.4321C365.922 35.0006 365.481 34.7535 364.933 34.7535C363.986 34.7535 363.3 35.5071 363.3 36.5672C363.3 37.6335 363.986 38.3902 364.933 38.3902Z" fill="#838383"/>
<path d="M368.261 37.3767C368.261 37.0046 368.605 36.7763 369.336 36.6919L369.913 36.6294V36.8983C369.913 37.5925 369.383 37.9239 368.918 37.9239C368.57 37.9239 368.261 37.7457 368.261 37.3767ZM368.714 38.3742C369.234 38.3742 369.785 38.0991 369.942 37.5862C369.942 37.9458 369.97 38.146 370.005 38.2992H370.662C370.615 38.0553 370.57 37.6832 370.57 37.3079V36.1322C370.57 35.1878 369.83 34.725 369.087 34.7376C368.36 34.7438 367.623 35.1597 367.559 36.0134L368.203 36.0196C368.261 35.5068 368.669 35.2566 369.074 35.2566C369.495 35.2566 369.907 35.5287 369.907 36.0947V36.2197L369.262 36.2823C368.133 36.3949 367.594 36.7889 367.594 37.4205C367.594 38.0209 368.098 38.3742 368.714 38.3742Z" fill="#838383"/>
<path d="M371.304 39.1104V39.667C372.124 39.8671 372.768 39.4856 373.164 38.5444L374.746 34.8358H374.069L372.988 37.4687L371.814 34.8358H371.106L372.618 38.1973L372.472 38.5444C372.188 39.1385 371.728 39.223 371.304 39.1104Z" fill="#838383"/>
<path d="M376.786 38.4021C377.577 38.4021 378.18 37.9925 378.18 37.3264C378.18 36.8073 377.81 36.4759 377.089 36.3227L376.623 36.2038C376.298 36.1225 376.129 35.9693 376.129 35.7191C376.129 35.3877 376.425 35.1719 376.821 35.1719C377.296 35.1719 377.641 35.4909 377.682 35.9412L378.291 35.9193C378.25 35.1938 377.647 34.7029 376.814 34.7029C376.036 34.7029 375.494 35.1313 375.494 35.7817C375.494 36.3008 375.832 36.6416 376.489 36.7855L376.955 36.898C377.35 36.995 377.523 37.1544 377.523 37.4046C377.523 37.7486 377.188 37.9362 376.786 37.9362C376.279 37.9362 375.918 37.6329 375.874 37.1669L375.261 37.1826C375.296 37.908 375.918 38.4021 376.786 38.4021Z" fill="#838383"/>
<path d="M305.258 36.0973L306.813 37.6217L308.408 36.0582" stroke="#838383" stroke-width="0.986723" stroke-linecap="round" stroke-linejoin="round"/>
<path d="M54.5092 32.3796C54.5092 35.0518 52.2961 37.2215 49.5704 37.2215H37.3622C34.6365 37.2215 32.4235 35.0518 32.4235 32.3796C32.4235 29.7074 34.6365 27.5377 37.3622 27.5377H49.5704C52.2961 27.5377 54.5092 29.7074 54.5092 32.3796Z" fill="#44E760"/>
<path d="M37.4818 34.55H38.0483V32.0097C38.0483 31.9084 38.0483 31.747 38.0406 31.5331C38.033 31.3155 38.033 31.1541 38.033 31.0491V30.9177L39.2999 34.55H39.8893L41.1409 30.9177C41.1409 31.1504 41.1409 31.368 41.1371 31.5707C41.1332 31.7733 41.1294 31.9196 41.1294 32.0097V34.55H41.6997V30.2423H40.85L39.5984 33.8859L38.3353 30.2423H37.4818V34.55Z" fill="#101010"/>
<path d="M43.2901 32.8263L43.9752 30.9989L44.6565 32.8263H43.2901ZM41.8739 34.5374H42.6509L43.0642 33.4417H44.8823L45.2918 34.5374H46.1147L44.4996 30.3047H43.4891L41.8739 34.5374Z" fill="#101010"/>
<path d="M48.4652 34.6237C49.5675 34.6237 50.3024 33.9257 50.3024 32.8863V30.3047H49.4948V32.8638C49.4948 33.5167 49.1006 33.922 48.4652 33.922C47.8298 33.922 47.4394 33.5167 47.4394 32.8638V30.3047H46.6318V32.8863C46.6318 33.9257 47.3667 34.6237 48.4652 34.6237Z" fill="#101010"/>
<path d="M60.2268 34.3254C61.1339 34.3254 61.7463 33.7325 61.7463 32.802V30.0027H60.9387V32.802C60.9387 33.3235 60.6707 33.62 60.2344 33.62C59.7828 33.62 59.5187 33.3085 59.5187 32.7945L58.7532 32.8507C58.7532 33.7401 59.3388 34.3254 60.2268 34.3254Z" fill="#C4C4C4"/>
<path d="M63.5983 32.5243L64.2834 30.6969L64.9647 32.5243H63.5983ZM62.1821 34.2354H62.9591L63.3725 33.1397H65.1905L65.6001 34.2354H66.423L64.8078 30.0027H63.7973L62.1821 34.2354Z" fill="#C4C4C4"/>
<path d="M66.9656 34.2354H67.7502L67.7196 31.226L69.8285 34.2354H70.6361V30.0027H69.8477L69.8783 33.0158L67.7693 30.0027H66.9656V34.2354Z" fill="#C4C4C4"/>
<path d="M72.4442 33.6815V34.2256H75.2688V33.6214H73.4508C74.8325 32.6796 75.3798 32.0004 75.3798 31.2312C75.3798 30.4282 74.8019 29.8728 73.8948 29.8728C72.9379 29.8728 72.3408 30.5182 72.3408 31.4375H73.1101C73.1101 30.9047 73.4125 30.537 73.8756 30.537C74.3081 30.537 74.6105 30.8409 74.6105 31.2687C74.6105 31.8541 74.067 32.3644 72.4442 33.6815Z" fill="#C4C4C4"/>
<path d="M76.691 32.1185C76.691 31.2104 77.0546 30.5875 77.5828 30.5875C78.1225 30.5875 78.4861 31.2104 78.4861 32.1185C78.4861 33.0266 78.1225 33.6495 77.5828 33.6495C77.0546 33.6495 76.691 33.0266 76.691 32.1185ZM77.5828 34.3136C78.5779 34.3136 79.2554 33.4243 79.2554 32.1185C79.2554 30.8127 78.5779 29.9233 77.5828 29.9233C76.5915 29.9233 75.9178 30.8127 75.9178 32.1185C75.9178 33.4243 76.5915 34.3136 77.5828 34.3136Z" fill="#C4C4C4"/>
<path d="M79.8559 33.6815V34.2256H82.6806V33.6214H80.8625C82.2443 32.6796 82.7916 32.0004 82.7916 31.2312C82.7916 30.4282 82.2136 29.8728 81.3065 29.8728C80.3497 29.8728 79.7526 30.5182 79.7526 31.4375H80.5219C80.5219 30.9047 80.8243 30.537 81.2874 30.537C81.7199 30.537 82.0223 30.8409 82.0223 31.2687C82.0223 31.8541 81.4788 32.3644 79.8559 33.6815Z" fill="#C4C4C4"/>
<path d="M84.8712 34.3454C85.7438 34.3454 86.3792 33.8313 86.3792 33.1259C86.3792 32.5668 85.9926 32.169 85.4261 32.1015C85.9964 32.0227 86.3792 31.6137 86.3792 31.0583C86.3792 30.3379 85.7821 29.8726 84.9171 29.8726C83.9487 29.8726 83.3593 30.4879 83.3172 31.3247L84.0942 31.3472C84.0942 30.8519 84.3927 30.5067 84.8865 30.5067C85.319 30.5067 85.6099 30.7731 85.6099 31.1596C85.6099 31.5724 85.2654 31.8538 84.6606 31.8538V32.3679C85.2692 32.3679 85.6099 32.6456 85.6099 33.0583C85.6099 33.4411 85.3075 33.7112 84.8712 33.7112C84.3774 33.7112 84.0789 33.3848 84.0789 32.882L83.2904 32.9007C83.2904 33.7675 83.9143 34.3454 84.8712 34.3454Z" fill="#C4C4C4"/>
<defs>
<radialGradient id="paint0_radial_107_2" cx="0" cy="0" r="1" gradientUnits="userSpaceOnUse" gradientTransform="translate(109.044 42.327) scale(265.865 218.195)">
<stop stop-color="#242424"/>
<stop offset="0.5" stop-color="#1A1A1A"/>
<stop offset="1" stop-color="#181818"/>
</radialGradient>
<linearGradient id="paint1_linear_107_2" x1="114.376" y1="120.346" x2="59.2593" y2="-7.84345" gradientUnits="userSpaceOnUse">
<stop stop-color="white" stop-opacity="0"/>
<stop offset="0.17" stop-color="white" stop-opacity="0.05"/>
<stop offset="0.33" stop-color="white" stop-opacity="0.1"/>
</linearGradient>
<linearGradient id="paint2_linear_107_2" x1="174.554" y1="135.734" x2="354.098" y2="135.734" gradientUnits="userSpaceOnUse">
<stop stop-color="white" stop-opacity="0.08"/>
<stop offset="0.5" stop-color="white" stop-opacity="0.04"/>
<stop offset="1" stop-color="white" stop-opacity="0"/>
</linearGradient>
<linearGradient id="paint3_linear_107_2" x1="174.554" y1="181.094" x2="303.181" y2="181.094" gradientUnits="userSpaceOnUse">
<stop stop-color="white" stop-opacity="0.07"/>
<stop offset="0.5" stop-color="white" stop-opacity="0.035"/>
<stop offset="1" stop-color="white" stop-opacity="0"/>
</linearGradient>
<linearGradient id="paint4_linear_107_2" x1="174.554" y1="226.423" x2="272.537" y2="226.423" gradientUnits="userSpaceOnUse">
<stop stop-color="white" stop-opacity="0.06"/>
<stop offset="0.5" stop-color="white" stop-opacity="0.03"/>
<stop offset="1" stop-color="white" stop-opacity="0"/>
</linearGradient>
<linearGradient id="paint5_linear_107_2" x1="69.1564" y1="238.653" x2="357.725" y2="98.5857" gradientUnits="userSpaceOnUse">
<stop offset="0.18" stop-color="white" stop-opacity="0.1"/>
<stop offset="0.59" stop-color="white" stop-opacity="0.2"/>
<stop offset="1" stop-color="white" stop-opacity="0.3"/>
</linearGradient>
<linearGradient id="paint6_linear_107_2" x1="160.101" y1="163.562" x2="242.022" y2="108.284" gradientUnits="userSpaceOnUse">
<stop stop-color="#44E760"/>
<stop offset="0.5" stop-color="#8EFFA1"/>
<stop offset="1" stop-color="#9EFFAF"/>
</linearGradient>
<linearGradient id="paint7_linear_107_2" x1="266.693" y1="26.9919" x2="270.489" y2="39.3692" gradientUnits="userSpaceOnUse">
<stop stop-color="white" stop-opacity="0.1"/>
<stop offset="0.5" stop-color="#808080" stop-opacity="0.05"/>
<stop offset="1" stop-opacity="0"/>
</linearGradient>
<linearGradient id="paint8_linear_107_2" x1="356.235" y1="27.2607" x2="360.645" y2="39.1452" gradientUnits="userSpaceOnUse">
<stop stop-color="white" stop-opacity="0.1"/>
<stop offset="0.5" stop-color="#808080" stop-opacity="0.05"/>
<stop offset="1" stop-opacity="0"/>
</linearGradient>
</defs>
</svg>
