<svg width="631" height="249" viewBox="0 0 631 249" fill="none" xmlns="http://www.w3.org/2000/svg">
<rect x="0.476807" y="0.476807" width="630" height="276.404" rx="25" fill="url(#paint0_linear_103_2217)"/>
<rect x="0.476807" y="0.476807" width="630" height="276.404" rx="25" fill="black" fill-opacity="0.2"/>
<rect x="0.476807" y="0.476807" width="630" height="276.404" rx="25" stroke="#262626" stroke-width="0.953624"/>
<path fill-rule="evenodd" clip-rule="evenodd" d="M62.827 256.756V255.985H604.556V256.757L62.827 256.756ZM63.3926 211.103V210.332H605.121V211.103H63.3926ZM63.3926 166.198V165.419H605.121V166.198H63.3926ZM62.827 119.024V118.253H604.556V119.024H62.827ZM63.3926 73.371V72.6H605.121V73.371H63.3926ZM63.3926 28.4662V27.6952H605.121V28.4662H63.3926Z" fill="#5A5A5A" fill-opacity="0.4"/>
<path fill-rule="evenodd" clip-rule="evenodd" d="M569.748 256.823C566.758 256.823 564.334 254.399 564.334 251.409V120.666C564.334 116.921 568.374 113.885 573.357 113.885H589.518C594.501 113.885 598.541 116.921 598.541 120.666V251.409C598.541 254.399 596.117 256.823 593.127 256.823H569.748ZM524.931 256.823C521.941 256.823 519.517 254.399 519.517 251.409V85.5601C519.517 81.8151 523.557 78.779 528.54 78.779H544.7C549.684 78.779 553.723 81.8151 553.723 85.5601V251.409C553.723 254.399 551.299 256.823 548.309 256.823H524.931ZM479.969 256.823C476.979 256.823 474.555 254.399 474.555 251.409V104.269C474.555 100.524 478.595 97.4881 483.578 97.4881H499.738C504.722 97.4881 508.761 100.524 508.761 104.269V251.409C508.761 254.399 506.338 256.823 503.348 256.823H479.969ZM434.999 256.823C432.009 256.823 429.585 254.399 429.585 251.409V125.033C429.585 121.288 433.625 118.252 438.608 118.252H454.768C459.752 118.252 463.791 121.288 463.791 125.033V251.409C463.791 254.399 461.368 256.823 458.378 256.823H434.999ZM390.037 256.823C387.047 256.823 384.623 254.399 384.623 251.409V129.99C384.623 126.245 388.663 123.209 393.646 123.209H409.807C414.79 123.209 418.83 126.245 418.83 129.99V251.409C418.83 254.399 416.406 256.823 413.416 256.823H390.037ZM345.075 256.823C342.085 256.823 339.661 254.399 339.661 251.409V128.125C339.661 124.38 343.701 121.344 348.684 121.344H364.845C369.828 121.344 373.868 124.38 373.868 128.125V251.409C373.868 254.399 371.444 256.823 368.454 256.823H345.075ZM300.114 256.823C297.124 256.823 294.7 254.399 294.7 251.409V133.272C294.7 129.527 298.74 126.491 303.723 126.491H319.879C324.862 126.491 328.902 129.527 328.902 133.272V251.409C328.902 254.399 326.478 256.823 323.488 256.823H300.114ZM255.306 256.823C252.316 256.823 249.892 254.399 249.892 251.409V97.705C249.892 93.9599 253.932 90.9239 258.915 90.9239H275.075C280.059 90.9239 284.098 93.9599 284.098 97.705V251.409C284.098 254.399 281.675 256.823 278.685 256.823H255.306ZM210.344 256.823C207.354 256.823 204.93 254.399 204.93 251.409V117.913C204.93 114.168 208.97 111.132 213.953 111.132H230.113C235.097 111.132 239.136 114.168 239.136 117.913V251.409C239.136 254.399 236.713 256.823 233.723 256.823H210.344ZM165.382 256.823C162.392 256.823 159.968 254.399 159.968 251.409V82.2984C159.968 78.5533 164.008 75.5173 168.991 75.5173H185.147C190.13 75.5173 194.17 78.5533 194.17 82.2984V251.409C194.17 254.399 191.746 256.823 188.756 256.823H165.382ZM120.421 256.823C117.431 256.823 115.007 254.399 115.007 251.409V117.913C115.007 114.168 119.047 111.132 124.03 111.132H140.191C145.174 111.132 149.214 114.168 149.214 117.913V251.409C149.214 254.399 146.79 256.823 143.8 256.823H120.421ZM75.4592 256.823C72.4693 256.823 70.0454 254.399 70.0454 251.409V104.676C70.0454 100.931 74.0852 97.8949 79.0685 97.8949H95.2287C100.212 97.8949 104.252 100.931 104.252 104.676V251.409C104.252 254.399 101.828 256.823 98.838 256.823H75.4592Z" fill="url(#paint1_linear_103_2217)"/>
<path d="M30.5155 32.4768H32.099V30.4331H33.3036V29.039H32.099V23.4492H29.92L26.2115 29.1608V30.4331H30.5155V32.4768ZM30.5155 24.8704V29.039H27.768L30.5155 24.8704ZM34.2385 27.9698C34.2385 30.2436 35.3213 32.6392 37.8523 32.6392C40.3832 32.6392 41.466 30.2436 41.466 27.9698C41.466 25.696 40.3832 23.3139 37.8523 23.3139C35.3213 23.3139 34.2385 25.696 34.2385 27.9698ZM39.8554 27.9698C39.8554 29.6887 39.3275 31.2316 37.8523 31.2316C36.377 31.2316 35.8492 29.6887 35.8492 27.9698C35.8492 26.2509 36.377 24.7215 37.8523 24.7215C39.3275 24.7215 39.8554 26.2509 39.8554 27.9698ZM47.2752 32.4768H49.0618L46.2872 28.9037L49.0076 25.9396H47.2481L44.3653 29.0932V23.4492H42.9441V32.4768H44.3653V30.7173L45.2721 29.7834L47.2752 32.4768Z" fill="#737173"/>
<path d="M26.1573 86.218C26.7664 87.0301 27.9574 87.6797 29.5681 87.6797C31.6524 87.6797 32.9652 86.5834 32.9652 85.054C32.9652 83.66 31.7471 82.9426 30.8674 82.8614C31.8013 82.699 32.8299 81.9952 32.8299 80.7907C32.8299 79.2748 31.517 78.3544 29.5681 78.3544C28.0657 78.3544 26.9694 78.9635 26.2792 79.7756L27.0912 80.7636C27.7409 80.1139 28.4988 79.762 29.4192 79.762C30.4343 79.762 31.2463 80.1951 31.2463 81.0343C31.2463 81.8599 30.4478 82.2253 29.3921 82.2253C29.0402 82.2253 28.5124 82.2253 28.35 82.2118V83.6329C28.4853 83.6194 29.0131 83.6194 29.3921 83.6194C30.6779 83.6194 31.3952 83.9983 31.3952 84.8916C31.3952 85.7308 30.705 86.2722 29.5139 86.2722C28.553 86.2722 27.592 85.8526 27.01 85.1759L26.1573 86.218ZM34.1592 83.0103C34.1592 85.2841 35.242 87.6797 37.773 87.6797C40.3039 87.6797 41.3867 85.2841 41.3867 83.0103C41.3867 80.7365 40.3039 78.3544 37.773 78.3544C35.242 78.3544 34.1592 80.7365 34.1592 83.0103ZM39.7761 83.0103C39.7761 84.7292 39.2482 86.2722 37.773 86.2722C36.2977 86.2722 35.7699 84.7292 35.7699 83.0103C35.7699 81.2914 36.2977 79.762 37.773 79.762C39.2482 79.762 39.7761 81.2914 39.7761 83.0103ZM47.1959 87.5173H48.9825L46.2079 83.9442L48.9283 80.9801H47.1688L44.286 84.1337V78.4898H42.8648V87.5173H44.286V85.7578L45.1928 84.824L47.1959 87.5173Z" fill="#737173"/>
<path d="M26.5092 142.558H33.0464V141.164H29.0402C31.4629 139.337 32.9923 137.848 32.9923 136.183C32.9923 134.383 31.4629 133.395 29.7169 133.395C28.4582 133.395 27.186 133.882 26.3874 134.843L27.3078 135.885C27.8762 135.236 28.6883 134.803 29.744 134.803C30.5696 134.803 31.3817 135.236 31.3817 136.183C31.3817 137.483 30.0147 138.66 26.5092 141.313V142.558ZM34.4368 138.051C34.4368 140.325 35.5196 142.72 38.0505 142.72C40.5815 142.72 41.6643 140.325 41.6643 138.051C41.6643 135.777 40.5815 133.395 38.0505 133.395C35.5196 133.395 34.4368 135.777 34.4368 138.051ZM40.0537 138.051C40.0537 139.77 39.5258 141.313 38.0505 141.313C36.5753 141.313 36.0474 139.77 36.0474 138.051C36.0474 136.332 36.5753 134.803 38.0505 134.803C39.5258 134.803 40.0537 136.332 40.0537 138.051ZM47.4735 142.558H49.26L46.4854 138.985L49.2059 136.021H47.4464L44.5635 139.174V133.53H43.1424V142.558H44.5635V140.798L45.4703 139.865L47.4735 142.558Z" fill="#737173"/>
<path d="M28.4312 197.599H30.0147V188.571H28.6342L26.0355 191.197L26.9559 192.158L28.4312 190.628V197.599ZM31.529 193.092C31.529 195.365 32.6118 197.761 35.1427 197.761C37.6737 197.761 38.7565 195.365 38.7565 193.092C38.7565 190.818 37.6737 188.436 35.1427 188.436C32.6118 188.436 31.529 190.818 31.529 193.092ZM37.1458 193.092C37.1458 194.811 36.618 196.353 35.1427 196.353C33.6675 196.353 33.1396 194.811 33.1396 193.092C33.1396 191.373 33.6675 189.843 35.1427 189.843C36.618 189.843 37.1458 191.373 37.1458 193.092ZM44.5656 197.599H46.3522L43.5776 194.026L46.2981 191.061H44.5386L41.6557 194.215V188.571H40.2346V197.599H41.6557V195.839L42.5625 194.905L44.5656 197.599Z" fill="#737173"/>
<path d="M26.3874 248.132C26.3874 250.406 27.4702 252.802 30.0012 252.802C32.5321 252.802 33.6149 250.406 33.6149 248.132C33.6149 245.858 32.5321 243.476 30.0012 243.476C27.4702 243.476 26.3874 245.858 26.3874 248.132ZM32.0043 248.132C32.0043 249.851 31.4764 251.394 30.0012 251.394C28.5259 251.394 27.9981 249.851 27.9981 248.132C27.9981 246.413 28.5259 244.884 30.0012 244.884C31.4764 244.884 32.0043 246.413 32.0043 248.132Z" fill="#737173"/>
<path fill-rule="evenodd" clip-rule="evenodd" d="M222.535 34.9137H306.449C310.436 34.9137 313.668 38.1455 313.668 42.1321V80.9313C313.668 84.9179 310.436 88.1497 306.449 88.1497H271.711C270.073 88.1497 268.411 91.7589 266.748 91.7589C264.784 91.7589 262.818 88.1497 260.883 88.1497H222.535C218.548 88.1497 215.317 84.9179 215.317 80.9313V42.1321C215.317 38.1455 218.548 34.9137 222.535 34.9137Z" fill="white"/>
<path d="M231.13 54.3745C230.364 54.3745 229.686 54.1934 229.097 53.8313C228.507 53.4608 228.048 52.9386 227.72 52.2649C227.391 51.5828 227.227 50.7743 227.227 49.8395C227.227 48.9384 227.391 48.1426 227.72 47.452C228.056 46.753 228.528 46.2098 229.134 45.8224C229.749 45.4266 230.465 45.2287 231.282 45.2287C231.703 45.2287 232.086 45.2708 232.431 45.355C232.777 45.4308 233.101 45.5403 233.404 45.6835L233.038 46.6941C232.777 46.5677 232.507 46.4667 232.229 46.3909C231.96 46.3151 231.64 46.2772 231.269 46.2772C230.73 46.2772 230.246 46.4162 229.817 46.6941C229.395 46.972 229.063 47.372 228.819 47.8941C228.574 48.4163 228.452 49.0479 228.452 49.789C228.452 50.4964 228.57 51.1154 228.806 51.6459C229.05 52.1765 229.383 52.5891 229.804 52.8839C230.233 53.1786 230.722 53.326 231.269 53.326C231.682 53.326 232.04 53.2755 232.343 53.1744C232.646 53.0734 232.941 52.9428 233.227 52.7828L233.594 53.7808C233.282 53.9492 232.924 54.0924 232.52 54.2103C232.124 54.3197 231.661 54.3745 231.13 54.3745ZM237.254 54.3745C236.875 54.3745 236.517 54.2945 236.18 54.1345C235.843 53.9745 235.57 53.7176 235.359 53.3639C235.148 53.0018 235.043 52.5218 235.043 51.9238V47.6541H236.18V51.7722C236.18 52.286 236.29 52.6818 236.509 52.9597C236.727 53.2292 237.047 53.3639 237.469 53.3639C237.814 53.3639 238.146 53.2965 238.467 53.1618C238.795 53.0186 239.085 52.8291 239.338 52.5933V47.6541H240.475V52.5175C240.475 52.8797 240.551 53.1197 240.702 53.2376C240.862 53.3471 241.035 53.4018 241.22 53.4018L240.98 54.2861C240.197 54.2861 239.713 53.9745 239.528 53.3513C239.233 53.6544 238.892 53.9029 238.504 54.0966C238.117 54.2819 237.7 54.3745 237.254 54.3745ZM242.73 54.2229V47.6541H243.829V49.0816C243.939 48.8037 244.086 48.5468 244.271 48.311C244.457 48.0668 244.688 47.8731 244.966 47.7299C245.244 47.5783 245.568 47.5025 245.939 47.5025C246.065 47.5025 246.191 47.511 246.318 47.5278C246.444 47.5362 246.549 47.5531 246.633 47.5783L246.292 48.7531C246.132 48.6858 245.943 48.6521 245.724 48.6521C245.412 48.6521 245.113 48.7405 244.827 48.9173C244.549 49.0942 244.318 49.3679 244.132 49.7384C243.955 50.109 243.867 50.5806 243.867 51.1533V54.2229H242.73ZM247.776 54.2229V47.6541H248.875V49.0816C248.984 48.8037 249.131 48.5468 249.317 48.311C249.502 48.0668 249.734 47.8731 250.012 47.7299C250.289 47.5783 250.614 47.5025 250.984 47.5025C251.111 47.5025 251.237 47.511 251.363 47.5278C251.489 47.5362 251.595 47.5531 251.679 47.5783L251.338 48.7531C251.178 48.6858 250.988 48.6521 250.769 48.6521C250.458 48.6521 250.159 48.7405 249.873 48.9173C249.595 49.0942 249.363 49.3679 249.178 49.7384C249.001 50.109 248.913 50.5806 248.913 51.1533V54.2229H247.776ZM255.066 54.3745C254.123 54.3745 253.373 54.0755 252.818 53.4776C252.27 52.8712 251.997 52.0249 251.997 50.9385C251.997 50.2816 252.119 49.6963 252.363 49.1826C252.616 48.6605 252.965 48.252 253.411 47.9573C253.858 47.6541 254.376 47.5025 254.965 47.5025C255.597 47.5025 256.119 47.6415 256.532 47.9194C256.953 48.1889 257.268 48.5552 257.479 49.0184C257.69 49.4816 257.795 49.9911 257.795 50.5469C257.795 50.8417 257.782 51.128 257.757 51.4059H253.159C253.235 52.0207 253.449 52.5007 253.803 52.846C254.157 53.1913 254.624 53.3639 255.205 53.3639C255.584 53.3639 255.925 53.326 256.228 53.2502C256.532 53.166 256.822 53.0607 257.1 52.9344L257.365 53.9071C257.062 54.0418 256.721 54.1513 256.342 54.2355C255.963 54.3282 255.538 54.3745 255.066 54.3745ZM253.146 50.4837H256.746C256.746 49.8437 256.586 49.3511 256.266 49.0058C255.946 48.6605 255.504 48.4878 254.94 48.4878C254.451 48.4878 254.047 48.6605 253.727 49.0058C253.407 49.3426 253.213 49.8353 253.146 50.4837ZM259.31 54.2229V47.6541H260.409V48.7531C260.645 48.3994 260.944 48.1047 261.306 47.8689C261.676 47.6246 262.114 47.5025 262.62 47.5025C263.361 47.5025 263.912 47.7257 264.274 48.172C264.645 48.6184 264.83 49.2079 264.83 49.9406V54.2229H263.693V50.0669C263.693 49.5953 263.58 49.2163 263.352 48.93C263.133 48.6436 262.826 48.5005 262.43 48.5005C262.043 48.5005 261.676 48.6394 261.331 48.9173C260.986 49.1868 260.691 49.5069 260.447 49.8774V54.2229H259.31ZM269.085 54.3745C268.453 54.3745 267.952 54.1682 267.582 53.7555C267.219 53.3344 267.038 52.7365 267.038 51.9617V48.8795H265.901V47.8941H267.064L267.304 45.8224H268.175V47.8941H269.994V48.8795H268.175V52.0502C268.175 52.5386 268.276 52.8797 268.478 53.0734C268.689 53.2671 268.937 53.3639 269.224 53.3639C269.434 53.3639 269.632 53.3302 269.817 53.2628C270.011 53.1955 270.188 53.1155 270.348 53.0228L270.664 53.9324C270.495 54.0334 270.268 54.1303 269.982 54.2229C269.695 54.324 269.396 54.3745 269.085 54.3745ZM277.956 54.2229L274.709 45.6961L275.884 45.2414L278.663 52.9091L281.455 45.2793L282.541 45.6961L279.308 54.2229H277.956ZM285.62 54.3745C285.073 54.3745 284.576 54.2355 284.13 53.9576C283.683 53.6797 283.325 53.2881 283.056 52.7828C282.795 52.2691 282.664 51.667 282.664 50.9764C282.664 50.3195 282.795 49.73 283.056 49.2079C283.325 48.6858 283.692 48.2731 284.155 47.9699C284.627 47.6583 285.166 47.5025 285.772 47.5025C286.151 47.5025 286.492 47.5699 286.795 47.7046C287.107 47.831 287.376 47.991 287.604 48.1847V47.6541H288.639V52.6312C288.639 52.9513 288.715 53.1618 288.867 53.2628C289.027 53.3555 289.199 53.4018 289.385 53.4018L289.145 54.2861C288.336 54.2861 287.848 53.9576 287.679 53.3007C287.486 53.5702 287.22 53.8187 286.884 54.046C286.555 54.265 286.134 54.3745 285.62 54.3745ZM285.873 53.3639C286.193 53.3639 286.496 53.2881 286.782 53.1365C287.069 52.9765 287.309 52.7786 287.503 52.5428V49.0184C287.275 48.8584 287.022 48.7321 286.745 48.6394C286.475 48.5384 286.189 48.4878 285.886 48.4878C285.481 48.4878 285.123 48.5931 284.812 48.8037C284.509 49.0058 284.269 49.2921 284.092 49.6627C283.915 50.0248 283.827 50.4501 283.827 50.9385C283.827 51.4101 283.915 51.8312 284.092 52.2017C284.269 52.5639 284.513 52.8502 284.824 53.0607C285.136 53.2628 285.486 53.3639 285.873 53.3639ZM292.899 54.3745C292.511 54.3745 292.162 54.3029 291.85 54.1597C291.539 54.0082 291.29 53.7681 291.105 53.4397C290.928 53.1113 290.84 52.686 290.84 52.1638V44.875H291.977V52.0502C291.977 52.5049 292.069 52.8418 292.255 53.0607C292.448 53.2797 292.714 53.3892 293.05 53.3892C293.21 53.3892 293.366 53.3723 293.518 53.3386C293.678 53.2965 293.813 53.2502 293.922 53.1997L294.2 54.1218C294.048 54.1892 293.859 54.2482 293.632 54.2987C293.413 54.3492 293.168 54.3745 292.899 54.3745ZM297.232 54.3745C296.853 54.3745 296.496 54.2945 296.159 54.1345C295.822 53.9745 295.548 53.7176 295.338 53.3639C295.127 53.0018 295.022 52.5218 295.022 51.9238V47.6541H296.159V51.7722C296.159 52.286 296.268 52.6818 296.487 52.9597C296.706 53.2292 297.026 53.3639 297.447 53.3639C297.792 53.3639 298.125 53.2965 298.445 53.1618C298.774 53.0186 299.064 52.8291 299.317 52.5933V47.6541H300.454V52.5175C300.454 52.8797 300.529 53.1197 300.681 53.2376C300.841 53.3471 301.014 53.4018 301.199 53.4018L300.959 54.2861C300.176 54.2861 299.691 53.9745 299.506 53.3513C299.211 53.6544 298.87 53.9029 298.483 54.0966C298.096 54.2819 297.679 54.3745 297.232 54.3745ZM305.213 54.3745C304.27 54.3745 303.52 54.0755 302.964 53.4776C302.417 52.8712 302.143 52.0249 302.143 50.9385C302.143 50.2816 302.265 49.6963 302.51 49.1826C302.762 48.6605 303.112 48.252 303.558 47.9573C304.004 47.6541 304.522 47.5025 305.112 47.5025C305.743 47.5025 306.266 47.6415 306.678 47.9194C307.099 48.1889 307.415 48.5552 307.626 49.0184C307.836 49.4816 307.941 49.9911 307.941 50.5469C307.941 50.8417 307.929 51.128 307.904 51.4059H303.305C303.381 52.0207 303.596 52.5007 303.95 52.846C304.303 53.1913 304.771 53.3639 305.352 53.3639C305.731 53.3639 306.072 53.326 306.375 53.2502C306.678 53.166 306.969 53.0607 307.247 52.9344L307.512 53.9071C307.209 54.0418 306.868 54.1513 306.489 54.2355C306.11 54.3282 305.684 54.3745 305.213 54.3745ZM303.293 50.4837H306.893C306.893 49.8437 306.733 49.3511 306.413 49.0058C306.093 48.6605 305.651 48.4878 305.087 48.4878C304.598 48.4878 304.194 48.6605 303.874 49.0058C303.554 49.3426 303.36 49.8353 303.293 50.4837Z" fill="#17181A"/>
<path d="M235.247 70.3908C235.247 71.9554 234.234 73.3052 231.933 73.52V74.9005H230.706V73.5353C229.111 73.4126 227.945 72.7837 227.132 71.9247L228.129 70.5442C228.727 71.1731 229.602 71.7406 230.706 71.9094V68.9489C229.126 68.5501 227.454 67.9672 227.454 65.9731C227.454 64.4085 228.727 63.166 230.706 62.9973V61.5861H231.933V63.028C233.191 63.1507 234.219 63.6415 235.017 64.4085L233.989 65.743C233.421 65.1755 232.7 64.8227 231.933 64.6693V67.3076C233.529 67.7371 235.247 68.3353 235.247 70.3908ZM229.295 65.8504C229.295 66.4486 229.893 66.7554 230.706 66.9855V64.5926C229.832 64.6846 229.295 65.1601 229.295 65.8504ZM231.933 71.9094C232.992 71.756 233.421 71.1424 233.421 70.5595C233.421 69.8539 232.792 69.5318 231.933 69.271V71.9094ZM241.19 73.3666V71.0504H236.312V69.6085L240.515 63.1353H242.985V69.4704H244.35V71.0504H242.985V73.3666H241.19ZM241.19 64.746L238.076 69.4704H241.19V64.746ZM245.425 70.7436C245.425 69.4397 246.483 68.5041 247.726 68.0899C246.575 67.7218 245.594 66.9701 245.594 65.6663C245.594 63.7796 247.526 62.9819 249.352 62.9819C251.146 62.9819 253.11 63.7796 253.11 65.6663C253.11 66.9701 252.113 67.7218 250.962 68.0899C252.205 68.5041 253.263 69.4397 253.263 70.7436C253.263 72.5689 251.438 73.5506 249.352 73.5506C247.25 73.5506 245.425 72.5843 245.425 70.7436ZM251.284 65.9424C251.284 65.0834 250.441 64.5772 249.352 64.5772C248.232 64.5772 247.404 65.0834 247.404 65.9424C247.404 66.9088 248.723 67.2769 249.352 67.3843C249.981 67.2769 251.284 66.9088 251.284 65.9424ZM251.453 70.5135C251.453 69.4551 249.981 68.9796 249.352 68.9029C248.707 68.9796 247.235 69.4551 247.235 70.5135C247.235 71.4032 248.186 71.9554 249.352 71.9554C250.487 71.9554 251.453 71.4032 251.453 70.5135ZM254.701 72.4616C254.701 71.8787 255.192 71.3878 255.775 71.3878C256.358 71.3878 256.848 71.8787 256.848 72.4616C256.848 73.0445 256.358 73.5353 255.775 73.5353C255.192 73.5353 254.701 73.0445 254.701 72.4616ZM258.522 71.9707L259.55 70.7436C260.24 71.5259 261.161 71.9554 262.311 71.9554C263.599 71.9554 264.412 71.1577 264.412 70.1607C264.412 69.0563 263.615 68.3353 262.357 68.3353C261.483 68.3353 260.762 68.6114 260.117 69.225L258.844 68.8569V63.1353H265.548V64.7153H260.639V67.6757C261.13 67.1849 261.973 66.7861 262.955 66.7861C264.673 66.7861 266.222 67.9979 266.222 70.084C266.222 72.2161 264.612 73.5506 262.326 73.5506C260.562 73.5506 259.35 72.9524 258.522 71.9707ZM267.49 68.274C267.49 65.3135 269.039 62.9819 271.999 62.9819C273.272 62.9819 274.254 63.4421 274.944 64.117L274.101 65.4822C273.564 64.9147 272.981 64.5772 271.999 64.5772C270.297 64.5772 269.3 66.1572 269.3 67.9518C269.3 68.0592 269.3 68.1513 269.315 68.2433C269.775 67.553 270.849 66.8167 272.061 66.8167C273.901 66.8167 275.481 67.9365 275.481 70.1147C275.481 72.0167 273.993 73.5506 271.708 73.5506C268.701 73.5506 267.49 71.1117 267.49 68.274ZM273.671 70.176C273.671 68.9182 272.69 68.3507 271.57 68.3507C270.695 68.3507 269.852 68.8262 269.33 69.5625C269.438 70.6669 270.036 71.9554 271.616 71.9554C272.966 71.9554 273.671 71.0043 273.671 70.176ZM276.702 68.2586C276.702 65.6816 277.929 62.9819 280.798 62.9819C283.666 62.9819 284.893 65.6816 284.893 68.2586C284.893 70.8356 283.666 73.5506 280.798 73.5506C277.929 73.5506 276.702 70.8356 276.702 68.2586ZM283.068 68.2586C283.068 66.3106 282.47 64.5772 280.798 64.5772C279.126 64.5772 278.527 66.3106 278.527 68.2586C278.527 70.2067 279.126 71.9554 280.798 71.9554C282.47 71.9554 283.068 70.2067 283.068 68.2586ZM286.731 75.4067L286.01 74.8085C286.501 74.517 287.007 73.8881 287.115 73.3666C287.069 73.3819 286.946 73.4126 286.854 73.4126C286.332 73.4126 285.934 73.0138 285.934 72.4462C285.934 71.8633 286.409 71.3878 286.977 71.3878C287.606 71.3878 288.173 71.894 288.173 72.7837C288.173 73.8421 287.575 74.8085 286.731 75.4067ZM289.663 73.3666V71.9554C293.636 68.9489 295.185 67.6144 295.185 66.1418C295.185 65.0681 294.265 64.5772 293.329 64.5772C292.132 64.5772 291.212 65.0681 290.568 65.8044L289.525 64.6232C290.43 63.5342 291.872 62.9819 293.298 62.9819C295.277 62.9819 297.01 64.1017 297.01 66.1418C297.01 68.0285 295.277 69.7159 292.531 71.7866H297.072V73.3666H289.663ZM300.964 73.3666V65.4669L299.292 67.2002L298.248 66.1111L301.194 63.1353H302.758V73.3666H300.964Z" fill="#17181A"/>
<rect width="580" height="231" transform="translate(25.4768 20.4768)" fill="url(#paint2_linear_103_2217)"/>
<defs>
<linearGradient id="paint0_linear_103_2217" x1="315.477" y1="0.476807" x2="315.477" y2="276.881" gradientUnits="userSpaceOnUse">
<stop stop-color="#1D1D1D"/>
<stop offset="1" stop-color="#0A0A0A"/>
</linearGradient>
<linearGradient id="paint1_linear_103_2217" x1="334.293" y1="75.5173" x2="334.293" y2="256.823" gradientUnits="userSpaceOnUse">
<stop stop-color="#75A941"/>
<stop offset="1" stop-color="#3A7500"/>
</linearGradient>
<linearGradient id="paint2_linear_103_2217" x1="290" y1="0" x2="290" y2="231" gradientUnits="userSpaceOnUse">
<stop stop-color="#111111" stop-opacity="0"/>
<stop offset="1" stop-color="#0A0A0A" stop-opacity="0.7"/>
</linearGradient>
</defs>
</svg>
