<svg width="138" height="34" viewBox="0 0 138 34" fill="none" xmlns="http://www.w3.org/2000/svg">
<g clip-path="url(#clip0_21_339)">
<path d="M41.919 23.0363H51.5799V20.089H45.3527V8.98755H41.919V23.0363Z" fill="#A3A1A3"/>
<path d="M57.3036 21.0715C55.9263 21.0715 55.2085 19.8533 55.2085 18.026C55.2085 16.1986 55.9263 14.9608 57.3036 14.9608C58.681 14.9608 59.4181 16.1986 59.4181 18.026C59.4181 19.8533 58.681 21.0715 57.3036 21.0715ZM57.323 23.3507C60.5239 23.3507 62.6191 21.0518 62.6191 18.026C62.6191 15.0001 60.5239 12.7012 57.323 12.7012C54.1415 12.7012 52.0076 15.0001 52.0076 18.026C52.0076 21.0518 54.1415 23.3507 57.323 23.3507Z" fill="#A3A1A3"/>
<path d="M68.1596 26.5142C69.6339 26.5142 70.9337 26.1802 71.8067 25.3943C72.602 24.6673 73.1258 23.5669 73.1258 22.054V12.9763H70.0995V14.057H70.0607C69.4787 13.2121 68.5864 12.6816 67.2672 12.6816C64.8035 12.6816 63.0963 14.7643 63.0963 17.7116C63.0963 20.7965 65.1721 22.4863 67.403 22.4863C68.6058 22.4863 69.3623 21.995 69.9443 21.327H70.0219V22.3291C70.0219 23.5473 69.4593 24.2546 68.1208 24.2546C67.0732 24.2546 66.5494 23.8027 66.3748 23.2722H63.3097C63.6201 25.3746 65.4242 26.5142 68.1596 26.5142ZM68.1402 20.1088C66.9568 20.1088 66.1808 19.1263 66.1808 17.6134C66.1808 16.0808 66.9568 15.0984 68.1402 15.0984C69.4593 15.0984 70.1577 16.238 70.1577 17.5937C70.1577 19.0084 69.5175 20.1088 68.1402 20.1088Z" fill="#A3A1A3"/>
<path d="M79.3485 21.0715C77.9711 21.0715 77.2533 19.8533 77.2533 18.026C77.2533 16.1986 77.9711 14.9608 79.3485 14.9608C80.7258 14.9608 81.463 16.1986 81.463 18.026C81.463 19.8533 80.7258 21.0715 79.3485 21.0715ZM79.3679 23.3507C82.5688 23.3507 84.6639 21.0518 84.6639 18.026C84.6639 15.0001 82.5688 12.7012 79.3679 12.7012C76.1864 12.7012 74.0524 15.0001 74.0524 18.026C74.0524 21.0518 76.1864 23.3507 79.3679 23.3507Z" fill="#A3A1A3"/>
<path d="M85.587 23.0363H88.7491V12.9762H85.587V23.0363ZM85.587 11.5812H88.7491V8.98755H85.587V11.5812Z" fill="#A3A1A3"/>
<path d="M90.1216 26.357H93.2837V21.995H93.3225C93.9433 22.8399 94.8551 23.3508 96.1355 23.3508C98.735 23.3508 100.462 21.268 100.462 18.0064C100.462 14.9805 98.8514 12.6816 96.2131 12.6816C94.8551 12.6816 93.8851 13.2907 93.2061 14.1945H93.1479V12.9763H90.1216V26.357ZM95.3207 20.8751C93.9627 20.8751 93.1868 19.7551 93.1868 18.1243C93.1868 16.4934 93.8851 15.2556 95.2625 15.2556C96.6204 15.2556 97.2606 16.3952 97.2606 18.1243C97.2606 19.8337 96.5235 20.8751 95.3207 20.8751Z" fill="#A3A1A3"/>
<path d="M105.61 23.3508C108.209 23.3508 110.13 22.2112 110.13 20.0105C110.13 17.4366 108.073 16.9846 106.327 16.6899C105.066 16.4541 103.941 16.3559 103.941 15.6485C103.941 15.0198 104.543 14.725 105.319 14.725C106.192 14.725 106.793 15.0001 106.909 15.904H109.819C109.664 13.9194 108.151 12.6816 105.338 12.6816C102.991 12.6816 101.051 13.7819 101.051 15.904C101.051 18.2618 102.894 18.7334 104.62 19.0281C105.939 19.2639 107.142 19.3621 107.142 20.266C107.142 20.9144 106.541 21.268 105.59 21.268C104.543 21.268 103.883 20.7768 103.767 19.7747H100.779C100.876 21.995 102.7 23.3508 105.61 23.3508Z" fill="#A3A1A3"/>
<path d="M114.425 23.3311C115.802 23.3311 116.675 22.7809 117.393 21.7985H117.451V23.0364H120.478V12.9763H117.316V18.5958C117.316 19.7943 116.656 20.6196 115.57 20.6196C114.561 20.6196 114.076 20.0105 114.076 18.9101V12.9763H110.933V19.5782C110.933 21.8181 112.136 23.3311 114.425 23.3311Z" fill="#A3A1A3"/>
<path d="M121.853 23.0364H125.015V17.3973C125.015 16.1987 125.597 15.3538 126.586 15.3538C127.537 15.3538 127.983 15.9826 127.983 17.0632V23.0364H131.145V17.3973C131.145 16.1987 131.708 15.3538 132.716 15.3538C133.667 15.3538 134.113 15.9826 134.113 17.0632V23.0364H137.275V16.4934C137.275 14.2338 136.15 12.6816 133.9 12.6816C132.619 12.6816 131.552 13.2317 130.776 14.45H130.738C130.233 13.3693 129.244 12.6816 127.944 12.6816C126.509 12.6816 125.558 13.3693 124.937 14.4107H124.879V12.9763H121.853V23.0364Z" fill="#A3A1A3"/>
<path fill-rule="evenodd" clip-rule="evenodd" d="M16.7191 32.8606C25.6475 32.8606 32.8853 25.5298 32.8853 16.4868C32.8853 7.44375 25.6475 0.112915 16.7191 0.112915C7.79075 0.112915 0.552917 7.44375 0.552917 16.4868C0.552917 25.5298 7.79075 32.8606 16.7191 32.8606ZM21.7624 7.74055C22.0079 6.85735 21.1617 6.33509 20.3888 6.89276L9.60042 14.6771C8.76228 15.2819 8.89412 16.4868 9.79846 16.4868H12.6393V16.4645H18.1761L13.6647 18.0767L11.6758 25.233C11.4304 26.1162 12.2765 26.6385 13.0494 26.0808L23.8378 18.2965C24.676 17.6917 24.544 16.4868 23.6398 16.4868H19.3317L21.7624 7.74055Z" fill="#A3A1A3"/>
</g>
<defs>
<clipPath id="clip0_21_339">
<rect width="137.413" height="33.5664" fill="white"/>
</clipPath>
</defs>
</svg>
