<svg width="139" height="34" viewBox="0 0 139 34" fill="none" xmlns="http://www.w3.org/2000/svg">
<g clip-path="url(#clip0_21_350)">
<path d="M41.7645 24.0067H51.4992V21.0594H45.2244V9.95789H41.7645V24.0067Z" fill="#A3A1A3"/>
<path d="M57.2666 22.0418C55.8787 22.0418 55.1555 20.8236 55.1555 18.9963C55.1555 17.169 55.8787 15.9311 57.2666 15.9311C58.6545 15.9311 59.3973 17.169 59.3973 18.9963C59.3973 20.8236 58.6545 22.0418 57.2666 22.0418ZM57.2861 24.3211C60.5115 24.3211 62.6226 22.0222 62.6226 18.9963C62.6226 15.9704 60.5115 13.6715 57.2861 13.6715C54.0803 13.6715 51.9301 15.9704 51.9301 18.9963C51.9301 22.0222 54.0803 24.3211 57.2861 24.3211Z" fill="#A3A1A3"/>
<path d="M68.2054 27.4844C69.691 27.4844 71.0006 27.1504 71.8803 26.3645C72.6817 25.6375 73.2095 24.5371 73.2095 23.0242V13.9465H70.1601V15.0272H70.121C69.5346 14.1823 68.6354 13.6518 67.3062 13.6518C64.8236 13.6518 63.1035 15.7346 63.1035 18.6818C63.1035 21.7667 65.195 23.4565 67.443 23.4565C68.655 23.4565 69.4173 22.9653 70.0037 22.2972H70.0819V23.2993C70.0819 24.5175 69.515 25.2248 68.1663 25.2248C67.1107 25.2248 66.5829 24.7729 66.407 24.2424H63.3185C63.6312 26.3448 65.4492 27.4844 68.2054 27.4844ZM68.1858 21.079C66.9934 21.079 66.2115 20.0965 66.2115 18.5836C66.2115 17.051 66.9934 16.0686 68.1858 16.0686C69.515 16.0686 70.2187 17.2082 70.2187 18.564C70.2187 19.9787 69.5737 21.079 68.1858 21.079Z" fill="#A3A1A3"/>
<path d="M79.4797 22.0418C78.0918 22.0418 77.3686 20.8236 77.3686 18.9963C77.3686 17.169 78.0918 15.9311 79.4797 15.9311C80.8676 15.9311 81.61 17.169 81.61 18.9963C81.61 20.8236 80.8676 22.0418 79.4797 22.0418ZM79.4992 24.3211C82.7242 24.3211 84.8354 22.0222 84.8354 18.9963C84.8354 15.9704 82.7242 13.6715 79.4992 13.6715C76.2934 13.6715 74.1432 15.9704 74.1432 18.9963C74.1432 22.0222 76.2934 24.3211 79.4992 24.3211Z" fill="#A3A1A3"/>
<path d="M85.7664 24.0067H88.9526V13.9466H85.7664V24.0067ZM85.7664 12.5515H88.9526V9.95789H85.7664V12.5515Z" fill="#A3A1A3"/>
<path d="M90.3348 27.3273H93.521V22.9653H93.5601C94.1856 23.8101 95.1044 24.321 96.3945 24.321C99.0139 24.321 100.754 22.2383 100.754 18.9766C100.754 15.9507 99.1312 13.6518 96.4727 13.6518C95.1044 13.6518 94.127 14.2609 93.4428 15.1647H93.3842V13.9465H90.3348V27.3273ZM95.5735 21.8453C94.2052 21.8453 93.4233 20.7253 93.4233 19.0945C93.4233 17.4636 94.127 16.2258 95.5149 16.2258C96.8832 16.2258 97.5283 17.3654 97.5283 19.0945C97.5283 20.8039 96.7855 21.8453 95.5735 21.8453Z" fill="#A3A1A3"/>
<path d="M105.941 24.321C108.56 24.321 110.496 23.1814 110.496 20.9807C110.496 18.4068 108.424 17.9548 106.664 17.6601C105.394 17.4243 104.26 17.3261 104.26 16.6187C104.26 15.99 104.866 15.6953 105.648 15.6953C106.527 15.6953 107.133 15.9703 107.251 16.8742H110.183C110.026 14.8897 108.502 13.6518 105.667 13.6518C103.302 13.6518 101.347 14.7521 101.347 16.8742C101.347 19.232 103.204 19.7036 104.944 19.9983C106.273 20.2341 107.485 20.3323 107.485 21.2362C107.485 21.8846 106.879 22.2383 105.921 22.2383C104.866 22.2383 104.201 21.747 104.084 20.745H101.074C101.171 22.9653 103.009 24.321 105.941 24.321Z" fill="#A3A1A3"/>
<path d="M114.824 24.3015C116.212 24.3015 117.091 23.7513 117.814 22.7689H117.873V24.0068H120.923V13.9467H117.736V19.5662C117.736 20.7647 117.072 21.59 115.977 21.59C114.961 21.59 114.472 20.9809 114.472 19.8805V13.9467H111.305V20.5486C111.305 22.7885 112.517 24.3015 114.824 24.3015Z" fill="#A3A1A3"/>
<path d="M122.309 24.0066H125.495V18.3675C125.495 17.1689 126.081 16.324 127.078 16.324C128.036 16.324 128.486 16.9528 128.486 18.0334V24.0066H131.672V18.3675C131.672 17.1689 132.239 16.324 133.255 16.324C134.213 16.324 134.663 16.9528 134.663 18.0334V24.0066H137.849V17.4636C137.849 15.204 136.715 13.6518 134.448 13.6518C133.158 13.6518 132.082 14.202 131.301 15.4202H131.262C130.753 14.3395 129.756 13.6518 128.447 13.6518C127 13.6518 126.042 14.3395 125.417 15.3809H125.358V13.9465H122.309V24.0066Z" fill="#A3A1A3"/>
<path fill-rule="evenodd" clip-rule="evenodd" d="M16.3722 33.0123C25.3688 33.0123 32.6618 25.6815 32.6618 16.6384C32.6618 7.59541 25.3688 0.264587 16.3722 0.264587C7.37573 0.264587 0.0826416 7.59541 0.0826416 16.6384C0.0826416 25.6815 7.37573 33.0123 16.3722 33.0123ZM18.8865 12.9155C20.275 11.5197 20.275 9.25675 18.8865 7.86096C17.4979 6.46519 15.2466 6.46519 13.858 7.86096C12.4695 9.25675 12.4695 11.5197 13.858 12.9155L16.3722 15.4427L18.8865 12.9155ZM20.076 19.1657C21.4647 20.5615 23.716 20.5615 25.1046 19.1657C26.4931 17.7699 26.4931 15.507 25.1046 14.1112C23.716 12.7155 21.4647 12.7155 20.076 14.1112L17.5618 16.6385L20.076 19.1657ZM18.8865 25.416C20.275 24.0202 20.275 21.7572 18.8865 20.3614L16.3722 17.8342L13.858 20.3614C12.4695 21.7572 12.4695 24.0202 13.858 25.416C15.2466 26.8118 17.4979 26.8118 18.8865 25.416ZM7.6399 19.1657C6.25134 17.7699 6.25134 15.507 7.6399 14.1112C9.02853 12.7155 11.2798 12.7155 12.6684 14.1112L15.1827 16.6385L12.6684 19.1657C11.2798 20.5615 9.02853 20.5615 7.6399 19.1657Z" fill="#A3A1A3"/>
</g>
<defs>
<clipPath id="clip0_21_350">
<rect width="138.462" height="33.5664" fill="white"/>
</clipPath>
</defs>
</svg>
