<svg width="136" height="34" viewBox="0 0 136 34" fill="none" xmlns="http://www.w3.org/2000/svg">
<path d="M39.4039 23.5731H49.0882V20.6258H42.8459V9.52435H39.4039V23.5731Z" fill="#A3A1A3"/>
<path d="M54.8258 21.6082C53.4451 21.6082 52.7256 20.39 52.7256 18.5627C52.7256 16.7354 53.4451 15.4975 54.8258 15.4975C56.2065 15.4975 56.9455 16.7354 56.9455 18.5627C56.9455 20.39 56.2065 21.6082 54.8258 21.6082ZM54.8453 23.8875C58.0539 23.8875 60.1542 21.5886 60.1542 18.5627C60.1542 15.5368 58.0539 13.2379 54.8453 13.2379C51.6561 13.2379 49.517 15.5368 49.517 18.5627C49.517 21.5886 51.6561 23.8875 54.8453 23.8875Z" fill="#A3A1A3"/>
<path d="M65.7082 27.051C67.1861 27.051 68.489 26.7169 69.3641 25.931C70.1614 25.204 70.6865 24.1037 70.6865 22.5907V13.5131H67.6528V14.5937H67.614C67.0306 13.7488 66.136 13.2183 64.8137 13.2183C62.344 13.2183 60.6327 15.3011 60.6327 18.2484C60.6327 21.3332 62.7135 23.023 64.9498 23.023C66.1555 23.023 66.9139 22.5318 67.4973 21.8637H67.5751V22.8658C67.5751 24.084 67.0111 24.7914 65.6693 24.7914C64.6192 24.7914 64.0942 24.3395 63.9191 23.8089H60.8466C61.1577 25.9113 62.9663 27.051 65.7082 27.051ZM65.6888 20.6455C64.5025 20.6455 63.7247 19.6631 63.7247 18.1501C63.7247 16.6175 64.5025 15.6351 65.6888 15.6351C67.0111 15.6351 67.7112 16.7747 67.7112 18.1305C67.7112 19.5452 67.0695 20.6455 65.6888 20.6455Z" fill="#A3A1A3"/>
<path d="M76.9241 21.6082C75.5434 21.6082 74.8239 20.39 74.8239 18.5627C74.8239 16.7354 75.5434 15.4975 76.9241 15.4975C78.3048 15.4975 79.0438 16.7354 79.0438 18.5627C79.0438 20.39 78.3048 21.6082 76.9241 21.6082ZM76.9436 23.8875C80.1522 23.8875 82.2527 21.5886 82.2527 18.5627C82.2527 15.5368 80.1522 13.2379 76.9436 13.2379C73.7543 13.2379 71.6152 15.5368 71.6152 18.5627C71.6152 21.5886 73.7543 23.8875 76.9436 23.8875Z" fill="#A3A1A3"/>
<path d="M83.178 23.5731H86.3477V13.513H83.178V23.5731ZM83.178 12.118H86.3477V9.52435H83.178V12.118Z" fill="#A3A1A3"/>
<path d="M87.7228 26.8938H90.8925V22.5318H90.9314C91.5537 23.3767 92.4677 23.8875 93.7512 23.8875C96.357 23.8875 98.0877 21.8048 98.0877 18.5431C98.0877 15.5172 96.4737 13.2183 93.829 13.2183C92.4677 13.2183 91.4954 13.8274 90.8148 14.7313H90.7564V13.5131H87.7228V26.8938ZM92.9344 21.4118C91.5732 21.4118 90.7953 20.2918 90.7953 18.661C90.7953 17.0302 91.4954 15.7923 92.8761 15.7923C94.2373 15.7923 94.8791 16.9319 94.8791 18.661C94.8791 20.3704 94.1401 21.4118 92.9344 21.4118Z" fill="#A3A1A3"/>
<path d="M103.249 23.8875C105.855 23.8875 107.78 22.7479 107.78 20.5473C107.78 17.9733 105.719 17.5214 103.969 17.2266C102.705 16.9909 101.577 16.8926 101.577 16.1853C101.577 15.5565 102.18 15.2618 102.957 15.2618C103.833 15.2618 104.435 15.5369 104.552 16.4407H107.469C107.313 14.4562 105.797 13.2183 102.977 13.2183C100.624 13.2183 98.6792 14.3186 98.6792 16.4407C98.6792 18.7985 100.527 19.2701 102.257 19.5648C103.58 19.8006 104.785 19.8989 104.785 20.8027C104.785 21.4511 104.183 21.8048 103.23 21.8048C102.18 21.8048 101.518 21.3136 101.402 20.3115H98.407C98.5042 22.5318 100.332 23.8875 103.249 23.8875Z" fill="#A3A1A3"/>
<path d="M112.085 23.8679C113.466 23.8679 114.341 23.3177 115.06 22.3353H115.119V23.5732H118.152V13.5131H114.983V19.1326C114.983 20.3311 114.321 21.1564 113.232 21.1564C112.221 21.1564 111.735 20.5473 111.735 19.447V13.5131H108.585V20.115C108.585 22.355 109.79 23.8679 112.085 23.8679Z" fill="#A3A1A3"/>
<path d="M119.531 23.5732H122.701V17.934C122.701 16.7354 123.285 15.8905 124.276 15.8905C125.229 15.8905 125.677 16.5193 125.677 17.6V23.5732H128.846V17.934C128.846 16.7354 129.41 15.8905 130.421 15.8905C131.374 15.8905 131.822 16.5193 131.822 17.6V23.5732H134.991V17.0302C134.991 14.7706 133.864 13.2183 131.608 13.2183C130.324 13.2183 129.255 13.7685 128.477 14.9867H128.438C127.932 13.906 126.941 13.2183 125.638 13.2183C124.199 13.2183 123.246 13.906 122.623 14.9474H122.565V13.5131H119.531V23.5732Z" fill="#A3A1A3"/>
<path fill-rule="evenodd" clip-rule="evenodd" d="M7.01215 3.18584C5.85293 4.00483 4.80469 4.97314 3.89472 6.06317C7.61328 5.71435 12.3376 6.28393 17.8224 9.0549C23.6795 12.0138 28.3959 12.1139 31.6783 11.4741C31.3805 10.563 31.0055 9.68734 30.5614 8.8549C26.8039 9.25532 21.9869 8.7253 16.373 5.88926C12.8082 4.0883 9.6658 3.34642 7.01215 3.18584ZM28.3665 5.69823C25.3992 2.34843 21.087 0.240295 16.2875 0.240295C14.878 0.240295 13.5104 0.422133 12.2067 0.763834C13.9725 1.25063 15.8482 1.96281 17.8224 2.96021C21.9326 5.03663 25.4811 5.7052 28.3665 5.69823ZM32.3801 14.6723C28.4147 15.4635 22.9388 15.301 16.373 11.9839C10.2348 8.88289 5.34924 8.92195 2.05426 9.6618C1.88419 9.69995 1.71812 9.74007 1.55605 9.78182C1.12466 10.7298 0.780307 11.7266 0.533231 12.7618C0.797122 12.6906 1.06981 12.6229 1.35116 12.5596C5.34854 11.6621 10.9965 11.7011 17.8224 15.1496C23.9608 18.2506 28.8463 18.2116 32.1413 17.4717C32.2542 17.4464 32.3654 17.4202 32.4748 17.3932C32.4868 17.1351 32.4928 16.8753 32.4928 16.6141C32.4928 15.9571 32.4546 15.3091 32.3801 14.6723ZM31.9457 20.8487C28.0188 21.5424 22.7024 21.2761 16.373 18.0786C10.2348 14.9776 5.34924 15.0166 2.05426 15.7565C1.32288 15.9206 0.664929 16.1206 0.0845274 16.3318C0.082945 16.4257 0.0821533 16.5198 0.0821533 16.6141C0.0821533 25.6572 7.33752 32.988 16.2875 32.988C23.7882 32.988 30.0987 27.8392 31.9457 20.8487Z" fill="#A3A1A3"/>
</svg>
