<svg width="111" height="34" viewBox="0 0 111 34" fill="none" xmlns="http://www.w3.org/2000/svg">
<path fill-rule="evenodd" clip-rule="evenodd" d="M16.538 33.0759C25.6716 33.0759 33.0759 25.6716 33.0759 16.5379C33.0759 7.4043 25.6716 0 16.538 0C7.40428 0 0 7.4043 0 16.5379C0 25.6716 7.40428 33.0759 16.538 33.0759ZM21.6972 7.70408C21.9484 6.81203 21.0827 6.28453 20.2921 6.84779L9.25557 14.7102C8.39816 15.321 8.53302 16.5379 9.45816 16.5379H12.3644V16.5154H18.0285L13.4133 18.1439L11.3787 25.3719C11.1276 26.2639 11.9932 26.7914 12.7839 26.2281L23.8204 18.3658C24.6778 17.755 24.5428 16.5379 23.6178 16.5379H19.2106L21.6972 7.70408Z" fill="#25DD22"/>
<path d="M47.692 8.18404H50.486L59.198 20.02L58.428 20.284V8.18404H61.2881V23.584H58.472L49.804 11.77L50.574 11.506V23.584H47.692V8.18404ZM72.9049 16.83C72.8756 16.214 72.7362 15.6934 72.4869 15.268C72.2376 14.828 71.8856 14.4907 71.4309 14.256C70.9909 14.0067 70.4849 13.882 69.9129 13.882C69.2529 13.882 68.6809 14.036 68.1969 14.344C67.7129 14.652 67.3316 15.0847 67.0529 15.642C66.7889 16.1994 66.6569 16.8447 66.6569 17.578C66.6569 18.3847 66.8036 19.0814 67.0969 19.668C67.4049 20.2547 67.8229 20.7094 68.3509 21.032C68.8789 21.34 69.4876 21.494 70.1769 21.494C71.4236 21.494 72.4869 21.0467 73.3669 20.152L74.8849 21.67C74.2982 22.3154 73.5869 22.814 72.7509 23.166C71.9149 23.518 70.9836 23.694 69.9569 23.694C68.7249 23.694 67.6542 23.4447 66.7449 22.946C65.8502 22.4327 65.1462 21.736 64.6329 20.856C64.1342 19.9614 63.8849 18.92 63.8849 17.732C63.8849 16.544 64.1342 15.5027 64.6329 14.608C65.1462 13.7134 65.8502 13.0167 66.7449 12.518C67.6542 12.0194 68.6956 11.7627 69.8689 11.748C71.2622 11.748 72.3842 12.034 73.2349 12.606C74.1002 13.178 74.7162 13.9847 75.0829 15.026C75.4496 16.0527 75.5816 17.2774 75.4789 18.7H66.2389V16.83H72.9049ZM83.1304 11.748C84.3478 11.748 85.4184 11.9974 86.3424 12.496C87.2811 12.9947 88.0071 13.6914 88.5204 14.586C89.0484 15.4807 89.3124 16.522 89.3124 17.71C89.3124 18.898 89.0484 19.9394 88.5204 20.834C88.0071 21.7287 87.2811 22.4327 86.3424 22.946C85.4184 23.4447 84.3478 23.694 83.1304 23.694C81.8984 23.694 80.8131 23.4447 79.8744 22.946C78.9358 22.4327 78.2024 21.7287 77.6744 20.834C77.1611 19.9394 76.9044 18.898 76.9044 17.71C76.9044 16.522 77.1611 15.4807 77.6744 14.586C78.2024 13.6914 78.9358 12.9947 79.8744 12.496C80.8131 11.9974 81.8984 11.748 83.1304 11.748ZM83.1304 14.058C82.4704 14.058 81.8838 14.2194 81.3704 14.542C80.8718 14.85 80.4831 15.2827 80.2044 15.84C79.9258 16.3827 79.7864 17.0134 79.7864 17.732C79.7864 18.4654 79.9258 19.1107 80.2044 19.668C80.4831 20.2254 80.8718 20.658 81.3704 20.966C81.8838 21.274 82.4704 21.428 83.1304 21.428C83.7758 21.428 84.3478 21.274 84.8464 20.966C85.3451 20.658 85.7338 20.2254 86.0124 19.668C86.2911 19.1107 86.4304 18.4654 86.4304 17.732C86.4304 17.0134 86.2911 16.3827 86.0124 15.84C85.7338 15.2827 85.3451 14.85 84.8464 14.542C84.3478 14.2194 83.7758 14.058 83.1304 14.058ZM91.9069 8.18404H102.533V10.648H94.8549V14.938H101.829V17.38H94.8549V23.584H91.9069V8.18404ZM104.623 11.858H107.483V23.584H104.623V11.858ZM106.031 6.86404C106.5 6.86404 106.889 7.01804 107.197 7.32604C107.505 7.63404 107.659 8.02271 107.659 8.49204C107.659 8.94671 107.505 9.33537 107.197 9.65804C106.889 9.96604 106.5 10.12 106.031 10.12C105.576 10.12 105.195 9.96604 104.887 9.65804C104.579 9.33537 104.425 8.94671 104.425 8.49204C104.425 8.02271 104.579 7.63404 104.887 7.32604C105.195 7.01804 105.576 6.86404 106.031 6.86404Z" fill="white"/>
</svg>
