<svg width="137" height="34" viewBox="0 0 137 34" fill="none" xmlns="http://www.w3.org/2000/svg">
<g clip-path="url(#clip0_21_323)">
<path d="M39.998 23.7031H49.6993V20.7558H43.4461V9.6543H39.998V23.7031Z" fill="#A3A1A3"/>
<path d="M55.4471 21.7383C54.064 21.7383 53.3432 20.5201 53.3432 18.6928C53.3432 16.8654 54.064 15.6276 55.4471 15.6276C56.8302 15.6276 57.5705 16.8654 57.5705 18.6928C57.5705 20.5201 56.8302 21.7383 55.4471 21.7383ZM55.4666 24.0175C58.6809 24.0175 60.7848 21.7187 60.7848 18.6928C60.7848 15.6669 58.6809 13.368 55.4666 13.368C52.2718 13.368 50.1289 15.6669 50.1289 18.6928C50.1289 21.7187 52.2718 24.0175 55.4666 24.0175Z" fill="#A3A1A3"/>
<path d="M66.3483 27.1809C67.8289 27.1809 69.134 26.8469 70.0107 26.0609C70.8094 25.3339 71.3353 24.2336 71.3353 22.7207V13.643H68.2964V14.7237H68.2574C67.673 13.8788 66.7769 13.3483 65.4522 13.3483C62.9782 13.3483 61.2639 15.431 61.2639 18.3783C61.2639 21.4632 63.3483 23.1529 65.5886 23.1529C66.7964 23.1529 67.5561 22.6617 68.1405 21.9937H68.2185V22.9958C68.2185 24.214 67.6535 24.9213 66.3094 24.9213C65.2574 24.9213 64.7314 24.4694 64.5561 23.9389H61.4782C61.7899 26.0413 63.6016 27.1809 66.3483 27.1809ZM66.3289 20.7755C65.1405 20.7755 64.3613 19.793 64.3613 18.2801C64.3613 16.7475 65.1405 15.765 66.3289 15.765C67.6535 15.765 68.3548 16.9047 68.3548 18.2604C68.3548 19.6751 67.712 20.7755 66.3289 20.7755Z" fill="#A3A1A3"/>
<path d="M77.5841 21.7383C76.2009 21.7383 75.4802 20.5201 75.4802 18.6928C75.4802 16.8654 76.2009 15.6276 77.5841 15.6276C78.9672 15.6276 79.7074 16.8654 79.7074 18.6928C79.7074 20.5201 78.9672 21.7383 77.5841 21.7383ZM77.6035 24.0175C80.8178 24.0175 82.9213 21.7187 82.9213 18.6928C82.9213 15.6669 80.8178 13.368 77.6035 13.368C74.4087 13.368 72.2659 15.6669 72.2659 18.6928C72.2659 21.7187 74.4087 24.0175 77.6035 24.0175Z" fill="#A3A1A3"/>
<path d="M83.8491 23.7031H87.0244V13.643H83.8491V23.7031ZM83.8491 12.2479H87.0244V9.6543H83.8491V12.2479Z" fill="#A3A1A3"/>
<path d="M88.4017 27.0237H91.5771V22.6617H91.616C92.2394 23.5066 93.155 24.0175 94.4407 24.0175C97.0511 24.0175 98.7849 21.9347 98.7849 18.673C98.7849 15.6472 97.168 13.3483 94.5186 13.3483C93.155 13.3483 92.1809 13.9574 91.4991 14.8612H91.4407V13.643H88.4017V27.0237ZM93.6225 21.5418C92.2589 21.5418 91.4797 20.4218 91.4797 18.7909C91.4797 17.1601 92.181 15.9222 93.5641 15.9222C94.9277 15.9222 95.5706 17.0619 95.5706 18.7909C95.5706 20.5004 94.8303 21.5418 93.6225 21.5418Z" fill="#A3A1A3"/>
<path d="M103.955 24.0175C106.565 24.0175 108.494 22.8779 108.494 20.6772C108.494 18.1032 106.429 17.6513 104.675 17.3566C103.409 17.1208 102.279 17.0226 102.279 16.3152C102.279 15.6865 102.883 15.3917 103.662 15.3917C104.539 15.3917 105.143 15.6668 105.26 16.5706H108.182C108.026 14.5861 106.507 13.3483 103.682 13.3483C101.325 13.3483 99.3767 14.4486 99.3767 16.5706C99.3767 18.9285 101.227 19.4 102.961 19.6948C104.286 19.9306 105.494 20.0288 105.494 20.9326C105.494 21.581 104.89 21.9347 103.935 21.9347C102.883 21.9347 102.221 21.4435 102.104 20.4414H99.1039C99.2013 22.6617 101.033 24.0175 103.955 24.0175Z" fill="#A3A1A3"/>
<path d="M112.807 23.9978C114.19 23.9978 115.067 23.4477 115.787 22.4652H115.846V23.7031H118.885V13.643H115.709V19.2625C115.709 20.4611 115.047 21.2863 113.956 21.2863C112.943 21.2863 112.456 20.6772 112.456 19.5769V13.643H109.3V20.2449C109.3 22.4849 110.508 23.9978 112.807 23.9978Z" fill="#A3A1A3"/>
<path d="M120.266 23.7031H123.442V18.0639C123.442 16.8654 124.026 16.0205 125.019 16.0205C125.974 16.0205 126.422 16.6492 126.422 17.7299V23.7031H129.597V18.0639C129.597 16.8654 130.162 16.0205 131.175 16.0205C132.13 16.0205 132.578 16.6492 132.578 17.7299V23.7031H135.753V17.1601C135.753 14.9005 134.623 13.3483 132.364 13.3483C131.078 13.3483 130.006 13.8984 129.227 15.1166H129.188C128.682 14.036 127.688 13.3483 126.383 13.3483C124.942 13.3483 123.987 14.036 123.364 15.0773H123.305V13.643H120.266V23.7031Z" fill="#A3A1A3"/>
<path d="M20.625 1.6184L17.4326 0.755615L14.7424 10.8825L12.3135 1.73988L9.1211 2.60267L11.7453 12.4806L5.20905 5.88799L2.87205 8.24516L10.0415 15.4765L1.11309 13.0635L0.25769 16.2834L10.0131 18.9199C9.90137 18.434 9.84228 17.9278 9.84228 17.4076C9.84228 13.7254 12.8017 10.7405 16.4523 10.7405C20.103 10.7405 23.0624 13.7254 23.0624 17.4076C23.0624 17.9244 23.004 18.4276 22.8937 18.9106L31.7596 21.3067L32.6149 18.0868L22.8208 15.4398L31.7497 13.0266L30.8943 9.80665L21.1006 12.4535L27.6368 5.86092L25.2997 3.50375L18.2298 10.6348L20.625 1.6184Z" fill="#A3A1A3"/>
<path d="M22.8851 18.9481C22.6114 20.1152 22.0336 21.1638 21.2407 22.0038L27.6636 28.4822L30.0006 26.125L22.8851 18.9481Z" fill="#A3A1A3"/>
<path d="M21.1757 22.0717C20.3733 22.8983 19.3592 23.5152 18.222 23.8331L20.5592 32.6308L23.7516 31.7679L21.1757 22.0717Z" fill="#A3A1A3"/>
<path d="M18.1028 23.8653C17.5752 24.0021 17.0222 24.0748 16.4523 24.0748C15.8418 24.0748 15.2505 23.9912 14.6893 23.835L12.35 32.6407L15.5423 33.5034L18.1028 23.8653Z" fill="#A3A1A3"/>
<path d="M14.5764 23.8024C13.4566 23.4687 12.4606 22.844 11.6745 22.015L5.23584 28.5092L7.57284 30.8664L14.5764 23.8024Z" fill="#A3A1A3"/>
<path d="M11.6207 21.9576C10.8482 21.1234 10.2854 20.0889 10.0176 18.9398L1.1228 21.3437L1.9782 24.5636L11.6207 21.9576Z" fill="#A3A1A3"/>
</g>
<defs>
<clipPath id="clip0_21_323">
<rect width="136.364" height="33.5664" fill="white"/>
</clipPath>
</defs>
</svg>
