<svg width="138" height="34" viewBox="0 0 138 34" fill="none" xmlns="http://www.w3.org/2000/svg">
<g clip-path="url(#clip0_21_361)">
<path d="M41.354 23.4591H51.0721V20.582H44.808V9.74481H41.354V23.4591Z" fill="#A3A1A3"/>
<path d="M56.8296 21.541C55.4441 21.541 54.7221 20.3518 54.7221 18.5679C54.7221 16.7841 55.4441 15.5757 56.8296 15.5757C58.2151 15.5757 58.9567 16.7841 58.9567 18.5679C58.9567 20.3518 58.2151 21.541 56.8296 21.541ZM56.8491 23.7659C60.069 23.7659 62.1765 21.5218 62.1765 18.5679C62.1765 15.6141 60.069 13.3699 56.8491 13.3699C53.6488 13.3699 51.5022 15.6141 51.5022 18.5679C51.5022 21.5218 53.6488 23.7659 56.8491 23.7659Z" fill="#A3A1A3"/>
<path d="M67.7499 26.8541C69.2329 26.8541 70.5404 26.5281 71.4185 25.7608C72.2186 25.0511 72.7455 23.977 72.7455 22.5001V13.6385H69.7013V14.6935H69.6622C69.0768 13.8687 68.1792 13.3508 66.8522 13.3508C64.3739 13.3508 62.6566 15.384 62.6566 18.2611C62.6566 21.2725 64.7447 22.9221 66.9888 22.9221C68.1987 22.9221 68.9597 22.4425 69.5452 21.7904H69.6232V22.7686C69.6232 23.9578 69.0573 24.6483 67.7108 24.6483C66.6571 24.6483 66.1302 24.2072 65.9545 23.6893H62.8713C63.1835 25.7416 64.9984 26.8541 67.7499 26.8541ZM67.7303 20.6012C66.54 20.6012 65.7594 19.6421 65.7594 18.1652C65.7594 16.6691 66.54 15.7101 67.7303 15.7101C69.0573 15.7101 69.7598 16.8226 69.7598 18.146C69.7598 19.5271 69.1158 20.6012 67.7303 20.6012Z" fill="#A3A1A3"/>
<path d="M79.0049 21.541C77.6194 21.541 76.8974 20.3518 76.8974 18.5679C76.8974 16.7841 77.6194 15.5757 79.0049 15.5757C80.3904 15.5757 81.132 16.7841 81.132 18.5679C81.132 20.3518 80.3904 21.541 79.0049 21.541ZM79.0244 23.7659C82.2443 23.7659 84.3518 21.5218 84.3518 18.5679C84.3518 15.6141 82.2443 13.3699 79.0244 13.3699C75.8241 13.3699 73.6776 15.6141 73.6776 18.5679C73.6776 21.5218 75.8241 23.7659 79.0244 23.7659Z" fill="#A3A1A3"/>
<path d="M85.2804 23.4591H88.4612V13.6385H85.2804V23.4591ZM85.2804 12.2767H88.4612V9.74481H85.2804V12.2767Z" fill="#A3A1A3"/>
<path d="M89.8418 26.7007H93.0226V22.4425H93.0617C93.6861 23.2673 94.6033 23.766 95.8912 23.766C98.5061 23.766 100.243 21.7328 100.243 18.5488C100.243 15.595 98.6232 13.3508 95.9693 13.3508C94.6033 13.3508 93.6276 13.9454 92.9446 14.8278H92.886V13.6385H89.8418V26.7007ZM95.0716 21.3492C93.7056 21.3492 92.9251 20.2559 92.9251 18.6639C92.9251 17.0719 93.6276 15.8635 95.0131 15.8635C96.3791 15.8635 97.0231 16.976 97.0231 18.6639C97.0231 20.3326 96.2815 21.3492 95.0716 21.3492Z" fill="#A3A1A3"/>
<path d="M105.421 23.766C108.036 23.766 109.968 22.6535 109.968 20.5053C109.968 17.9926 107.9 17.5514 106.144 17.2637C104.875 17.0335 103.743 16.9376 103.743 16.2471C103.743 15.6333 104.348 15.3456 105.129 15.3456C106.007 15.3456 106.612 15.6142 106.729 16.4965H109.656C109.5 14.5592 107.978 13.3508 105.148 13.3508C102.787 13.3508 100.836 14.425 100.836 16.4965C100.836 18.7982 102.689 19.2585 104.426 19.5462C105.753 19.7764 106.963 19.8723 106.963 20.7546C106.963 21.3876 106.358 21.7328 105.402 21.7328C104.348 21.7328 103.685 21.2533 103.568 20.2751H100.562C100.66 22.4425 102.494 23.766 105.421 23.766Z" fill="#A3A1A3"/>
<path d="M114.289 23.7468C115.675 23.7468 116.553 23.2097 117.275 22.2507H117.333V23.4591H120.378V13.6385H117.197V19.1242C117.197 20.2942 116.533 21.0998 115.44 21.0998C114.426 21.0998 113.938 20.5052 113.938 19.4311V13.6385H110.777V20.0832C110.777 22.2699 111.986 23.7468 114.289 23.7468Z" fill="#A3A1A3"/>
<path d="M121.761 23.4591H124.941V17.9542C124.941 16.7842 125.527 15.9594 126.522 15.9594C127.478 15.9594 127.927 16.5732 127.927 17.6282V23.4591H131.108V17.9542C131.108 16.7842 131.674 15.9594 132.689 15.9594C133.645 15.9594 134.094 16.5732 134.094 17.6282V23.4591H137.274V17.0719C137.274 14.8661 136.143 13.3508 133.879 13.3508C132.591 13.3508 131.518 13.8879 130.737 15.0771H130.698C130.191 14.0222 129.195 13.3508 127.888 13.3508C126.444 13.3508 125.488 14.0222 124.863 15.0387H124.805V13.6385H121.761V23.4591Z" fill="#A3A1A3"/>
<path fill-rule="evenodd" clip-rule="evenodd" d="M16.8181 0.768799C25.975 0.768799 33.3982 8.06508 33.3982 17.0655C33.3982 26.066 25.975 33.3623 16.8181 33.3623C7.66122 33.3623 0.238098 26.066 0.238098 17.0655C0.238098 8.06508 7.66122 0.768799 16.8181 0.768799ZM32.7617 17.0655C32.7617 8.41057 25.6235 1.39427 16.8181 1.39427C16.1078 1.39427 15.4085 1.43992 14.7227 1.5284C15.1658 1.49033 15.6141 1.47089 16.0672 1.47089C24.4812 1.47089 31.3022 8.17529 31.3022 16.4456C31.3022 24.7158 24.4812 31.4202 16.0672 31.4202C8.10136 31.4202 1.56343 25.4111 0.889517 17.7531C1.25561 26.0891 8.24702 32.7368 16.8181 32.7368C25.6235 32.7368 32.7617 25.7205 32.7617 17.0655ZM30.6658 16.4456C30.6658 8.5207 24.1298 2.09637 16.0672 2.09637C15.4126 2.09637 14.7679 2.13873 14.1361 2.2208C14.5251 2.18862 14.9188 2.1722 15.3163 2.1722C22.9875 2.1722 29.2062 8.2847 29.2062 15.8248C29.2062 23.3649 22.9875 29.4773 15.3163 29.4773C8.063 29.4773 2.10823 24.0126 1.48103 17.0435C1.79992 24.691 8.2084 30.7947 16.0672 30.7947C24.1298 30.7947 30.6658 24.3704 30.6658 16.4456ZM15.3163 2.79768C22.636 2.79768 28.5698 8.63011 28.5698 15.8248C28.5698 23.0194 22.636 28.8518 15.3163 28.8518C8.1662 28.8518 2.33846 23.2865 2.07229 16.3225C2.64694 22.6082 8.02091 27.5344 14.5655 27.5344C21.4933 27.5344 27.1095 22.0142 27.1095 15.2047C27.1095 8.39523 21.4933 2.87508 14.5655 2.87508C14.2071 2.87508 13.8521 2.88985 13.5014 2.91881C14.0948 2.83895 14.7006 2.79768 15.3163 2.79768ZM26.473 15.2047C26.473 8.74072 21.1418 3.50056 14.5655 3.50056C14.0098 3.50056 13.463 3.53796 12.9277 3.61035C13.22 3.58786 13.5154 3.57641 13.8137 3.57641C19.9987 3.57641 25.0127 8.50464 25.0127 14.584C25.0127 20.6633 19.9987 25.5916 13.8137 25.5916C7.99225 25.5916 3.20825 21.2256 2.66599 15.6433C2.9006 21.9041 8.13839 26.909 14.5655 26.909C21.1418 26.909 26.473 21.6688 26.473 15.2047ZM13.8137 4.20188C19.6472 4.20188 24.3762 8.85013 24.3762 14.584C24.3762 20.3179 19.6472 24.9661 13.8137 24.9661C8.09508 24.9661 3.4379 20.4992 3.25663 14.9216C3.74622 19.8208 7.94973 23.6487 13.0628 23.6487C18.505 23.6487 22.9167 19.3123 22.9167 13.9632C22.9167 8.61405 18.505 4.27771 13.0628 4.27771C12.8133 4.27771 12.5658 4.28683 12.3209 4.30475C12.8086 4.23695 13.307 4.20188 13.8137 4.20188ZM22.2803 13.9632C22.2803 8.95946 18.1535 4.90319 13.0628 4.90319C12.5981 4.90319 12.1415 4.93699 11.6953 5.00222C11.8989 4.98788 12.1046 4.98059 12.312 4.98059C17.0108 4.98059 20.8199 8.72466 20.8199 13.3432C20.8199 17.9617 17.0108 21.7058 12.312 21.7058C7.90891 21.7058 4.28707 18.4182 3.84855 14.2042C3.97855 19.0965 8.05416 23.0232 13.0628 23.0232C18.1535 23.0232 22.2803 18.9669 22.2803 13.9632ZM12.312 5.60607C16.6594 5.60607 20.1835 9.07007 20.1835 13.3432C20.1835 17.6163 16.6594 21.0803 12.312 21.0803C8.01991 21.0803 4.53018 17.7039 4.44205 13.506C4.83854 17.0256 7.87458 19.7629 11.5611 19.7629C15.517 19.7629 18.724 16.6108 18.724 12.7224C18.724 8.83407 15.517 5.6819 11.5611 5.6819C11.4098 5.6819 11.2596 5.68651 11.1106 5.6956C11.5023 5.63664 11.9035 5.60607 12.312 5.60607ZM18.0876 12.7224C18.0876 9.17948 15.1656 6.30738 11.5611 6.30738C11.1991 6.30738 10.844 6.33634 10.4981 6.39204C10.6012 6.3867 10.7049 6.384 10.8094 6.384C14.0224 6.384 16.6272 8.9442 16.6272 12.1024C16.6272 15.2606 14.0224 17.8208 10.8094 17.8208C7.83838 17.8208 5.38754 15.6318 5.03508 12.8052C5.0802 16.31 7.98471 19.1374 11.5611 19.1374C15.1656 19.1374 18.0876 16.2654 18.0876 12.7224ZM10.8094 7.00947C13.671 7.00947 15.9908 9.28961 15.9908 12.1024C15.9908 14.9152 13.671 17.1953 10.8094 17.1953C7.94773 17.1953 5.62791 14.9152 5.62791 12.1024C5.62791 12.0957 5.62793 12.0889 5.62795 12.0822C5.92588 14.2256 7.79596 15.8772 10.0585 15.8772C12.5283 15.8772 14.5304 13.9092 14.5304 11.4817C14.5304 9.05401 12.5283 7.08611 10.0585 7.08611C10.0026 7.08611 9.94703 7.0871 9.89166 7.0891C10.1895 7.03678 10.4962 7.00947 10.8094 7.00947ZM13.894 11.4817C13.894 9.3995 12.1769 7.71158 10.0585 7.71158C7.94016 7.71158 6.22291 9.3995 6.22291 11.4817C6.22291 13.5637 7.94016 15.2517 10.0585 15.2517C12.1769 15.2517 13.894 13.5637 13.894 11.4817Z" fill="#A3A1A3"/>
</g>
<defs>
<clipPath id="clip0_21_361">
<rect width="137.413" height="33.5664" fill="white"/>
</clipPath>
</defs>
</svg>
